<svg width="368" height="267" viewBox="0 0 368 267" fill="none" xmlns="http://www.w3.org/2000/svg">
<path d="M4.98956 235.369L363.017 235.369" stroke="#E4E6E8" stroke-opacity="0.85" stroke-linecap="square"/>
<path d="M41.6717 235.835L41.2871 34.6699" stroke="#E4E6E8" stroke-opacity="0.85" stroke-linecap="square"/>
<path d="M98.2755 235.121L97.8909 33.9565" stroke="#E4E6E8" stroke-opacity="0.85" stroke-linecap="square"/>
<path d="M154.879 235.121L154.495 33.9565" stroke="#E4E6E8" stroke-opacity="0.85" stroke-linecap="square"/>
<path d="M211.483 235.121L211.099 33.9565" stroke="#E4E6E8" stroke-opacity="0.85" stroke-linecap="square"/>
<path d="M268.071 235.835L267.702 34.6699" stroke="#E4E6E8" stroke-opacity="0.85" stroke-linecap="square"/>
<path d="M324.675 235.835L324.29 34.6699" stroke="#E4E6E8" stroke-opacity="0.85" stroke-linecap="square"/>
<path d="M32.868 260.345C32.868 260.881 32.8073 261.339 32.686 261.717C32.5647 262.095 32.3477 262.382 32.035 262.578C31.727 262.774 31.2883 262.872 30.719 262.872C30.3597 262.872 30.0213 262.83 29.704 262.746C29.3913 262.662 29.1837 262.599 29.081 262.557L29.172 261.318C29.3167 261.369 29.4823 261.434 29.669 261.514C29.8603 261.588 30.096 261.626 30.376 261.626C30.8333 261.626 31.146 261.5 31.314 261.248C31.4867 260.996 31.573 260.571 31.573 259.974V252.61H32.868V260.345ZM37.0144 262.872C36.5477 262.872 36.1347 262.79 35.7754 262.627C35.4161 262.459 35.1337 262.218 34.9284 261.906C34.7277 261.593 34.6274 261.215 34.6274 260.772C34.6274 259.969 34.9074 259.372 35.4674 258.98C36.0274 258.588 36.9257 258.378 38.1624 258.35L39.4574 258.315V257.748C39.4574 257.304 39.3244 256.954 39.0584 256.698C38.7924 256.436 38.3794 256.306 37.8194 256.306C37.4041 256.31 37.0377 256.408 36.7204 256.6C36.4077 256.791 36.2047 257.104 36.1114 257.538H34.9704C34.9984 257.066 35.1314 256.67 35.3694 256.348C35.6074 256.021 35.9387 255.774 36.3634 255.606C36.7927 255.438 37.2991 255.354 37.8824 255.354C38.5124 255.354 39.0351 255.442 39.4504 255.62C39.8704 255.797 40.1831 256.058 40.3884 256.404C40.5984 256.749 40.7034 257.174 40.7034 257.678V262.732H39.5974L39.5064 261.374C39.2264 261.938 38.8694 262.33 38.4354 262.55C38.0061 262.764 37.5324 262.872 37.0144 262.872ZM37.4064 261.941C37.6491 261.941 37.8894 261.896 38.1274 261.808C38.3701 261.719 38.5917 261.6 38.7924 261.451C38.9931 261.297 39.1517 261.126 39.2684 260.94C39.3897 260.748 39.4527 260.552 39.4574 260.352V259.113L38.3794 259.134C37.8287 259.143 37.3667 259.199 36.9934 259.302C36.6247 259.404 36.3471 259.565 36.1604 259.785C35.9784 260.004 35.8874 260.291 35.8874 260.646C35.8874 261.052 36.0274 261.369 36.3074 261.598C36.5921 261.826 36.9584 261.941 37.4064 261.941ZM42.9148 262.732V255.494H44.1678V256.544C44.2844 256.343 44.4454 256.154 44.6508 255.977C44.8608 255.799 45.1128 255.657 45.4068 255.55C45.7054 255.442 46.0484 255.389 46.4358 255.389C46.8931 255.389 47.3131 255.48 47.6958 255.662C48.0831 255.844 48.3911 256.128 48.6198 256.516C48.8531 256.898 48.9698 257.393 48.9698 258V262.732H47.6748V258.126C47.6748 257.561 47.5254 257.143 47.2268 256.873C46.9328 256.597 46.5501 256.46 46.0788 256.46C45.7521 256.46 45.4464 256.513 45.1618 256.621C44.8771 256.723 44.6461 256.882 44.4688 257.097C44.2914 257.307 44.2028 257.573 44.2028 257.895V262.732H42.9148Z" fill="#171721"/>
<path d="M85.837 252.61H92.144L92.137 253.744H87.167V257.09H91.633V258.21H87.167V262.732H85.837V252.61ZM94.6024 259.414C94.6024 259.871 94.6771 260.286 94.8264 260.66C94.9804 261.028 95.2114 261.322 95.5194 261.542C95.8321 261.761 96.2218 261.871 96.6884 261.871C97.1504 261.871 97.5471 261.763 97.8784 261.549C98.2144 261.334 98.4291 261.024 98.5224 260.618H99.7474C99.6588 261.108 99.4628 261.521 99.1594 261.857C98.8561 262.193 98.4898 262.447 98.0604 262.62C97.6311 262.788 97.1831 262.872 96.7164 262.872C96.0398 262.872 95.4448 262.725 94.9314 262.431C94.4181 262.137 94.0168 261.714 93.7274 261.164C93.4381 260.613 93.2934 259.953 93.2934 259.183C93.2934 258.422 93.4241 257.755 93.6854 257.181C93.9468 256.607 94.3248 256.159 94.8194 255.837C95.3188 255.515 95.9184 255.354 96.6184 255.354C97.2998 255.354 97.8761 255.501 98.3474 255.795C98.8188 256.089 99.1758 256.504 99.4184 257.041C99.6658 257.573 99.7894 258.205 99.7894 258.938V259.414H94.6024ZM94.6094 258.539H98.5434C98.5434 258.123 98.4734 257.75 98.3334 257.419C98.1934 257.083 97.9788 256.819 97.6894 256.628C97.4048 256.432 97.0454 256.334 96.6114 256.334C96.1588 256.334 95.7831 256.443 95.4844 256.663C95.1904 256.877 94.9688 257.155 94.8194 257.496C94.6748 257.832 94.6048 258.179 94.6094 258.539ZM105.144 262.872C104.719 262.872 104.36 262.816 104.066 262.704C103.777 262.592 103.539 262.449 103.352 262.277C103.165 262.099 103.021 261.92 102.918 261.738C102.815 261.551 102.741 261.388 102.694 261.248L102.554 262.732H101.567V252.33H102.869V256.642C102.93 256.52 103.021 256.387 103.142 256.243C103.268 256.098 103.429 255.958 103.625 255.823C103.821 255.687 104.052 255.575 104.318 255.487C104.589 255.398 104.897 255.354 105.242 255.354C106.147 255.354 106.866 255.669 107.398 256.299C107.935 256.929 108.203 257.857 108.203 259.085C108.203 259.845 108.089 260.51 107.86 261.08C107.631 261.644 107.291 262.085 106.838 262.403C106.385 262.715 105.821 262.872 105.144 262.872ZM104.913 261.878C105.501 261.878 105.979 261.651 106.348 261.199C106.717 260.741 106.901 260.016 106.901 259.022C106.901 258.177 106.728 257.524 106.383 257.062C106.042 256.595 105.543 256.362 104.885 256.362C104.404 256.362 104.017 256.467 103.723 256.677C103.434 256.882 103.219 257.183 103.079 257.58C102.944 257.976 102.874 258.457 102.869 259.022C102.869 260.034 103.025 260.765 103.338 261.213C103.655 261.656 104.18 261.878 104.913 261.878Z" fill="#171721"/>
<path d="M144.837 262.732V252.61H146.629L149.681 260.968L152.775 252.61H154.56V262.732H153.223V254.549L150.29 262.732H149.079L146.167 254.626V262.732H144.837ZM158.932 262.872C158.466 262.872 158.053 262.79 157.693 262.627C157.334 262.459 157.052 262.218 156.846 261.906C156.646 261.593 156.545 261.215 156.545 260.772C156.545 259.969 156.825 259.372 157.385 258.98C157.945 258.588 158.844 258.378 160.08 258.35L161.375 258.315V257.748C161.375 257.304 161.242 256.954 160.976 256.698C160.71 256.436 160.297 256.306 159.737 256.306C159.322 256.31 158.956 256.408 158.638 256.6C158.326 256.791 158.123 257.104 158.029 257.538H156.888C156.916 257.066 157.049 256.67 157.287 256.348C157.525 256.021 157.857 255.774 158.281 255.606C158.711 255.438 159.217 255.354 159.8 255.354C160.43 255.354 160.953 255.442 161.368 255.62C161.788 255.797 162.101 256.058 162.306 256.404C162.516 256.749 162.621 257.174 162.621 257.678V262.732H161.515L161.424 261.374C161.144 261.938 160.787 262.33 160.353 262.55C159.924 262.764 159.45 262.872 158.932 262.872ZM159.324 261.941C159.567 261.941 159.807 261.896 160.045 261.808C160.288 261.719 160.51 261.6 160.71 261.451C160.911 261.297 161.07 261.126 161.186 260.94C161.308 260.748 161.371 260.552 161.375 260.352V259.113L160.297 259.134C159.747 259.143 159.285 259.199 158.911 259.302C158.543 259.404 158.265 259.565 158.078 259.785C157.896 260.004 157.805 260.291 157.805 260.646C157.805 261.052 157.945 261.369 158.225 261.598C158.51 261.826 158.876 261.941 159.324 261.941ZM164.833 262.732V255.494H166.065V256.887C166.186 256.541 166.356 256.257 166.576 256.033C166.795 255.804 167.045 255.634 167.325 255.522C167.609 255.41 167.903 255.354 168.207 255.354C168.314 255.354 168.419 255.361 168.522 255.375C168.624 255.389 168.704 255.412 168.76 255.445V256.698C168.69 256.665 168.599 256.644 168.487 256.635C168.379 256.621 168.288 256.614 168.214 256.614C167.924 256.595 167.654 256.614 167.402 256.67C167.15 256.721 166.928 256.812 166.737 256.943C166.545 257.073 166.394 257.246 166.282 257.461C166.174 257.671 166.121 257.927 166.121 258.231V262.732H164.833Z" fill="#171721"/>
<path d="M204.081 262.732L207.742 252.61H209.205L212.866 262.732H211.543L210.549 259.96H206.412L205.397 262.732H204.081ZM206.741 258.77H210.206L208.484 253.891L206.741 258.77ZM214.51 264.986V255.494H215.798L215.812 256.754C215.896 256.604 216.004 256.448 216.134 256.285C216.27 256.121 216.433 255.97 216.624 255.83C216.82 255.69 217.047 255.575 217.303 255.487C217.565 255.398 217.861 255.354 218.192 255.354C218.771 255.354 219.28 255.487 219.718 255.753C220.162 256.014 220.507 256.415 220.754 256.957C221.002 257.498 221.125 258.184 221.125 259.015C221.125 259.845 221.004 260.548 220.761 261.122C220.523 261.691 220.178 262.125 219.725 262.424C219.273 262.722 218.727 262.872 218.087 262.872C217.765 262.872 217.478 262.825 217.226 262.732C216.979 262.643 216.762 262.526 216.575 262.382C216.393 262.232 216.239 262.074 216.113 261.906C215.992 261.738 215.892 261.577 215.812 261.423V264.986H214.51ZM217.842 261.864C218.44 261.864 218.927 261.637 219.305 261.185C219.683 260.727 219.872 260.018 219.872 259.057C219.872 258.231 219.7 257.575 219.354 257.09C219.009 256.604 218.505 256.362 217.842 256.362C217.17 256.362 216.662 256.611 216.316 257.111C215.971 257.605 215.798 258.254 215.798 259.057C215.798 259.575 215.875 260.046 216.029 260.471C216.183 260.895 216.412 261.234 216.715 261.486C217.019 261.738 217.394 261.864 217.842 261.864ZM222.823 262.732V255.494H224.055V256.887C224.176 256.541 224.347 256.257 224.566 256.033C224.785 255.804 225.035 255.634 225.315 255.522C225.6 255.41 225.894 255.354 226.197 255.354C226.304 255.354 226.409 255.361 226.512 255.375C226.615 255.389 226.694 255.412 226.75 255.445V256.698C226.68 256.665 226.589 256.644 226.477 256.635C226.37 256.621 226.279 256.614 226.204 256.614C225.915 256.595 225.644 256.614 225.392 256.67C225.14 256.721 224.918 256.812 224.727 256.943C224.536 257.073 224.384 257.246 224.272 257.461C224.165 257.671 224.111 257.927 224.111 258.231V262.732H222.823Z" fill="#171721"/>
<path d="M265.868 260.345C265.868 260.881 265.807 261.339 265.686 261.717C265.565 262.095 265.348 262.382 265.035 262.578C264.727 262.774 264.288 262.872 263.719 262.872C263.36 262.872 263.021 262.83 262.704 262.746C262.391 262.662 262.184 262.599 262.081 262.557L262.172 261.318C262.317 261.369 262.482 261.434 262.669 261.514C262.86 261.588 263.096 261.626 263.376 261.626C263.833 261.626 264.146 261.5 264.314 261.248C264.487 260.996 264.573 260.571 264.573 259.974V252.61H265.868V260.345ZM270.672 262.872C270.294 262.867 269.937 262.813 269.601 262.711C269.27 262.603 268.976 262.447 268.719 262.242C268.463 262.036 268.26 261.782 268.11 261.479C267.966 261.171 267.893 260.814 267.893 260.408V255.494H269.188V260.275C269.188 260.746 269.333 261.129 269.622 261.423C269.916 261.717 270.357 261.864 270.945 261.864C271.477 261.864 271.904 261.726 272.226 261.451C272.553 261.171 272.716 260.755 272.716 260.205V255.494H274.004V262.732H272.975L272.842 261.346C272.754 261.71 272.602 262.004 272.387 262.228C272.177 262.452 271.923 262.617 271.624 262.725C271.33 262.827 271.013 262.876 270.672 262.872ZM276.106 262.732V255.494H277.359V256.544C277.476 256.343 277.637 256.154 277.842 255.977C278.052 255.799 278.304 255.657 278.598 255.55C278.897 255.442 279.24 255.389 279.627 255.389C280.084 255.389 280.504 255.48 280.887 255.662C281.274 255.844 281.582 256.128 281.811 256.516C282.044 256.898 282.161 257.393 282.161 258V262.732H280.866V258.126C280.866 257.561 280.717 257.143 280.418 256.873C280.124 256.597 279.741 256.46 279.27 256.46C278.943 256.46 278.638 256.513 278.353 256.621C278.068 256.723 277.837 256.882 277.66 257.097C277.483 257.307 277.394 257.573 277.394 257.895V262.732H276.106Z" fill="#171721"/>
<path d="M321.868 260.345C321.868 260.881 321.807 261.339 321.686 261.717C321.565 262.095 321.348 262.382 321.035 262.578C320.727 262.774 320.288 262.872 319.719 262.872C319.36 262.872 319.021 262.83 318.704 262.746C318.391 262.662 318.184 262.599 318.081 262.557L318.172 261.318C318.317 261.369 318.482 261.434 318.669 261.514C318.86 261.588 319.096 261.626 319.376 261.626C319.833 261.626 320.146 261.5 320.314 261.248C320.487 260.996 320.573 260.571 320.573 259.974V252.61H321.868V260.345ZM326.672 262.872C326.294 262.867 325.937 262.813 325.601 262.711C325.27 262.603 324.976 262.447 324.719 262.242C324.463 262.036 324.26 261.782 324.11 261.479C323.966 261.171 323.893 260.814 323.893 260.408V255.494H325.188V260.275C325.188 260.746 325.333 261.129 325.622 261.423C325.916 261.717 326.357 261.864 326.945 261.864C327.477 261.864 327.904 261.726 328.226 261.451C328.553 261.171 328.716 260.755 328.716 260.205V255.494H330.004V262.732H328.975L328.842 261.346C328.754 261.71 328.602 262.004 328.387 262.228C328.177 262.452 327.923 262.617 327.624 262.725C327.33 262.827 327.013 262.876 326.672 262.872ZM333.933 262.823C333.541 262.823 333.224 262.769 332.981 262.662C332.743 262.554 332.559 262.41 332.428 262.228C332.302 262.046 332.216 261.838 332.169 261.605C332.127 261.367 332.106 261.122 332.106 260.87V252.33H333.38V260.744C333.38 261.108 333.45 261.381 333.59 261.563C333.735 261.745 333.935 261.845 334.192 261.864L334.584 261.871V262.711C334.477 262.743 334.365 262.769 334.248 262.788C334.131 262.811 334.026 262.823 333.933 262.823Z" fill="#171721"/>
<mask id="mask0_214_12294" style="mask-type:luminance" maskUnits="userSpaceOnUse" x="4" y="0" width="360" height="235">
<path d="M4 0H363.014V234.439H4V0Z" fill="white"/>
</mask>
<g mask="url(#mask0_214_12294)">
<path opacity="0.15" d="M851.995 138.681C851.995 138.681 813.716 166.12 793.302 155.053C772.889 143.986 766.674 108.673 710.823 108.673C654.973 108.673 578.825 178.278 535.135 178.278C491.446 178.278 445.986 111.365 380.882 144.598C315.778 177.832 327.914 199.284 276.214 199.284C224.515 199.284 179.511 67.4677 120.889 68.1034C77.1798 68.1034 60.4018 193.247 45.8286 212.662C31.2553 232.077 -9.46589 178.278 -81.422 178.278C-144.933 178.278 -205.163 74.6973 -266.829 74.6973C-328.495 74.6973 -353.545 184.542 -408.253 184.542C-462.961 184.542 -462.152 144.598 -505.619 144.598C-505.928 213.314 -505.619 282.073 -505.619 282.073H851.995V138.681Z" fill="url(#paint0_linear_214_12294)"/>
<path d="M851.995 140.164C851.995 140.164 813.712 168.18 793.296 156.88C772.88 145.581 766.664 109.526 710.807 109.526C654.95 109.526 578.793 180.593 535.099 180.593C491.405 180.593 445.94 112.274 380.829 146.206C315.717 180.138 327.854 202.041 276.149 202.041C224.444 202.041 179.435 67.4544 120.806 68.1035C77.0918 68.1035 60.3119 195.877 45.737 215.7C31.1621 235.523 -9.56373 180.593 -81.528 180.593C-145.047 180.593 -205.283 74.8359 -266.956 74.8359C-328.629 74.8359 -353.682 186.989 -408.397 186.989C-463.111 186.989 -462.301 146.206 -505.773 146.206" stroke="#005E5D" stroke-width="2"/>
</g>
<ellipse cx="197.06" cy="128.383" rx="9.0596" ry="8.37282" fill="#CFB500"/>
<ellipse cx="197.06" cy="128.383" rx="5.03311" ry="4.65157" fill="#005E5D"/>
<g filter="url(#filter0_d_214_12294)">
<path fill-rule="evenodd" clip-rule="evenodd" d="M217.179 110.707C216.074 110.707 215.179 111.603 215.179 112.707V121.965L208.973 127.7C208.565 128.077 208.565 128.69 208.973 129.067L215.179 134.802V164.526C215.179 165.631 216.074 166.526 217.179 166.526H320.887C321.992 166.526 322.887 165.631 322.887 164.526V112.707C322.887 111.603 321.992 110.707 320.887 110.707H217.179Z" fill="white"/>
<path d="M215.179 121.965L215.518 122.332L215.679 122.183V121.965H215.179ZM208.973 127.7L209.312 128.067L209.312 128.067L208.973 127.7ZM208.973 129.067L209.312 128.699L209.312 128.699L208.973 129.067ZM215.179 134.802H215.679V134.583L215.518 134.435L215.179 134.802ZM215.679 112.707C215.679 111.879 216.35 111.207 217.179 111.207V110.207C215.798 110.207 214.679 111.327 214.679 112.707H215.679ZM215.679 121.965V112.707H214.679V121.965H215.679ZM209.312 128.067L215.518 122.332L214.839 121.597L208.634 127.333L209.312 128.067ZM209.312 128.699C209.119 128.521 209.119 128.246 209.312 128.067L208.634 127.333C208.012 127.907 208.012 128.859 208.634 129.434L209.312 128.699ZM215.518 134.435L209.312 128.699L208.634 129.434L214.839 135.169L215.518 134.435ZM215.679 164.526V134.802H214.679V164.526H215.679ZM217.179 166.026C216.35 166.026 215.679 165.355 215.679 164.526H214.679C214.679 165.907 215.798 167.026 217.179 167.026V166.026ZM320.887 166.026H217.179V167.026H320.887V166.026ZM322.387 164.526C322.387 165.355 321.716 166.026 320.887 166.026V167.026C322.268 167.026 323.387 165.907 323.387 164.526H322.387ZM322.387 112.707V164.526H323.387V112.707H322.387ZM320.887 111.207C321.716 111.207 322.387 111.879 322.387 112.707H323.387C323.387 111.327 322.268 110.207 320.887 110.207V111.207ZM217.179 111.207H320.887V110.207H217.179V111.207Z" fill="#E4E6E8"/>
</g>
<path d="M236.659 129.32C236.659 129.857 236.599 130.314 236.477 130.692C236.356 131.07 236.139 131.357 235.826 131.553C235.518 131.749 235.08 131.847 234.51 131.847C234.151 131.847 233.813 131.805 233.495 131.721C233.183 131.637 232.975 131.574 232.872 131.532L232.963 130.293C233.108 130.345 233.274 130.41 233.46 130.489C233.652 130.564 233.887 130.601 234.167 130.601C234.625 130.601 234.937 130.475 235.105 130.223C235.278 129.971 235.364 129.547 235.364 128.949V121.585H236.659V129.32ZM241.464 131.847C241.086 131.843 240.729 131.789 240.393 131.686C240.061 131.579 239.767 131.423 239.511 131.217C239.254 131.012 239.051 130.758 238.902 130.454C238.757 130.146 238.685 129.789 238.685 129.383V124.469H239.98V129.25C239.98 129.722 240.124 130.104 240.414 130.398C240.708 130.692 241.149 130.839 241.737 130.839C242.269 130.839 242.696 130.702 243.018 130.426C243.344 130.146 243.508 129.731 243.508 129.18V124.469H244.796V131.707H243.767L243.634 130.321C243.545 130.685 243.393 130.979 243.179 131.203C242.969 131.427 242.714 131.593 242.416 131.7C242.122 131.803 241.804 131.852 241.464 131.847ZM246.898 131.707V124.469H248.151V125.519C248.267 125.319 248.428 125.13 248.634 124.952C248.844 124.775 249.096 124.633 249.39 124.525C249.688 124.418 250.031 124.364 250.419 124.364C250.876 124.364 251.296 124.455 251.679 124.637C252.066 124.819 252.374 125.104 252.603 125.491C252.836 125.874 252.953 126.369 252.953 126.975V131.707H251.658V127.101C251.658 126.537 251.508 126.119 251.21 125.848C250.916 125.573 250.533 125.435 250.062 125.435C249.735 125.435 249.429 125.489 249.145 125.596C248.86 125.699 248.629 125.858 248.452 126.072C248.274 126.282 248.186 126.548 248.186 126.87V131.707H246.898ZM255.902 128.389C255.902 128.847 255.976 129.262 256.126 129.635C256.28 130.004 256.511 130.298 256.819 130.517C257.131 130.737 257.521 130.846 257.988 130.846C258.45 130.846 258.846 130.739 259.178 130.524C259.514 130.31 259.728 129.999 259.822 129.593H261.047C260.958 130.083 260.762 130.496 260.459 130.832C260.155 131.168 259.789 131.423 259.36 131.595C258.93 131.763 258.482 131.847 258.016 131.847C257.339 131.847 256.744 131.7 256.231 131.406C255.717 131.112 255.316 130.69 255.027 130.139C254.737 129.589 254.593 128.928 254.593 128.158C254.593 127.398 254.723 126.73 254.985 126.156C255.246 125.582 255.624 125.134 256.119 124.812C256.618 124.49 257.218 124.329 257.918 124.329C258.599 124.329 259.175 124.476 259.647 124.77C260.118 125.064 260.475 125.48 260.718 126.016C260.965 126.548 261.089 127.181 261.089 127.913V128.389H255.902ZM255.909 127.514H259.843C259.843 127.099 259.773 126.726 259.633 126.394C259.493 126.058 259.278 125.795 258.989 125.603C258.704 125.407 258.345 125.309 257.911 125.309C257.458 125.309 257.082 125.419 256.784 125.638C256.49 125.853 256.268 126.131 256.119 126.471C255.974 126.807 255.904 127.155 255.909 127.514ZM267.544 131.707V123.65H265.591V122.803C266.197 122.803 266.669 122.759 267.005 122.67C267.341 122.582 267.579 122.446 267.719 122.264C267.863 122.082 267.943 121.856 267.957 121.585H268.881V131.707H267.544ZM275.275 121.445C275.835 121.445 276.351 121.55 276.822 121.76C277.298 121.97 277.692 122.271 278.005 122.663C278.318 123.055 278.511 123.529 278.586 124.084H277.368C277.233 123.604 276.988 123.223 276.633 122.943C276.278 122.663 275.833 122.523 275.296 122.523C274.699 122.523 274.199 122.694 273.798 123.034C273.401 123.37 273.112 123.865 272.93 124.518C272.748 125.167 272.685 125.965 272.741 126.912C272.867 126.572 273.058 126.273 273.315 126.016C273.576 125.755 273.88 125.554 274.225 125.414C274.57 125.27 274.944 125.197 275.345 125.197C276.012 125.197 276.596 125.328 277.095 125.589C277.594 125.846 277.984 126.215 278.264 126.695C278.544 127.171 278.684 127.741 278.684 128.403C278.684 129.08 278.539 129.68 278.25 130.202C277.965 130.72 277.559 131.126 277.032 131.42C276.505 131.714 275.882 131.861 275.163 131.861C274.379 131.861 273.698 131.658 273.119 131.252C272.545 130.846 272.099 130.268 271.782 129.516C271.469 128.76 271.313 127.855 271.313 126.8C271.313 125.718 271.465 124.775 271.768 123.972C272.076 123.17 272.524 122.549 273.112 122.11C273.7 121.667 274.421 121.445 275.275 121.445ZM275.135 126.247C274.766 126.247 274.412 126.336 274.071 126.513C273.735 126.686 273.46 126.915 273.245 127.199C273.035 127.484 272.93 127.799 272.93 128.144C272.925 128.658 273.014 129.115 273.196 129.516C273.383 129.913 273.644 130.226 273.98 130.454C274.316 130.678 274.706 130.79 275.149 130.79C275.564 130.79 275.933 130.692 276.255 130.496C276.577 130.3 276.829 130.027 277.011 129.677C277.198 129.327 277.291 128.924 277.291 128.466C277.291 128.004 277.207 127.608 277.039 127.276C276.876 126.945 276.633 126.691 276.311 126.513C275.989 126.336 275.597 126.247 275.135 126.247Z" fill="#6F818C"/>
<path d="M237.24 153.847C236.027 153.847 235.042 153.605 234.286 153.119C233.53 152.629 233.096 151.876 232.984 150.858L235.112 150.816C235.224 151.278 235.465 151.631 235.833 151.873C236.207 152.111 236.673 152.23 237.233 152.23C237.569 152.23 237.866 152.177 238.122 152.069C238.384 151.957 238.589 151.808 238.738 151.621C238.888 151.43 238.962 151.213 238.962 150.97C238.962 150.597 238.843 150.319 238.605 150.137C238.367 149.951 238.001 149.801 237.506 149.689L235.847 149.332C235.077 149.178 234.459 148.873 233.992 148.415C233.53 147.953 233.295 147.335 233.285 146.56C233.281 145.926 233.451 145.377 233.796 144.915C234.146 144.449 234.62 144.089 235.217 143.837C235.819 143.585 236.494 143.459 237.24 143.459C238.006 143.459 238.666 143.597 239.221 143.872C239.781 144.143 240.211 144.509 240.509 144.971C240.813 145.429 240.96 145.935 240.95 146.49L238.885 146.525C238.82 146.077 238.671 145.725 238.437 145.468C238.204 145.212 237.817 145.083 237.275 145.083C236.995 145.083 236.746 145.114 236.526 145.174C236.307 145.235 236.118 145.321 235.959 145.433C235.801 145.541 235.679 145.669 235.595 145.818C235.516 145.968 235.476 146.136 235.476 146.322C235.476 146.616 235.574 146.85 235.77 147.022C235.971 147.19 236.347 147.347 236.897 147.491L238.528 147.89C239.448 148.11 240.11 148.485 240.516 149.017C240.927 149.549 241.132 150.196 241.132 150.956C241.132 151.54 240.971 152.048 240.649 152.482C240.332 152.916 239.882 153.252 239.298 153.49C238.715 153.728 238.029 153.847 237.24 153.847ZM236.365 142.136H238.136V143.956H236.365V142.136ZM236.33 153.224H238.094V155.044H236.33V153.224ZM244.229 153.707V146.126H242.423V144.971C243.001 144.971 243.468 144.918 243.823 144.81C244.182 144.698 244.45 144.54 244.628 144.334C244.805 144.124 244.91 143.875 244.943 143.585H246.301V153.707H244.229ZM253.024 143.585H255.033V149.752H256.594V151.467H255.033V153.707H253.066L253.073 151.467H248.411V149.787L253.024 143.585ZM250.301 149.752H253.073V146.042L250.301 149.752ZM257.689 153.707V151.481H259.929V153.707H257.689ZM265.46 143.445C266.155 143.445 266.776 143.555 267.322 143.774C267.873 143.994 268.307 144.316 268.624 144.74C268.941 145.16 269.1 145.678 269.1 146.294C269.1 146.812 268.958 147.253 268.673 147.617C268.388 147.981 268.038 148.261 267.623 148.457C267.931 148.523 268.232 148.677 268.526 148.919C268.825 149.157 269.07 149.451 269.261 149.801C269.452 150.147 269.548 150.513 269.548 150.9C269.548 151.502 269.378 152.025 269.037 152.468C268.701 152.912 268.225 153.255 267.609 153.497C266.998 153.735 266.281 153.854 265.46 153.854C264.648 153.854 263.936 153.735 263.325 153.497C262.714 153.255 262.238 152.912 261.897 152.468C261.556 152.025 261.386 151.502 261.386 150.9C261.386 150.513 261.482 150.147 261.673 149.801C261.864 149.451 262.107 149.157 262.401 148.919C262.695 148.677 262.998 148.523 263.311 148.457C262.896 148.261 262.543 147.981 262.254 147.617C261.965 147.253 261.82 146.812 261.82 146.294C261.82 145.678 261.979 145.16 262.296 144.74C262.618 144.316 263.054 143.994 263.605 143.774C264.156 143.555 264.774 143.445 265.46 143.445ZM265.46 147.666C265.927 147.666 266.309 147.543 266.608 147.295C266.911 147.043 267.063 146.696 267.063 146.252C267.063 145.814 266.911 145.466 266.608 145.209C266.305 144.953 265.922 144.824 265.46 144.824C265.003 144.824 264.622 144.953 264.319 145.209C264.016 145.466 263.864 145.814 263.864 146.252C263.864 146.696 264.016 147.043 264.319 147.295C264.622 147.543 265.003 147.666 265.46 147.666ZM265.46 152.314C266.057 152.314 266.524 152.181 266.86 151.915C267.201 151.645 267.371 151.288 267.371 150.844C267.371 150.546 267.294 150.284 267.14 150.06C266.986 149.832 266.767 149.652 266.482 149.521C266.197 149.391 265.857 149.325 265.46 149.325C265.073 149.325 264.737 149.391 264.452 149.521C264.167 149.652 263.948 149.832 263.794 150.06C263.64 150.284 263.563 150.546 263.563 150.844C263.563 151.288 263.733 151.645 264.074 151.915C264.415 152.181 264.877 152.314 265.46 152.314ZM274.643 143.445C275.847 143.445 276.797 143.896 277.492 144.796C278.188 145.692 278.535 146.983 278.535 148.667C278.535 150.343 278.192 151.628 277.506 152.524C276.82 153.416 275.866 153.861 274.643 153.861C273.416 153.861 272.457 153.416 271.766 152.524C271.08 151.633 270.737 150.35 270.737 148.674C270.737 147.554 270.896 146.605 271.213 145.825C271.531 145.046 271.981 144.456 272.564 144.054C273.148 143.648 273.841 143.445 274.643 143.445ZM274.643 152.188C275.245 152.188 275.686 151.92 275.966 151.383C276.246 150.842 276.386 149.939 276.386 148.674C276.386 147.382 276.244 146.455 275.959 145.895C275.675 145.335 275.234 145.055 274.636 145.055C274.039 145.055 273.593 145.338 273.299 145.902C273.01 146.467 272.865 147.391 272.865 148.674C272.865 149.934 273.01 150.835 273.299 151.376C273.589 151.918 274.037 152.188 274.643 152.188ZM283.626 143.445C284.83 143.445 285.78 143.896 286.475 144.796C287.17 145.692 287.518 146.983 287.518 148.667C287.518 150.343 287.175 151.628 286.489 152.524C285.803 153.416 284.849 153.861 283.626 153.861C282.399 153.861 281.44 153.416 280.749 152.524C280.063 151.633 279.72 150.35 279.72 148.674C279.72 147.554 279.879 146.605 280.196 145.825C280.513 145.046 280.964 144.456 281.547 144.054C282.13 143.648 282.823 143.445 283.626 143.445ZM283.626 152.188C284.228 152.188 284.669 151.92 284.949 151.383C285.229 150.842 285.369 149.939 285.369 148.674C285.369 147.382 285.227 146.455 284.942 145.895C284.657 145.335 284.216 145.055 283.619 145.055C283.022 145.055 282.576 145.338 282.282 145.902C281.993 146.467 281.848 147.391 281.848 148.674C281.848 149.934 281.993 150.835 282.282 151.376C282.571 151.918 283.019 152.188 283.626 152.188Z" fill="#171721"/>
<defs>
<filter id="filter0_d_214_12294" x="184.167" y="106.207" width="163.22" height="104.819" filterUnits="userSpaceOnUse" color-interpolation-filters="sRGB">
<feFlood flood-opacity="0" result="BackgroundImageFix"/>
<feColorMatrix in="SourceAlpha" type="matrix" values="0 0 0 0 0 0 0 0 0 0 0 0 0 0 0 0 0 0 127 0" result="hardAlpha"/>
<feOffset dy="20"/>
<feGaussianBlur stdDeviation="12"/>
<feColorMatrix type="matrix" values="0 0 0 0 0.6 0 0 0 0 0.607843 0 0 0 0 0.658824 0 0 0 0.18 0"/>
<feBlend mode="normal" in2="BackgroundImageFix" result="effect1_dropShadow_214_12294"/>
<feBlend mode="normal" in="SourceGraphic" in2="effect1_dropShadow_214_12294" result="shape"/>
</filter>
<linearGradient id="paint0_linear_214_12294" x1="1496.72" y1="-135.105" x2="1496.72" y2="282.073" gradientUnits="userSpaceOnUse">
<stop stop-color="#337E7D"/>
<stop offset="0.869792" stop-color="white"/>
</linearGradient>
</defs>
</svg>
