<svg width="337" height="375" viewBox="0 0 337 375" fill="none" xmlns="http://www.w3.org/2000/svg">
<rect x="0.943604" y="0.963867" width="335" height="373" rx="16" stroke="#E4E6E8" stroke-opacity="0.85" stroke-linecap="square"/>
<rect x="18" y="64" width="100" height="28" rx="14" fill="#F5F7FA" fill-opacity="0.7"/>
<rect x="18" y="64" width="100" height="28" rx="14" stroke="#E4E6E8" stroke-opacity="0.85" stroke-linecap="square"/>
<circle cx="33" cy="78" r="5" fill="#CFB500"/>
<mask id="mask0_162_7472" style="mask-type:luminance" maskUnits="userSpaceOnUse" x="28" y="73" width="10" height="10">
<circle cx="33" cy="78" r="5" fill="white"/>
</mask>
<g mask="url(#mask0_162_7472)">
</g>
<path d="M55.5359 77.716C55.9839 77.796 56.3639 78.032 56.6759 78.424C56.9879 78.816 57.1439 79.26 57.1439 79.756C57.1439 80.18 57.0319 80.564 56.8079 80.908C56.5919 81.244 56.2759 81.512 55.8599 81.712C55.4439 81.904 54.9599 82 54.4079 82H51.0719V73.66H54.2519C54.8199 73.66 55.3079 73.756 55.7159 73.948C56.1239 74.14 56.4319 74.4 56.6399 74.728C56.8479 75.048 56.9519 75.408 56.9519 75.808C56.9519 76.288 56.8239 76.688 56.5679 77.008C56.3119 77.328 55.9679 77.564 55.5359 77.716ZM52.4399 77.164H54.1319C54.5799 77.164 54.9279 77.064 55.1759 76.864C55.4319 76.656 55.5599 76.36 55.5599 75.976C55.5599 75.6 55.4319 75.308 55.1759 75.1C54.9279 74.884 54.5799 74.776 54.1319 74.776H52.4399V77.164ZM54.2879 80.884C54.7519 80.884 55.1159 80.772 55.3799 80.548C55.6439 80.324 55.7759 80.012 55.7759 79.612C55.7759 79.204 55.6359 78.88 55.3559 78.64C55.0759 78.4 54.7039 78.28 54.2399 78.28H52.4399V80.884H54.2879ZM59.9985 73.12V82H58.6305V73.12H59.9985ZM67.7825 75.388V82H66.4145V81.22C66.1985 81.492 65.9145 81.708 65.5625 81.868C65.2185 82.02 64.8505 82.096 64.4585 82.096C63.9385 82.096 63.4705 81.988 63.0545 81.772C62.6465 81.556 62.3225 81.236 62.0825 80.812C61.8505 80.388 61.7345 79.876 61.7345 79.276V75.388H63.0905V79.072C63.0905 79.664 63.2385 80.12 63.5345 80.44C63.8305 80.752 64.2345 80.908 64.7465 80.908C65.2585 80.908 65.6625 80.752 65.9585 80.44C66.2625 80.12 66.4145 79.664 66.4145 79.072V75.388H67.7825ZM75.6475 78.532C75.6475 78.78 75.6315 79.004 75.5995 79.204H70.5475C70.5875 79.732 70.7835 80.156 71.1355 80.476C71.4875 80.796 71.9195 80.956 72.4315 80.956C73.1675 80.956 73.6875 80.648 73.9915 80.032H75.4675C75.2675 80.64 74.9035 81.14 74.3755 81.532C73.8555 81.916 73.2075 82.108 72.4315 82.108C71.7995 82.108 71.2315 81.968 70.7275 81.688C70.2315 81.4 69.8395 81 69.5515 80.488C69.2715 79.968 69.1315 79.368 69.1315 78.688C69.1315 78.008 69.2675 77.412 69.5395 76.9C69.8195 76.38 70.2075 75.98 70.7035 75.7C71.2075 75.42 71.7835 75.28 72.4315 75.28C73.0555 75.28 73.6115 75.416 74.0995 75.688C74.5875 75.96 74.9675 76.344 75.2395 76.84C75.5115 77.328 75.6475 77.892 75.6475 78.532ZM74.2195 78.1C74.2115 77.596 74.0315 77.192 73.6795 76.888C73.3275 76.584 72.8915 76.432 72.3715 76.432C71.8995 76.432 71.4955 76.584 71.1595 76.888C70.8235 77.184 70.6235 77.588 70.5595 78.1H74.2195ZM78.3618 76.372C78.5938 76.052 78.9098 75.792 79.3098 75.592C79.7178 75.384 80.1698 75.28 80.6658 75.28C81.2498 75.28 81.7778 75.42 82.2498 75.7C82.7218 75.98 83.0938 76.38 83.3658 76.9C83.6378 77.412 83.7738 78 83.7738 78.664C83.7738 79.328 83.6378 79.924 83.3658 80.452C83.0938 80.972 82.7178 81.38 82.2378 81.676C81.7658 81.964 81.2418 82.108 80.6658 82.108C80.1538 82.108 79.6978 82.008 79.2978 81.808C78.9058 81.608 78.5938 81.352 78.3618 81.04V82H76.9938V73.12H78.3618V76.372ZM82.3818 78.664C82.3818 78.208 82.2858 77.816 82.0938 77.488C81.9098 77.152 81.6618 76.9 81.3498 76.732C81.0458 76.556 80.7178 76.468 80.3658 76.468C80.0218 76.468 79.6938 76.556 79.3818 76.732C79.0778 76.908 78.8298 77.164 78.6378 77.5C78.4538 77.836 78.3618 78.232 78.3618 78.688C78.3618 79.144 78.4538 79.544 78.6378 79.888C78.8298 80.224 79.0778 80.48 79.3818 80.656C79.6938 80.832 80.0218 80.92 80.3658 80.92C80.7178 80.92 81.0458 80.832 81.3498 80.656C81.6618 80.472 81.9098 80.208 82.0938 79.864C82.2858 79.52 82.3818 79.12 82.3818 78.664ZM91.1866 78.532C91.1866 78.78 91.1706 79.004 91.1386 79.204H86.0866C86.1266 79.732 86.3226 80.156 86.6746 80.476C87.0266 80.796 87.4586 80.956 87.9706 80.956C88.7066 80.956 89.2266 80.648 89.5306 80.032H91.0066C90.8066 80.64 90.4426 81.14 89.9146 81.532C89.3946 81.916 88.7466 82.108 87.9706 82.108C87.3386 82.108 86.7706 81.968 86.2666 81.688C85.7706 81.4 85.3786 81 85.0906 80.488C84.8106 79.968 84.6706 79.368 84.6706 78.688C84.6706 78.008 84.8066 77.412 85.0786 76.9C85.3586 76.38 85.7466 75.98 86.2426 75.7C86.7466 75.42 87.3226 75.28 87.9706 75.28C88.5946 75.28 89.1506 75.416 89.6386 75.688C90.1266 75.96 90.5066 76.344 90.7786 76.84C91.0506 77.328 91.1866 77.892 91.1866 78.532ZM89.7586 78.1C89.7506 77.596 89.5706 77.192 89.2186 76.888C88.8666 76.584 88.4306 76.432 87.9106 76.432C87.4386 76.432 87.0346 76.584 86.6986 76.888C86.3626 77.184 86.1626 77.588 86.0986 78.1H89.7586ZM93.9008 76.348C94.1008 76.012 94.3648 75.752 94.6928 75.568C95.0288 75.376 95.4248 75.28 95.8808 75.28V76.696H95.5328C94.9968 76.696 94.5888 76.832 94.3088 77.104C94.0368 77.376 93.9008 77.848 93.9008 78.52V82H92.5328V75.388H93.9008V76.348ZM98.5063 76.348C98.7063 76.012 98.9703 75.752 99.2983 75.568C99.6343 75.376 100.03 75.28 100.486 75.28V76.696H100.138C99.6023 76.696 99.1943 76.832 98.9143 77.104C98.6423 77.376 98.5063 77.848 98.5063 78.52V82H97.1383V75.388H98.5063V76.348ZM107.696 75.388L103.64 85.108H102.224L103.568 81.892L100.964 75.388H102.488L104.348 80.428L106.28 75.388H107.696Z" fill="#171721"/>
<rect x="128" y="64" width="97" height="28" rx="14" stroke="#E4E6E8" stroke-opacity="0.85" stroke-linecap="square"/>
<circle cx="143" cy="78" r="5" fill="#99BFBE"/>
<mask id="mask1_162_7472" style="mask-type:luminance" maskUnits="userSpaceOnUse" x="138" y="73" width="10" height="10">
<circle cx="143" cy="78" r="5" fill="white"/>
</mask>
<g mask="url(#mask1_162_7472)">
</g>
<path d="M166.405 80.296H162.913L162.313 82H160.885L163.873 73.648H165.457L168.445 82H167.005L166.405 80.296ZM166.021 79.18L164.665 75.304L163.297 79.18H166.021ZM172.3 80.776L174.172 75.388H175.624L173.104 82H171.472L168.964 75.388H170.428L172.3 80.776ZM179.526 82.108C178.902 82.108 178.338 81.968 177.834 81.688C177.33 81.4 176.934 81 176.646 80.488C176.358 79.968 176.214 79.368 176.214 78.688C176.214 78.016 176.362 77.42 176.658 76.9C176.954 76.38 177.358 75.98 177.87 75.7C178.382 75.42 178.954 75.28 179.586 75.28C180.218 75.28 180.79 75.42 181.302 75.7C181.814 75.98 182.218 76.38 182.514 76.9C182.81 77.42 182.958 78.016 182.958 78.688C182.958 79.36 182.806 79.956 182.502 80.476C182.198 80.996 181.782 81.4 181.254 81.688C180.734 81.968 180.158 82.108 179.526 82.108ZM179.526 80.92C179.878 80.92 180.206 80.836 180.51 80.668C180.822 80.5 181.074 80.248 181.266 79.912C181.458 79.576 181.554 79.168 181.554 78.688C181.554 78.208 181.462 77.804 181.278 77.476C181.094 77.14 180.85 76.888 180.546 76.72C180.242 76.552 179.914 76.468 179.562 76.468C179.21 76.468 178.882 76.552 178.578 76.72C178.282 76.888 178.046 77.14 177.87 77.476C177.694 77.804 177.606 78.208 177.606 78.688C177.606 79.4 177.786 79.952 178.146 80.344C178.514 80.728 178.974 80.92 179.526 80.92ZM183.854 78.688C183.854 78.008 183.99 77.412 184.262 76.9C184.542 76.38 184.926 75.98 185.414 75.7C185.902 75.42 186.462 75.28 187.094 75.28C187.894 75.28 188.554 75.472 189.074 75.856C189.602 76.232 189.958 76.772 190.142 77.476H188.666C188.546 77.148 188.354 76.892 188.09 76.708C187.826 76.524 187.494 76.432 187.094 76.432C186.534 76.432 186.086 76.632 185.75 77.032C185.422 77.424 185.258 77.976 185.258 78.688C185.258 79.4 185.422 79.956 185.75 80.356C186.086 80.756 186.534 80.956 187.094 80.956C187.886 80.956 188.41 80.608 188.666 79.912H190.142C189.95 80.584 189.59 81.12 189.062 81.52C188.534 81.912 187.878 82.108 187.094 82.108C186.462 82.108 185.902 81.968 185.414 81.688C184.926 81.4 184.542 81 184.262 80.488C183.99 79.968 183.854 79.368 183.854 78.688ZM191.049 78.664C191.049 78 191.185 77.412 191.457 76.9C191.737 76.388 192.113 75.992 192.585 75.712C193.065 75.424 193.593 75.28 194.169 75.28C194.689 75.28 195.141 75.384 195.525 75.592C195.917 75.792 196.229 76.044 196.461 76.348V75.388H197.841V82H196.461V81.016C196.229 81.328 195.913 81.588 195.513 81.796C195.113 82.004 194.657 82.108 194.145 82.108C193.577 82.108 193.057 81.964 192.585 81.676C192.113 81.38 191.737 80.972 191.457 80.452C191.185 79.924 191.049 79.328 191.049 78.664ZM196.461 78.688C196.461 78.232 196.365 77.836 196.173 77.5C195.989 77.164 195.745 76.908 195.441 76.732C195.137 76.556 194.809 76.468 194.457 76.468C194.105 76.468 193.777 76.556 193.473 76.732C193.169 76.9 192.921 77.152 192.729 77.488C192.545 77.816 192.453 78.208 192.453 78.664C192.453 79.12 192.545 79.52 192.729 79.864C192.921 80.208 193.169 80.472 193.473 80.656C193.785 80.832 194.113 80.92 194.457 80.92C194.809 80.92 195.137 80.832 195.441 80.656C195.745 80.48 195.989 80.224 196.173 79.888C196.365 79.544 196.461 79.144 196.461 78.688ZM199.182 78.664C199.182 78 199.318 77.412 199.59 76.9C199.87 76.388 200.246 75.992 200.718 75.712C201.198 75.424 201.73 75.28 202.314 75.28C202.746 75.28 203.17 75.376 203.586 75.568C204.01 75.752 204.346 76 204.594 76.312V73.12H205.974V82H204.594V81.004C204.37 81.324 204.058 81.588 203.658 81.796C203.266 82.004 202.814 82.108 202.302 82.108C201.726 82.108 201.198 81.964 200.718 81.676C200.246 81.38 199.87 80.972 199.59 80.452C199.318 79.924 199.182 79.328 199.182 78.664ZM204.594 78.688C204.594 78.232 204.498 77.836 204.306 77.5C204.122 77.164 203.878 76.908 203.574 76.732C203.27 76.556 202.942 76.468 202.59 76.468C202.238 76.468 201.91 76.556 201.606 76.732C201.302 76.9 201.054 77.152 200.862 77.488C200.678 77.816 200.586 78.208 200.586 78.664C200.586 79.12 200.678 79.52 200.862 79.864C201.054 80.208 201.302 80.472 201.606 80.656C201.918 80.832 202.246 80.92 202.59 80.92C202.942 80.92 203.27 80.832 203.574 80.656C203.878 80.48 204.122 80.224 204.306 79.888C204.498 79.544 204.594 79.144 204.594 78.688ZM210.639 82.108C210.015 82.108 209.451 81.968 208.947 81.688C208.443 81.4 208.047 81 207.759 80.488C207.471 79.968 207.327 79.368 207.327 78.688C207.327 78.016 207.475 77.42 207.771 76.9C208.067 76.38 208.471 75.98 208.983 75.7C209.495 75.42 210.067 75.28 210.699 75.28C211.331 75.28 211.903 75.42 212.415 75.7C212.927 75.98 213.331 76.38 213.627 76.9C213.923 77.42 214.071 78.016 214.071 78.688C214.071 79.36 213.919 79.956 213.615 80.476C213.311 80.996 212.895 81.4 212.367 81.688C211.847 81.968 211.271 82.108 210.639 82.108ZM210.639 80.92C210.991 80.92 211.319 80.836 211.623 80.668C211.935 80.5 212.187 80.248 212.379 79.912C212.571 79.576 212.667 79.168 212.667 78.688C212.667 78.208 212.575 77.804 212.391 77.476C212.207 77.14 211.963 76.888 211.659 76.72C211.355 76.552 211.027 76.468 210.675 76.468C210.323 76.468 209.995 76.552 209.691 76.72C209.395 76.888 209.159 77.14 208.983 77.476C208.807 77.804 208.719 78.208 208.719 78.688C208.719 79.4 208.899 79.952 209.259 80.344C209.627 80.728 210.087 80.92 210.639 80.92Z" fill="#171721"/>
<rect x="235" y="64" width="82" height="28" rx="14" stroke="#E4E6E8" stroke-opacity="0.85" stroke-linecap="square"/>
<circle cx="250" cy="78" r="5" fill="#005E5D"/>
<mask id="mask2_162_7472" style="mask-type:luminance" maskUnits="userSpaceOnUse" x="245" y="73" width="10" height="10">
<circle cx="250" cy="78" r="5" fill="white"/>
</mask>
<g mask="url(#mask2_162_7472)">
</g>
<path d="M278.867 73.66L276.395 82H274.847L273.095 75.688L271.235 82L269.699 82.012L267.335 73.66H268.787L270.515 80.452L272.387 73.66H273.923L275.663 80.416L277.403 73.66H278.867ZM283.416 75.28C283.92 75.28 284.368 75.388 284.76 75.604C285.16 75.82 285.472 76.14 285.696 76.564C285.928 76.988 286.044 77.5 286.044 78.1V82H284.688V78.304C284.688 77.712 284.54 77.26 284.244 76.948C283.948 76.628 283.544 76.468 283.032 76.468C282.52 76.468 282.112 76.628 281.808 76.948C281.512 77.26 281.364 77.712 281.364 78.304V82H279.996V73.12H281.364V76.156C281.596 75.876 281.888 75.66 282.24 75.508C282.6 75.356 282.992 75.28 283.416 75.28ZM293.849 78.532C293.849 78.78 293.833 79.004 293.801 79.204H288.749C288.789 79.732 288.985 80.156 289.337 80.476C289.689 80.796 290.121 80.956 290.633 80.956C291.369 80.956 291.889 80.648 292.193 80.032H293.669C293.469 80.64 293.105 81.14 292.577 81.532C292.057 81.916 291.409 82.108 290.633 82.108C290.001 82.108 289.433 81.968 288.929 81.688C288.433 81.4 288.041 81 287.753 80.488C287.473 79.968 287.333 79.368 287.333 78.688C287.333 78.008 287.469 77.412 287.741 76.9C288.021 76.38 288.409 75.98 288.905 75.7C289.409 75.42 289.985 75.28 290.633 75.28C291.257 75.28 291.813 75.416 292.301 75.688C292.789 75.96 293.169 76.344 293.441 76.84C293.713 77.328 293.849 77.892 293.849 78.532ZM292.421 78.1C292.413 77.596 292.233 77.192 291.881 76.888C291.529 76.584 291.093 76.432 290.573 76.432C290.101 76.432 289.697 76.584 289.361 76.888C289.025 77.184 288.825 77.588 288.761 78.1H292.421ZM294.739 78.664C294.739 78 294.875 77.412 295.147 76.9C295.427 76.388 295.803 75.992 296.275 75.712C296.755 75.424 297.283 75.28 297.859 75.28C298.379 75.28 298.831 75.384 299.215 75.592C299.607 75.792 299.919 76.044 300.151 76.348V75.388H301.531V82H300.151V81.016C299.919 81.328 299.603 81.588 299.203 81.796C298.803 82.004 298.347 82.108 297.835 82.108C297.267 82.108 296.747 81.964 296.275 81.676C295.803 81.38 295.427 80.972 295.147 80.452C294.875 79.924 294.739 79.328 294.739 78.664ZM300.151 78.688C300.151 78.232 300.055 77.836 299.863 77.5C299.679 77.164 299.435 76.908 299.131 76.732C298.827 76.556 298.499 76.468 298.147 76.468C297.795 76.468 297.467 76.556 297.163 76.732C296.859 76.9 296.611 77.152 296.419 77.488C296.235 77.816 296.143 78.208 296.143 78.664C296.143 79.12 296.235 79.52 296.419 79.864C296.611 80.208 296.859 80.472 297.163 80.656C297.475 80.832 297.803 80.92 298.147 80.92C298.499 80.92 298.827 80.832 299.131 80.656C299.435 80.48 299.679 80.224 299.863 79.888C300.055 79.544 300.151 79.144 300.151 78.688ZM304.924 76.504V80.164C304.924 80.412 304.98 80.592 305.092 80.704C305.212 80.808 305.412 80.86 305.692 80.86H306.532V82H305.452C304.836 82 304.364 81.856 304.036 81.568C303.708 81.28 303.544 80.812 303.544 80.164V76.504H302.764V75.388H303.544V73.744H304.924V75.388H306.532V76.504H304.924Z" fill="#171721"/>
<rect x="72" y="102" width="101" height="28" rx="14" stroke="#E4E6E8" stroke-opacity="0.85" stroke-linecap="square"/>
<circle cx="87" cy="116" r="5" fill="#005E5D"/>
<mask id="mask3_162_7472" style="mask-type:luminance" maskUnits="userSpaceOnUse" x="82" y="111" width="10" height="10">
<circle cx="87" cy="116" r="5" fill="white"/>
</mask>
<g mask="url(#mask3_162_7472)">
</g>
<path d="M114.016 111.66V120H112.648V114.288L110.104 120H109.156L106.6 114.288V120H105.232V111.66H106.708L109.636 118.2L112.552 111.66H114.016ZM115.358 116.664C115.358 116 115.494 115.412 115.766 114.9C116.046 114.388 116.422 113.992 116.894 113.712C117.374 113.424 117.902 113.28 118.478 113.28C118.998 113.28 119.45 113.384 119.834 113.592C120.226 113.792 120.538 114.044 120.77 114.348V113.388H122.15V120H120.77V119.016C120.538 119.328 120.222 119.588 119.822 119.796C119.422 120.004 118.966 120.108 118.454 120.108C117.886 120.108 117.366 119.964 116.894 119.676C116.422 119.38 116.046 118.972 115.766 118.452C115.494 117.924 115.358 117.328 115.358 116.664ZM120.77 116.688C120.77 116.232 120.674 115.836 120.482 115.5C120.298 115.164 120.054 114.908 119.75 114.732C119.446 114.556 119.118 114.468 118.766 114.468C118.414 114.468 118.086 114.556 117.782 114.732C117.478 114.9 117.23 115.152 117.038 115.488C116.854 115.816 116.762 116.208 116.762 116.664C116.762 117.12 116.854 117.52 117.038 117.864C117.23 118.208 117.478 118.472 117.782 118.656C118.094 118.832 118.422 118.92 118.766 118.92C119.118 118.92 119.446 118.832 119.75 118.656C120.054 118.48 120.298 118.224 120.482 117.888C120.674 117.544 120.77 117.144 120.77 116.688ZM127.283 113.28C127.803 113.28 128.267 113.388 128.675 113.604C129.091 113.82 129.415 114.14 129.647 114.564C129.879 114.988 129.995 115.5 129.995 116.1V120H128.639V116.304C128.639 115.712 128.491 115.26 128.195 114.948C127.899 114.628 127.495 114.468 126.983 114.468C126.471 114.468 126.063 114.628 125.759 114.948C125.463 115.26 125.315 115.712 125.315 116.304V120H123.947V113.388H125.315V114.144C125.539 113.872 125.823 113.66 126.167 113.508C126.519 113.356 126.891 113.28 127.283 113.28ZM131.284 116.664C131.284 116 131.42 115.412 131.692 114.9C131.972 114.388 132.348 113.992 132.82 113.712C133.3 113.424 133.832 113.28 134.416 113.28C134.848 113.28 135.272 113.376 135.688 113.568C136.112 113.752 136.448 114 136.696 114.312V111.12H138.076V120H136.696V119.004C136.472 119.324 136.16 119.588 135.76 119.796C135.368 120.004 134.916 120.108 134.404 120.108C133.828 120.108 133.3 119.964 132.82 119.676C132.348 119.38 131.972 118.972 131.692 118.452C131.42 117.924 131.284 117.328 131.284 116.664ZM136.696 116.688C136.696 116.232 136.6 115.836 136.408 115.5C136.224 115.164 135.98 114.908 135.676 114.732C135.372 114.556 135.044 114.468 134.692 114.468C134.34 114.468 134.012 114.556 133.708 114.732C133.404 114.9 133.156 115.152 132.964 115.488C132.78 115.816 132.688 116.208 132.688 116.664C132.688 117.12 132.78 117.52 132.964 117.864C133.156 118.208 133.404 118.472 133.708 118.656C134.02 118.832 134.348 118.92 134.692 118.92C135.044 118.92 135.372 118.832 135.676 118.656C135.98 118.48 136.224 118.224 136.408 117.888C136.6 117.544 136.696 117.144 136.696 116.688ZM139.417 116.664C139.417 116 139.553 115.412 139.825 114.9C140.105 114.388 140.481 113.992 140.953 113.712C141.433 113.424 141.961 113.28 142.537 113.28C143.057 113.28 143.509 113.384 143.893 113.592C144.285 113.792 144.597 114.044 144.829 114.348V113.388H146.209V120H144.829V119.016C144.597 119.328 144.281 119.588 143.881 119.796C143.481 120.004 143.025 120.108 142.513 120.108C141.945 120.108 141.425 119.964 140.953 119.676C140.481 119.38 140.105 118.972 139.825 118.452C139.553 117.924 139.417 117.328 139.417 116.664ZM144.829 116.688C144.829 116.232 144.733 115.836 144.541 115.5C144.357 115.164 144.113 114.908 143.809 114.732C143.505 114.556 143.177 114.468 142.825 114.468C142.473 114.468 142.145 114.556 141.841 114.732C141.537 114.9 141.289 115.152 141.097 115.488C140.913 115.816 140.821 116.208 140.821 116.664C140.821 117.12 140.913 117.52 141.097 117.864C141.289 118.208 141.537 118.472 141.841 118.656C142.153 118.832 142.481 118.92 142.825 118.92C143.177 118.92 143.505 118.832 143.809 118.656C144.113 118.48 144.357 118.224 144.541 117.888C144.733 117.544 144.829 117.144 144.829 116.688ZM149.373 114.348C149.573 114.012 149.837 113.752 150.165 113.568C150.501 113.376 150.897 113.28 151.353 113.28V114.696H151.005C150.469 114.696 150.061 114.832 149.781 115.104C149.509 115.376 149.373 115.848 149.373 116.52V120H148.005V113.388H149.373V114.348ZM153.307 112.512C153.059 112.512 152.851 112.428 152.683 112.26C152.515 112.092 152.431 111.884 152.431 111.636C152.431 111.388 152.515 111.18 152.683 111.012C152.851 110.844 153.059 110.76 153.307 110.76C153.547 110.76 153.751 110.844 153.919 111.012C154.087 111.18 154.171 111.388 154.171 111.636C154.171 111.884 154.087 112.092 153.919 112.26C153.751 112.428 153.547 112.512 153.307 112.512ZM153.979 113.388V120H152.611V113.388H153.979ZM159.111 113.28C159.631 113.28 160.095 113.388 160.503 113.604C160.919 113.82 161.243 114.14 161.475 114.564C161.707 114.988 161.823 115.5 161.823 116.1V120H160.467V116.304C160.467 115.712 160.319 115.26 160.023 114.948C159.727 114.628 159.323 114.468 158.811 114.468C158.299 114.468 157.891 114.628 157.587 114.948C157.291 115.26 157.143 115.712 157.143 116.304V120H155.775V113.388H157.143V114.144C157.367 113.872 157.651 113.66 157.995 113.508C158.347 113.356 158.719 113.28 159.111 113.28Z" fill="#171721"/>
<rect x="183" y="102" width="80" height="28" rx="14" stroke="#E4E6E8" stroke-opacity="0.85" stroke-linecap="square"/>
<circle cx="198" cy="116" r="5" fill="#669E9E"/>
<mask id="mask4_162_7472" style="mask-type:luminance" maskUnits="userSpaceOnUse" x="193" y="111" width="10" height="10">
<circle cx="198" cy="116" r="5" fill="white"/>
<circle cx="198" cy="116" r="5" stroke="white"/>
</mask>
<g mask="url(#mask4_162_7472)">
</g>
<path d="M222.157 114.06C221.941 113.644 221.641 113.332 221.257 113.124C220.873 112.908 220.429 112.8 219.925 112.8C219.373 112.8 218.881 112.924 218.449 113.172C218.017 113.42 217.677 113.772 217.429 114.228C217.189 114.684 217.069 115.212 217.069 115.812C217.069 116.412 217.189 116.944 217.429 117.408C217.677 117.864 218.017 118.216 218.449 118.464C218.881 118.712 219.373 118.836 219.925 118.836C220.669 118.836 221.273 118.628 221.737 118.212C222.201 117.796 222.485 117.232 222.589 116.52H219.457V115.428H224.053V116.496C223.965 117.144 223.733 117.74 223.357 118.284C222.989 118.828 222.505 119.264 221.905 119.592C221.313 119.912 220.653 120.072 219.925 120.072C219.141 120.072 218.425 119.892 217.777 119.532C217.129 119.164 216.613 118.656 216.229 118.008C215.853 117.36 215.665 116.628 215.665 115.812C215.665 114.996 215.853 114.264 216.229 113.616C216.613 112.968 217.129 112.464 217.777 112.104C218.433 111.736 219.149 111.552 219.925 111.552C220.813 111.552 221.601 111.772 222.289 112.212C222.985 112.644 223.489 113.26 223.801 114.06H222.157ZM226.77 114.348C226.97 114.012 227.234 113.752 227.562 113.568C227.898 113.376 228.294 113.28 228.75 113.28V114.696H228.402C227.866 114.696 227.458 114.832 227.178 115.104C226.906 115.376 226.77 115.848 226.77 116.52V120H225.402V113.388H226.77V114.348ZM229.551 116.664C229.551 116 229.687 115.412 229.959 114.9C230.239 114.388 230.615 113.992 231.087 113.712C231.567 113.424 232.095 113.28 232.671 113.28C233.191 113.28 233.643 113.384 234.027 113.592C234.419 113.792 234.731 114.044 234.963 114.348V113.388H236.343V120H234.963V119.016C234.731 119.328 234.415 119.588 234.015 119.796C233.615 120.004 233.159 120.108 232.647 120.108C232.079 120.108 231.559 119.964 231.087 119.676C230.615 119.38 230.239 118.972 229.959 118.452C229.687 117.924 229.551 117.328 229.551 116.664ZM234.963 116.688C234.963 116.232 234.867 115.836 234.675 115.5C234.491 115.164 234.247 114.908 233.943 114.732C233.639 114.556 233.311 114.468 232.959 114.468C232.607 114.468 232.279 114.556 231.975 114.732C231.671 114.9 231.423 115.152 231.231 115.488C231.047 115.816 230.955 116.208 230.955 116.664C230.955 117.12 231.047 117.52 231.231 117.864C231.423 118.208 231.671 118.472 231.975 118.656C232.287 118.832 232.615 118.92 232.959 118.92C233.311 118.92 233.639 118.832 233.943 118.656C234.247 118.48 234.491 118.224 234.675 117.888C234.867 117.544 234.963 117.144 234.963 116.688ZM239.508 114.36C239.74 114.056 240.056 113.8 240.456 113.592C240.856 113.384 241.308 113.28 241.812 113.28C242.388 113.28 242.912 113.424 243.384 113.712C243.864 113.992 244.24 114.388 244.512 114.9C244.784 115.412 244.92 116 244.92 116.664C244.92 117.328 244.784 117.924 244.512 118.452C244.24 118.972 243.864 119.38 243.384 119.676C242.912 119.964 242.388 120.108 241.812 120.108C241.308 120.108 240.86 120.008 240.468 119.808C240.076 119.6 239.756 119.344 239.508 119.04V123.144H238.14V113.388H239.508V114.36ZM243.528 116.664C243.528 116.208 243.432 115.816 243.24 115.488C243.056 115.152 242.808 114.9 242.496 114.732C242.192 114.556 241.864 114.468 241.512 114.468C241.168 114.468 240.84 114.556 240.528 114.732C240.224 114.908 239.976 115.164 239.784 115.5C239.6 115.836 239.508 116.232 239.508 116.688C239.508 117.144 239.6 117.544 239.784 117.888C239.976 118.224 240.224 118.48 240.528 118.656C240.84 118.832 241.168 118.92 241.512 118.92C241.864 118.92 242.192 118.832 242.496 118.656C242.808 118.472 243.056 118.208 243.24 117.864C243.432 117.52 243.528 117.12 243.528 116.664ZM252.333 116.532C252.333 116.78 252.317 117.004 252.285 117.204H247.233C247.273 117.732 247.469 118.156 247.821 118.476C248.173 118.796 248.605 118.956 249.117 118.956C249.853 118.956 250.373 118.648 250.677 118.032H252.153C251.953 118.64 251.589 119.14 251.061 119.532C250.541 119.916 249.893 120.108 249.117 120.108C248.485 120.108 247.917 119.968 247.413 119.688C246.917 119.4 246.525 119 246.237 118.488C245.957 117.968 245.817 117.368 245.817 116.688C245.817 116.008 245.953 115.412 246.225 114.9C246.505 114.38 246.893 113.98 247.389 113.7C247.893 113.42 248.469 113.28 249.117 113.28C249.741 113.28 250.297 113.416 250.785 113.688C251.273 113.96 251.653 114.344 251.925 114.84C252.197 115.328 252.333 115.892 252.333 116.532ZM250.905 116.1C250.897 115.596 250.717 115.192 250.365 114.888C250.013 114.584 249.577 114.432 249.057 114.432C248.585 114.432 248.181 114.584 247.845 114.888C247.509 115.184 247.309 115.588 247.245 116.1H250.905Z" fill="#171721"/>
<g clip-path="url(#clip0_162_7472)">
<circle cx="165.251" cy="250.37" r="100.37" fill="#99BFBE"/>
<mask id="mask5_162_7472" style="mask-type:luminance" maskUnits="userSpaceOnUse" x="64" y="150" width="202" height="201">
<circle cx="165.251" cy="250.37" r="100.37" fill="white"/>
</mask>
<g mask="url(#mask5_162_7472)">
</g>
<path fill-rule="evenodd" clip-rule="evenodd" d="M189.737 212.759L162.51 249.133L56.1016 225.301C49.7727 252.968 54.1929 283.006 70.8259 308.619C78.9085 321.065 89.1188 331.302 100.676 339.165L168.8 248.703C168.8 248.703 177.601 232.232 189.737 212.759Z" fill="#CFB500"/>
<path fill-rule="evenodd" clip-rule="evenodd" d="M104.436 331.611C137.305 356.42 183.71 359.285 220.509 335.388C267.405 304.933 280.94 242.545 250.74 196.039C244.029 185.705 235.723 177.025 226.347 170.108L165.791 251.296L104.436 331.611Z" fill="#337E7D"/>
<path fill-rule="evenodd" clip-rule="evenodd" d="M141.865 349.11C149.58 350.999 157.642 352 165.939 352C221.687 352 266.881 306.781 266.881 251C266.881 195.219 221.687 150 165.939 150C165.561 150 165.185 150.002 164.808 150.006L166.379 251L141.865 349.11Z" fill="#669E9E"/>
<path fill-rule="evenodd" clip-rule="evenodd" d="M236.773 322.957C255.358 304.638 266.881 279.166 266.881 251C266.881 195.219 221.687 150 165.939 150C165.558 150 165.179 150.002 164.799 150.006L165.251 185.77L185.833 192.003L190.81 274.659L236.773 322.957Z" fill="#005E5D"/>
<circle cx="165.881" cy="251" r="70" fill="white"/>
<path d="M125.813 261.324H126.941V266.808H128.381V267.786H126.941V270H125.855V267.786H121.769V266.772L125.813 261.324ZM122.831 266.808H125.831V262.782L122.831 266.808ZM129.502 270V269.322V268.968C129.502 268.524 129.584 268.14 129.748 267.816C129.916 267.492 130.136 267.21 130.408 266.97C130.684 266.726 130.984 266.508 131.308 266.316C131.636 266.124 131.962 265.94 132.286 265.764C132.614 265.584 132.914 265.398 133.186 265.206C133.458 265.01 133.676 264.79 133.84 264.546C134.008 264.298 134.092 264.006 134.092 263.67C134.092 263.23 133.936 262.872 133.624 262.596C133.316 262.32 132.898 262.182 132.37 262.182C131.802 262.182 131.346 262.342 131.002 262.662C130.658 262.982 130.464 263.408 130.42 263.94H129.316C129.328 263.44 129.452 262.984 129.688 262.572C129.924 262.156 130.27 261.824 130.726 261.576C131.182 261.328 131.744 261.204 132.412 261.204C132.992 261.204 133.496 261.308 133.924 261.516C134.352 261.72 134.682 262.008 134.914 262.38C135.15 262.748 135.268 263.178 135.268 263.67C135.268 264.118 135.186 264.502 135.022 264.822C134.858 265.142 134.64 265.42 134.368 265.656C134.1 265.888 133.806 266.096 133.486 266.28C133.166 266.464 132.844 266.642 132.52 266.814C132.196 266.982 131.9 267.16 131.632 267.348C131.364 267.532 131.148 267.744 130.984 267.984C130.82 268.224 130.738 268.51 130.738 268.842V269.016H135.316V270H129.502ZM139.818 261.324C139.846 261.324 139.93 261.326 140.07 261.33C140.214 261.33 140.388 261.33 140.592 261.33C140.796 261.326 141.008 261.326 141.228 261.33C141.448 261.33 141.65 261.332 141.834 261.336C142.898 261.352 143.76 261.526 144.42 261.858C145.084 262.186 145.57 262.664 145.878 263.292C146.19 263.92 146.346 264.692 146.346 265.608C146.346 266.568 146.178 267.374 145.842 268.026C145.51 268.678 145.002 269.17 144.318 269.502C143.638 269.834 142.772 270 141.72 270H139.818V261.324ZM140.958 262.278V269.046H141.72C142.436 269.046 143.052 268.936 143.568 268.716C144.084 268.492 144.48 268.13 144.756 267.63C145.036 267.13 145.176 266.462 145.176 265.626C145.176 264.79 145.04 264.128 144.768 263.64C144.5 263.152 144.112 262.804 143.604 262.596C143.096 262.384 142.484 262.278 141.768 262.278H140.958ZM148.702 267.156C148.702 267.548 148.766 267.904 148.894 268.224C149.026 268.54 149.224 268.792 149.488 268.98C149.756 269.168 150.09 269.262 150.49 269.262C150.886 269.262 151.226 269.17 151.51 268.986C151.798 268.802 151.982 268.536 152.062 268.188H153.112C153.036 268.608 152.868 268.962 152.608 269.25C152.348 269.538 152.034 269.756 151.666 269.904C151.298 270.048 150.914 270.12 150.514 270.12C149.934 270.12 149.424 269.994 148.984 269.742C148.544 269.49 148.2 269.128 147.952 268.656C147.704 268.184 147.58 267.618 147.58 266.958C147.58 266.306 147.692 265.734 147.916 265.242C148.14 264.75 148.464 264.366 148.888 264.09C149.316 263.814 149.83 263.676 150.43 263.676C151.014 263.676 151.508 263.802 151.912 264.054C152.316 264.306 152.622 264.662 152.83 265.122C153.042 265.578 153.148 266.12 153.148 266.748V267.156H148.702ZM148.708 266.406H152.08C152.08 266.05 152.02 265.73 151.9 265.446C151.78 265.158 151.596 264.932 151.348 264.768C151.104 264.6 150.796 264.516 150.424 264.516C150.036 264.516 149.714 264.61 149.458 264.798C149.206 264.982 149.016 265.22 148.888 265.512C148.764 265.8 148.704 266.098 148.708 266.406ZM156.238 270.078C155.902 270.078 155.63 270.032 155.422 269.94C155.218 269.848 155.06 269.724 154.948 269.568C154.84 269.412 154.766 269.234 154.726 269.034C154.69 268.83 154.672 268.62 154.672 268.404V261.084H155.764V268.296C155.764 268.608 155.824 268.842 155.944 268.998C156.068 269.154 156.24 269.24 156.46 269.256L156.796 269.262V269.982C156.704 270.01 156.608 270.032 156.508 270.048C156.408 270.068 156.318 270.078 156.238 270.078ZM159.423 263.796V270H158.349V263.796H159.423ZM159.447 261.33V262.482H158.313V261.33H159.447ZM166.223 263.796L163.985 270H162.977L160.733 263.796H161.777L163.427 268.608H163.529L165.185 263.796H166.223ZM167.98 267.156C167.98 267.548 168.044 267.904 168.172 268.224C168.304 268.54 168.502 268.792 168.766 268.98C169.034 269.168 169.368 269.262 169.768 269.262C170.164 269.262 170.504 269.17 170.788 268.986C171.076 268.802 171.26 268.536 171.34 268.188H172.39C172.314 268.608 172.146 268.962 171.886 269.25C171.626 269.538 171.312 269.756 170.944 269.904C170.576 270.048 170.192 270.12 169.792 270.12C169.212 270.12 168.702 269.994 168.262 269.742C167.822 269.49 167.478 269.128 167.23 268.656C166.982 268.184 166.858 267.618 166.858 266.958C166.858 266.306 166.97 265.734 167.194 265.242C167.418 264.75 167.742 264.366 168.166 264.09C168.594 263.814 169.108 263.676 169.708 263.676C170.292 263.676 170.786 263.802 171.19 264.054C171.594 264.306 171.9 264.662 172.108 265.122C172.32 265.578 172.426 266.12 172.426 266.748V267.156H167.98ZM167.986 266.406H171.358C171.358 266.05 171.298 265.73 171.178 265.446C171.058 265.158 170.874 264.932 170.626 264.768C170.382 264.6 170.074 264.516 169.702 264.516C169.314 264.516 168.992 264.61 168.736 264.798C168.484 264.982 168.294 265.22 168.166 265.512C168.042 265.8 167.982 266.098 167.986 266.406ZM173.949 270V263.796H175.005V264.99C175.109 264.694 175.255 264.45 175.443 264.258C175.631 264.062 175.845 263.916 176.085 263.82C176.329 263.724 176.581 263.676 176.841 263.676C176.933 263.676 177.023 263.682 177.111 263.694C177.199 263.706 177.267 263.726 177.315 263.754V264.828C177.255 264.8 177.177 264.782 177.081 264.774C176.989 264.762 176.911 264.756 176.847 264.756C176.599 264.74 176.367 264.756 176.151 264.804C175.935 264.848 175.745 264.926 175.581 265.038C175.417 265.15 175.287 265.298 175.191 265.482C175.099 265.662 175.053 265.882 175.053 266.142V270H173.949ZM180.165 270.12C179.765 270.12 179.411 270.05 179.103 269.91C178.795 269.766 178.553 269.56 178.377 269.292C178.205 269.024 178.119 268.7 178.119 268.32C178.119 267.632 178.359 267.12 178.839 266.784C179.319 266.448 180.089 266.268 181.149 266.244L182.259 266.214V265.728C182.259 265.348 182.145 265.048 181.917 264.828C181.689 264.604 181.335 264.492 180.855 264.492C180.499 264.496 180.185 264.58 179.913 264.744C179.645 264.908 179.471 265.176 179.391 265.548H178.413C178.437 265.144 178.551 264.804 178.755 264.528C178.959 264.248 179.243 264.036 179.607 263.892C179.975 263.748 180.409 263.676 180.909 263.676C181.449 263.676 181.897 263.752 182.253 263.904C182.613 264.056 182.881 264.28 183.057 264.576C183.237 264.872 183.327 265.236 183.327 265.668V270H182.379L182.301 268.836C182.061 269.32 181.755 269.656 181.383 269.844C181.015 270.028 180.609 270.12 180.165 270.12ZM180.501 269.322C180.709 269.322 180.915 269.284 181.119 269.208C181.327 269.132 181.517 269.03 181.689 268.902C181.861 268.77 181.997 268.624 182.097 268.464C182.201 268.3 182.255 268.132 182.259 267.96V266.898L181.335 266.916C180.863 266.924 180.467 266.972 180.147 267.06C179.831 267.148 179.593 267.286 179.433 267.474C179.277 267.662 179.199 267.908 179.199 268.212C179.199 268.56 179.319 268.832 179.559 269.028C179.803 269.224 180.117 269.322 180.501 269.322ZM188.289 270.12C187.925 270.12 187.617 270.072 187.365 269.976C187.117 269.88 186.913 269.758 186.753 269.61C186.593 269.458 186.469 269.304 186.381 269.148C186.293 268.988 186.229 268.848 186.189 268.728L186.069 270H185.223V261.084H186.339V264.78C186.391 264.676 186.469 264.562 186.573 264.438C186.681 264.314 186.819 264.194 186.987 264.078C187.155 263.962 187.353 263.866 187.581 263.79C187.813 263.714 188.077 263.676 188.373 263.676C189.149 263.676 189.765 263.946 190.221 264.486C190.681 265.026 190.911 265.822 190.911 266.874C190.911 267.526 190.813 268.096 190.617 268.584C190.421 269.068 190.129 269.446 189.741 269.718C189.353 269.986 188.869 270.12 188.289 270.12ZM188.091 269.268C188.595 269.268 189.005 269.074 189.321 268.686C189.637 268.294 189.795 267.672 189.795 266.82C189.795 266.096 189.647 265.536 189.351 265.14C189.059 264.74 188.631 264.54 188.067 264.54C187.655 264.54 187.323 264.63 187.071 264.81C186.823 264.986 186.639 265.244 186.519 265.584C186.403 265.924 186.343 266.336 186.339 266.82C186.339 267.688 186.473 268.314 186.741 268.698C187.013 269.078 187.463 269.268 188.091 269.268ZM193.925 270.078C193.589 270.078 193.317 270.032 193.109 269.94C192.905 269.848 192.747 269.724 192.635 269.568C192.527 269.412 192.453 269.234 192.413 269.034C192.377 268.83 192.359 268.62 192.359 268.404V261.084H193.451V268.296C193.451 268.608 193.511 268.842 193.631 268.998C193.755 269.154 193.927 269.24 194.147 269.256L194.483 269.262V269.982C194.391 270.01 194.295 270.032 194.195 270.048C194.095 270.068 194.005 270.078 193.925 270.078ZM196.632 267.156C196.632 267.548 196.696 267.904 196.824 268.224C196.956 268.54 197.154 268.792 197.418 268.98C197.686 269.168 198.02 269.262 198.42 269.262C198.816 269.262 199.156 269.17 199.44 268.986C199.728 268.802 199.912 268.536 199.992 268.188H201.042C200.966 268.608 200.798 268.962 200.538 269.25C200.278 269.538 199.964 269.756 199.596 269.904C199.228 270.048 198.844 270.12 198.444 270.12C197.864 270.12 197.354 269.994 196.914 269.742C196.474 269.49 196.13 269.128 195.882 268.656C195.634 268.184 195.51 267.618 195.51 266.958C195.51 266.306 195.622 265.734 195.846 265.242C196.07 264.75 196.394 264.366 196.818 264.09C197.246 263.814 197.76 263.676 198.36 263.676C198.944 263.676 199.438 263.802 199.842 264.054C200.246 264.306 200.552 264.662 200.76 265.122C200.972 265.578 201.078 266.12 201.078 266.748V267.156H196.632ZM196.638 266.406H200.01C200.01 266.05 199.95 265.73 199.83 265.446C199.71 265.158 199.526 264.932 199.278 264.768C199.034 264.6 198.726 264.516 198.354 264.516C197.966 264.516 197.644 264.61 197.388 264.798C197.136 264.982 196.946 265.22 196.818 265.512C196.694 265.8 196.634 266.098 196.638 266.406ZM204.768 270.12C204.336 270.12 203.934 270.054 203.562 269.922C203.194 269.786 202.888 269.576 202.644 269.292C202.4 269.004 202.246 268.638 202.182 268.194H203.19C203.246 268.438 203.346 268.642 203.49 268.806C203.638 268.966 203.822 269.088 204.042 269.172C204.262 269.252 204.502 269.292 204.762 269.292C205.178 269.292 205.514 269.214 205.77 269.058C206.026 268.902 206.154 268.662 206.154 268.338C206.154 268.11 206.086 267.928 205.95 267.792C205.818 267.652 205.612 267.55 205.332 267.486L204.048 267.168C203.548 267.048 203.148 266.86 202.848 266.604C202.548 266.348 202.398 265.99 202.398 265.53C202.394 265.166 202.48 264.846 202.656 264.57C202.832 264.294 203.096 264.076 203.448 263.916C203.8 263.756 204.238 263.676 204.762 263.676C205.434 263.676 205.976 263.828 206.388 264.132C206.804 264.432 207.02 264.874 207.036 265.458H206.058C206.018 265.162 205.884 264.928 205.656 264.756C205.432 264.58 205.13 264.492 204.75 264.492C204.354 264.492 204.032 264.572 203.784 264.732C203.536 264.888 203.412 265.132 203.412 265.464C203.412 265.684 203.5 265.858 203.676 265.986C203.852 266.11 204.112 266.214 204.456 266.298L205.698 266.61C205.986 266.686 206.222 266.786 206.406 266.91C206.594 267.034 206.742 267.172 206.85 267.324C206.962 267.476 207.04 267.636 207.084 267.804C207.132 267.968 207.156 268.126 207.156 268.278C207.156 268.658 207.06 268.986 206.868 269.262C206.68 269.534 206.408 269.746 206.052 269.898C205.7 270.046 205.272 270.12 204.768 270.12Z" fill="#6F818C"/>
<path d="M134.853 250.28C132.426 250.28 130.457 249.795 128.945 248.824C127.433 247.844 126.565 246.337 126.341 244.302L130.597 244.218C130.821 245.142 131.302 245.847 132.039 246.332C132.786 246.808 133.719 247.046 134.839 247.046C135.511 247.046 136.104 246.939 136.617 246.724C137.14 246.5 137.55 246.201 137.849 245.828C138.148 245.445 138.297 245.011 138.297 244.526C138.297 243.779 138.059 243.224 137.583 242.86C137.107 242.487 136.374 242.188 135.385 241.964L132.067 241.25C130.527 240.942 129.29 240.331 128.357 239.416C127.433 238.492 126.962 237.255 126.943 235.706C126.934 234.437 127.274 233.34 127.965 232.416C128.665 231.483 129.612 230.764 130.807 230.26C132.011 229.756 133.36 229.504 134.853 229.504C136.384 229.504 137.704 229.779 138.815 230.33C139.935 230.871 140.794 231.604 141.391 232.528C141.998 233.443 142.292 234.455 142.273 235.566L138.143 235.636C138.012 234.74 137.714 234.035 137.247 233.522C136.78 233.009 136.006 232.752 134.923 232.752C134.363 232.752 133.864 232.813 133.425 232.934C132.986 233.055 132.608 233.228 132.291 233.452C131.974 233.667 131.731 233.923 131.563 234.222C131.404 234.521 131.325 234.857 131.325 235.23C131.325 235.818 131.521 236.285 131.913 236.63C132.314 236.966 133.066 237.279 134.167 237.568L137.429 238.366C139.268 238.805 140.593 239.556 141.405 240.62C142.226 241.684 142.637 242.977 142.637 244.498C142.637 245.665 142.315 246.682 141.671 247.55C141.036 248.418 140.136 249.09 138.969 249.566C137.802 250.042 136.43 250.28 134.853 250.28ZM133.103 226.858H136.645V230.498H133.103V226.858ZM133.033 249.034H136.561V252.674H133.033V249.034ZM147.36 229.756H160.366L160.212 233.102H150.594L150.202 237.988C150.948 237.568 151.658 237.265 152.33 237.078C153.011 236.891 153.758 236.798 154.57 236.798C155.923 236.798 157.132 237.055 158.196 237.568C159.269 238.072 160.118 238.814 160.744 239.794C161.369 240.774 161.682 241.969 161.682 243.378C161.682 244.806 161.36 246.038 160.716 247.074C160.072 248.11 159.157 248.908 157.972 249.468C156.796 250.028 155.4 250.308 153.786 250.308C152.46 250.308 151.228 250.103 150.09 249.692C148.951 249.281 147.966 248.721 147.136 248.012C146.305 247.293 145.675 246.472 145.246 245.548L148.438 243.658C148.802 244.293 149.212 244.867 149.67 245.38C150.127 245.884 150.654 246.285 151.252 246.584C151.858 246.873 152.563 247.018 153.366 247.018C154.579 247.018 155.554 246.696 156.292 246.052C157.029 245.408 157.398 244.568 157.398 243.532C157.398 242.879 157.23 242.295 156.894 241.782C156.567 241.259 156.114 240.849 155.536 240.55C154.957 240.251 154.28 240.102 153.506 240.102C153.095 240.102 152.703 240.139 152.33 240.214C151.966 240.279 151.592 240.41 151.21 240.606C150.836 240.793 150.421 241.063 149.964 241.418C149.833 241.474 149.74 241.502 149.684 241.502C149.637 241.502 149.544 241.469 149.404 241.404L146.436 240.032L147.36 229.756ZM164.294 250V245.548H168.774V250H164.294ZM172.584 250V247.984V246.948C172.584 245.921 172.775 245.035 173.158 244.288C173.541 243.532 174.045 242.879 174.67 242.328C175.305 241.768 175.995 241.278 176.742 240.858C177.498 240.438 178.254 240.041 179.01 239.668C179.766 239.295 180.457 238.921 181.082 238.548C181.717 238.165 182.225 237.741 182.608 237.274C182.991 236.807 183.182 236.257 183.182 235.622C183.182 234.81 182.897 234.147 182.328 233.634C181.768 233.121 180.998 232.864 180.018 232.864C179.001 232.864 178.137 233.158 177.428 233.746C176.719 234.334 176.28 235.221 176.112 236.406H172.206C172.225 235.118 172.523 233.951 173.102 232.906C173.69 231.851 174.567 231.016 175.734 230.4C176.901 229.784 178.366 229.476 180.13 229.476C181.642 229.476 182.944 229.733 184.036 230.246C185.137 230.759 185.987 231.473 186.584 232.388C187.181 233.303 187.48 234.371 187.48 235.594C187.48 236.611 187.293 237.489 186.92 238.226C186.547 238.963 186.052 239.593 185.436 240.116C184.82 240.639 184.143 241.096 183.406 241.488C182.669 241.88 181.931 242.244 181.194 242.58C180.466 242.916 179.794 243.261 179.178 243.616C178.562 243.961 178.067 244.353 177.694 244.792C177.321 245.231 177.134 245.758 177.134 246.374V246.556H187.452V250H172.584ZM204.511 250H200.437L196.531 243.756L194.613 245.8V250H190.525V229.196H194.613V241.53L199.933 235.524H204.329L199.065 241.292L204.511 250Z" fill="#171721"/>
<path d="M71.4058 284V277.502H69.8578V276.512C70.3538 276.512 70.7538 276.466 71.0578 276.374C71.3658 276.278 71.5958 276.142 71.7478 275.966C71.8998 275.786 71.9898 275.572 72.0178 275.324H73.1818V284H71.4058ZM78.1886 284.132C77.6486 284.132 77.1446 284.028 76.6766 283.82C76.2086 283.612 75.8266 283.32 75.5306 282.944C75.2346 282.564 75.0686 282.12 75.0326 281.612H76.7006C76.7726 281.948 76.9326 282.222 77.1806 282.434C77.4286 282.642 77.7406 282.746 78.1166 282.746C78.5326 282.746 78.8966 282.648 79.2086 282.452C79.5246 282.256 79.7606 281.944 79.9166 281.516C80.0766 281.088 80.1326 280.528 80.0846 279.836C79.9726 280.048 79.8166 280.234 79.6166 280.394C79.4206 280.55 79.1906 280.672 78.9266 280.76C78.6626 280.844 78.3686 280.886 78.0446 280.886C77.4566 280.886 76.9346 280.776 76.4786 280.556C76.0266 280.332 75.6706 280.016 75.4106 279.608C75.1546 279.196 75.0266 278.708 75.0266 278.144C75.0266 277.576 75.1626 277.07 75.4346 276.626C75.7066 276.182 76.0866 275.834 76.5746 275.582C77.0626 275.33 77.6346 275.204 78.2906 275.204C79.0266 275.204 79.6606 275.38 80.1926 275.732C80.7286 276.08 81.1386 276.576 81.4226 277.22C81.7106 277.86 81.8546 278.614 81.8546 279.482C81.8546 280.518 81.7066 281.382 81.4106 282.074C81.1186 282.762 80.6986 283.278 80.1506 283.622C79.6026 283.962 78.9486 284.132 78.1886 284.132ZM78.3446 279.494C78.5886 279.494 78.8246 279.44 79.0526 279.332C79.2846 279.22 79.4746 279.08 79.6226 278.912C79.7706 278.744 79.8446 278.57 79.8446 278.39C79.8486 278.002 79.7866 277.67 79.6586 277.394C79.5346 277.114 79.3586 276.9 79.1306 276.752C78.9066 276.604 78.6446 276.53 78.3446 276.53C78.0686 276.53 77.8226 276.594 77.6066 276.722C77.3906 276.85 77.2206 277.03 77.0966 277.262C76.9726 277.494 76.9106 277.762 76.9106 278.066C76.9106 278.518 77.0426 278.87 77.3066 279.122C77.5706 279.37 77.9166 279.494 78.3446 279.494ZM85.1388 275.192C85.5508 275.192 85.9208 275.302 86.2488 275.522C86.5768 275.742 86.8368 276.04 87.0288 276.416C87.2208 276.792 87.3168 277.212 87.3168 277.676C87.3168 278.136 87.2228 278.55 87.0348 278.918C86.8468 279.286 86.5868 279.578 86.2548 279.794C85.9268 280.006 85.5548 280.112 85.1388 280.112C84.7228 280.112 84.3488 280.006 84.0168 279.794C83.6848 279.578 83.4228 279.286 83.2308 278.918C83.0388 278.55 82.9428 278.136 82.9428 277.676C82.9428 277.212 83.0388 276.792 83.2308 276.416C83.4268 276.04 83.6908 275.742 84.0228 275.522C84.3548 275.302 84.7268 275.192 85.1388 275.192ZM85.1268 279.224C85.4428 279.224 85.6708 279.088 85.8108 278.816C85.9548 278.54 86.0268 278.16 86.0268 277.676C86.0268 277.176 85.9528 276.784 85.8048 276.5C85.6568 276.216 85.4308 276.074 85.1268 276.074C84.9268 276.074 84.7608 276.14 84.6288 276.272C84.4968 276.4 84.3968 276.584 84.3288 276.824C84.2648 277.064 84.2328 277.348 84.2328 277.676C84.2328 278.156 84.3048 278.534 84.4488 278.81C84.5928 279.086 84.8188 279.224 85.1268 279.224ZM90.8328 279.188C91.2448 279.188 91.6148 279.3 91.9428 279.524C92.2748 279.744 92.5368 280.042 92.7288 280.418C92.9208 280.794 93.0168 281.212 93.0168 281.672C93.0168 282.132 92.9228 282.548 92.7348 282.92C92.5468 283.288 92.2868 283.58 91.9548 283.796C91.6268 284.012 91.2528 284.12 90.8328 284.12C90.4128 284.12 90.0368 284.012 89.7048 283.796C89.3728 283.58 89.1108 283.288 88.9188 282.92C88.7268 282.548 88.6308 282.132 88.6308 281.672C88.6308 281.212 88.7268 280.794 88.9188 280.418C89.1148 280.042 89.3788 279.744 89.7108 279.524C90.0468 279.3 90.4208 279.188 90.8328 279.188ZM90.8208 283.214C91.0248 283.214 91.1928 283.152 91.3248 283.028C91.4568 282.904 91.5548 282.728 91.6188 282.5C91.6868 282.268 91.7208 281.996 91.7208 281.684C91.7208 281.352 91.6868 281.068 91.6188 280.832C91.5508 280.592 91.4508 280.408 91.3188 280.28C91.1868 280.148 91.0208 280.082 90.8208 280.082C90.6208 280.082 90.4548 280.148 90.3228 280.28C90.1948 280.408 90.0968 280.592 90.0288 280.832C89.9648 281.072 89.9328 281.356 89.9328 281.684C89.9328 281.996 89.9648 282.268 90.0288 282.5C90.0928 282.728 90.1908 282.904 90.3228 283.028C90.4548 283.152 90.6208 283.214 90.8208 283.214ZM91.3308 275.228L85.4988 284.048L84.4668 284.03L90.3168 275.228H91.3308Z" fill="white"/>
</g>
<g clip-path="url(#clip1_162_7472)">
<path d="M10.972 26V17.324H14.116C15.252 17.324 16.094 17.52 16.642 17.912C17.194 18.3 17.47 18.862 17.47 19.598C17.47 20.03 17.36 20.406 17.14 20.726C16.92 21.042 16.528 21.318 15.964 21.554C16.328 21.646 16.622 21.77 16.846 21.926C17.07 22.082 17.242 22.256 17.362 22.448C17.482 22.636 17.564 22.834 17.608 23.042C17.652 23.246 17.674 23.448 17.674 23.648C17.674 24.448 17.402 25.04 16.858 25.424C16.314 25.808 15.448 26 14.26 26H10.972ZM12.718 24.644H14.296C14.824 24.644 15.222 24.538 15.49 24.326C15.762 24.114 15.898 23.83 15.898 23.474C15.898 23.218 15.832 23.004 15.7 22.832C15.568 22.656 15.388 22.524 15.16 22.436C14.936 22.348 14.68 22.304 14.392 22.304H12.718V24.644ZM12.718 20.912H14.392C14.572 20.912 14.744 20.892 14.908 20.852C15.076 20.808 15.224 20.742 15.352 20.654C15.484 20.566 15.588 20.454 15.664 20.318C15.74 20.178 15.778 20.014 15.778 19.826C15.778 19.45 15.636 19.166 15.352 18.974C15.072 18.778 14.712 18.68 14.272 18.68H12.718V20.912ZM20.9448 26.108C20.4888 26.108 20.1268 26.054 19.8588 25.946C19.5908 25.838 19.3928 25.696 19.2648 25.52C19.1368 25.34 19.0548 25.142 19.0188 24.926C18.9828 24.706 18.9648 24.484 18.9648 24.26V17.084H20.6808V24.044C20.6808 24.272 20.7288 24.458 20.8248 24.602C20.9248 24.742 21.1108 24.828 21.3828 24.86L21.6768 24.878V25.958C21.5568 25.998 21.4348 26.032 21.3108 26.06C21.1868 26.092 21.0648 26.108 20.9448 26.108ZM25.0594 26.12C24.7714 26.12 24.4874 26.076 24.2074 25.988C23.9314 25.9 23.6794 25.77 23.4514 25.598C23.2234 25.426 23.0394 25.214 22.8994 24.962C22.7634 24.71 22.6954 24.418 22.6954 24.086V19.796H24.4474V23.864C24.4474 24.152 24.5414 24.388 24.7294 24.572C24.9174 24.756 25.1934 24.848 25.5574 24.848C25.9014 24.848 26.1734 24.76 26.3734 24.584C26.5774 24.404 26.6794 24.154 26.6794 23.834V19.796H28.4134V26H27.0934L26.8894 24.77C26.8174 25.134 26.6814 25.414 26.4814 25.61C26.2854 25.802 26.0594 25.934 25.8034 26.006C25.5514 26.082 25.3034 26.12 25.0594 26.12ZM31.2798 23.3C31.2758 23.616 31.3258 23.892 31.4298 24.128C31.5338 24.36 31.6838 24.54 31.8798 24.668C32.0798 24.792 32.3198 24.854 32.5998 24.854C32.8998 24.854 33.1618 24.79 33.3858 24.662C33.6138 24.534 33.7718 24.324 33.8598 24.032H35.4378C35.3698 24.472 35.1938 24.848 34.9098 25.16C34.6298 25.472 34.2898 25.71 33.8898 25.874C33.4898 26.038 33.0738 26.12 32.6418 26.12C32.0298 26.12 31.4898 25.992 31.0218 25.736C30.5578 25.476 30.1958 25.11 29.9358 24.638C29.6758 24.166 29.5458 23.61 29.5458 22.97C29.5458 22.35 29.6638 21.792 29.8998 21.296C30.1358 20.796 30.4778 20.402 30.9258 20.114C31.3778 19.822 31.9198 19.676 32.5518 19.676C33.1838 19.676 33.7138 19.81 34.1418 20.078C34.5738 20.342 34.8978 20.712 35.1138 21.188C35.3338 21.66 35.4438 22.206 35.4438 22.826V23.3H31.2798ZM31.2738 22.256H33.8058C33.8058 22.008 33.7598 21.78 33.6678 21.572C33.5758 21.364 33.4358 21.2 33.2478 21.08C33.0638 20.96 32.8318 20.9 32.5518 20.9C32.2798 20.9 32.0478 20.966 31.8558 21.098C31.6678 21.226 31.5238 21.394 31.4238 21.602C31.3238 21.81 31.2738 22.028 31.2738 22.256ZM40.1162 26.12C39.8082 26.12 39.5422 26.08 39.3182 26C39.0942 25.92 38.9042 25.814 38.7482 25.682C38.5922 25.546 38.4642 25.396 38.3642 25.232C38.2642 25.068 38.1862 24.9 38.1302 24.728L37.9322 26H36.6602V17.084H38.4182V20.636C38.4942 20.504 38.5922 20.38 38.7122 20.264C38.8322 20.148 38.9722 20.046 39.1322 19.958C39.2922 19.87 39.4682 19.802 39.6602 19.754C39.8562 19.702 40.0642 19.676 40.2842 19.676C41.0562 19.676 41.6602 19.954 42.0962 20.51C42.5362 21.066 42.7562 21.85 42.7562 22.862C42.7562 23.518 42.6562 24.09 42.4562 24.578C42.2562 25.066 41.9602 25.446 41.5682 25.718C41.1762 25.986 40.6922 26.12 40.1162 26.12ZM39.7322 24.86C40.1082 24.86 40.4202 24.706 40.6682 24.398C40.9202 24.086 41.0462 23.566 41.0462 22.838C41.0462 22.194 40.9262 21.718 40.6862 21.41C40.4502 21.102 40.1282 20.948 39.7202 20.948C39.4282 20.948 39.1862 21.018 38.9942 21.158C38.8022 21.294 38.6582 21.502 38.5622 21.782C38.4702 22.062 38.4222 22.414 38.4182 22.838C38.4182 23.57 38.5262 24.09 38.7422 24.398C38.9622 24.706 39.2922 24.86 39.7322 24.86ZM45.3658 23.3C45.3618 23.616 45.4118 23.892 45.5158 24.128C45.6198 24.36 45.7698 24.54 45.9658 24.668C46.1658 24.792 46.4058 24.854 46.6858 24.854C46.9858 24.854 47.2478 24.79 47.4718 24.662C47.6998 24.534 47.8578 24.324 47.9458 24.032H49.5238C49.4558 24.472 49.2798 24.848 48.9958 25.16C48.7158 25.472 48.3758 25.71 47.9758 25.874C47.5758 26.038 47.1598 26.12 46.7278 26.12C46.1158 26.12 45.5758 25.992 45.1078 25.736C44.6438 25.476 44.2818 25.11 44.0218 24.638C43.7618 24.166 43.6318 23.61 43.6318 22.97C43.6318 22.35 43.7498 21.792 43.9858 21.296C44.2218 20.796 44.5638 20.402 45.0118 20.114C45.4638 19.822 46.0058 19.676 46.6378 19.676C47.2698 19.676 47.7998 19.81 48.2278 20.078C48.6598 20.342 48.9838 20.712 49.1998 21.188C49.4198 21.66 49.5298 22.206 49.5298 22.826V23.3H45.3658ZM45.3598 22.256H47.8918C47.8918 22.008 47.8458 21.78 47.7538 21.572C47.6618 21.364 47.5218 21.2 47.3338 21.08C47.1498 20.96 46.9178 20.9 46.6378 20.9C46.3658 20.9 46.1338 20.966 45.9418 21.098C45.7538 21.226 45.6098 21.394 45.5098 21.602C45.4098 21.81 45.3598 22.028 45.3598 22.256ZM50.7461 26V19.796H52.4321V21.266C52.5321 20.95 52.6721 20.674 52.8521 20.438C53.0361 20.198 53.2581 20.012 53.5181 19.88C53.7781 19.744 54.0721 19.676 54.4001 19.676C54.4561 19.676 54.5081 19.68 54.5561 19.688C54.6081 19.692 54.6461 19.7 54.6701 19.712V21.38C54.6341 21.364 54.5901 21.354 54.5381 21.35C54.4901 21.346 54.4461 21.342 54.4061 21.338C54.0621 21.31 53.7681 21.32 53.5241 21.368C53.2801 21.416 53.0821 21.498 52.9301 21.614C52.7781 21.73 52.6681 21.872 52.6001 22.04C52.5321 22.208 52.4981 22.396 52.4981 22.604V26H50.7461ZM55.6211 26V19.796H57.3071V21.266C57.4071 20.95 57.5471 20.674 57.7271 20.438C57.9111 20.198 58.1331 20.012 58.3931 19.88C58.6531 19.744 58.9471 19.676 59.2751 19.676C59.3311 19.676 59.3831 19.68 59.4311 19.688C59.4831 19.692 59.5211 19.7 59.5451 19.712V21.38C59.5091 21.364 59.4651 21.354 59.4131 21.35C59.3651 21.346 59.3211 21.342 59.2811 21.338C58.9371 21.31 58.6431 21.32 58.3991 21.368C58.1551 21.416 57.9571 21.498 57.8051 21.614C57.6531 21.73 57.5431 21.872 57.4751 22.04C57.4071 22.208 57.3731 22.396 57.3731 22.604V26H55.6211ZM61.7199 27.98C61.2959 27.98 60.9959 27.944 60.8199 27.872C60.6479 27.804 60.5619 27.77 60.5619 27.77V26.654L61.1739 26.678C61.4419 26.694 61.6579 26.68 61.8219 26.636C61.9859 26.596 62.1099 26.542 62.1939 26.474C62.2819 26.406 62.3439 26.334 62.3799 26.258C62.4159 26.186 62.4419 26.128 62.4579 26.084L62.5719 25.742L60.1599 19.796H61.8939L63.3819 23.84L64.8879 19.796H66.5979L64.0839 26.036C63.8679 26.564 63.6399 26.968 63.3999 27.248C63.1599 27.528 62.8999 27.72 62.6199 27.824C62.3439 27.928 62.0439 27.98 61.7199 27.98ZM70.1868 17.324C70.2308 17.324 70.3528 17.324 70.5528 17.324C70.7568 17.324 70.9948 17.324 71.2668 17.324C71.5428 17.324 71.8168 17.326 72.0888 17.33C72.3648 17.33 72.5948 17.332 72.7788 17.336C73.8308 17.36 74.6888 17.548 75.3528 17.9C76.0168 18.252 76.5028 18.744 76.8108 19.376C77.1228 20.008 77.2788 20.756 77.2788 21.62C77.2788 22.52 77.1148 23.298 76.7868 23.954C76.4588 24.606 75.9568 25.11 75.2808 25.466C74.6088 25.822 73.7548 26 72.7188 26H70.1868V17.324ZM71.9508 18.74V24.584H72.7548C73.2508 24.584 73.7008 24.488 74.1048 24.296C74.5128 24.104 74.8388 23.79 75.0828 23.354C75.3268 22.918 75.4488 22.336 75.4488 21.608C75.4488 20.932 75.3408 20.384 75.1248 19.964C74.9088 19.54 74.6008 19.23 74.2008 19.034C73.8008 18.838 73.3268 18.74 72.7788 18.74H71.9508ZM80.0416 23.3C80.0376 23.616 80.0876 23.892 80.1916 24.128C80.2956 24.36 80.4456 24.54 80.6416 24.668C80.8416 24.792 81.0816 24.854 81.3616 24.854C81.6616 24.854 81.9236 24.79 82.1476 24.662C82.3756 24.534 82.5336 24.324 82.6216 24.032H84.1996C84.1316 24.472 83.9556 24.848 83.6716 25.16C83.3916 25.472 83.0516 25.71 82.6516 25.874C82.2516 26.038 81.8356 26.12 81.4036 26.12C80.7916 26.12 80.2516 25.992 79.7836 25.736C79.3196 25.476 78.9576 25.11 78.6976 24.638C78.4376 24.166 78.3076 23.61 78.3076 22.97C78.3076 22.35 78.4256 21.792 78.6616 21.296C78.8976 20.796 79.2396 20.402 79.6876 20.114C80.1396 19.822 80.6816 19.676 81.3136 19.676C81.9456 19.676 82.4756 19.81 82.9036 20.078C83.3356 20.342 83.6596 20.712 83.8756 21.188C84.0956 21.66 84.2056 22.206 84.2056 22.826V23.3H80.0416ZM80.0356 22.256H82.5676C82.5676 22.008 82.5216 21.78 82.4296 21.572C82.3376 21.364 82.1976 21.2 82.0096 21.08C81.8256 20.96 81.5936 20.9 81.3136 20.9C81.0416 20.9 80.8096 20.966 80.6176 21.098C80.4296 21.226 80.2856 21.394 80.1856 21.602C80.0856 21.81 80.0356 22.028 80.0356 22.256ZM87.4019 26.108C86.9459 26.108 86.5839 26.054 86.3159 25.946C86.0479 25.838 85.8499 25.696 85.7219 25.52C85.5939 25.34 85.5119 25.142 85.4759 24.926C85.4399 24.706 85.4219 24.484 85.4219 24.26V17.084H87.1379V24.044C87.1379 24.272 87.1859 24.458 87.2819 24.602C87.3819 24.742 87.5679 24.828 87.8399 24.86L88.1339 24.878V25.958C88.0139 25.998 87.8919 26.032 87.7679 26.06C87.6439 26.092 87.5219 26.108 87.4019 26.108ZM91.0413 19.796V26H89.3673V19.796H91.0413ZM91.0593 17.33V18.908H89.3553V17.33H91.0593ZM97.9629 19.796L95.6349 26H94.3689L92.0349 19.796H93.6189L94.9749 23.75H95.0229L96.3609 19.796H97.9629ZM100.045 23.3C100.041 23.616 100.091 23.892 100.195 24.128C100.299 24.36 100.449 24.54 100.645 24.668C100.845 24.792 101.085 24.854 101.365 24.854C101.665 24.854 101.927 24.79 102.151 24.662C102.379 24.534 102.537 24.324 102.625 24.032H104.203C104.135 24.472 103.959 24.848 103.675 25.16C103.395 25.472 103.055 25.71 102.655 25.874C102.255 26.038 101.839 26.12 101.407 26.12C100.795 26.12 100.255 25.992 99.7875 25.736C99.3235 25.476 98.9615 25.11 98.7015 24.638C98.4415 24.166 98.3115 23.61 98.3115 22.97C98.3115 22.35 98.4295 21.792 98.6655 21.296C98.9015 20.796 99.2435 20.402 99.6915 20.114C100.143 19.822 100.685 19.676 101.317 19.676C101.949 19.676 102.479 19.81 102.907 20.078C103.339 20.342 103.663 20.712 103.879 21.188C104.099 21.66 104.209 22.206 104.209 22.826V23.3H100.045ZM100.039 22.256H102.571C102.571 22.008 102.525 21.78 102.433 21.572C102.341 21.364 102.201 21.2 102.013 21.08C101.829 20.96 101.597 20.9 101.317 20.9C101.045 20.9 100.813 20.966 100.621 21.098C100.433 21.226 100.289 21.394 100.189 21.602C100.089 21.81 100.039 22.028 100.039 22.256ZM105.426 26V19.796H107.112V21.266C107.212 20.95 107.352 20.674 107.532 20.438C107.716 20.198 107.938 20.012 108.198 19.88C108.458 19.744 108.752 19.676 109.08 19.676C109.136 19.676 109.188 19.68 109.236 19.688C109.288 19.692 109.326 19.7 109.35 19.712V21.38C109.314 21.364 109.27 21.354 109.218 21.35C109.17 21.346 109.126 21.342 109.086 21.338C108.742 21.31 108.448 21.32 108.204 21.368C107.96 21.416 107.762 21.498 107.61 21.614C107.458 21.73 107.348 21.872 107.28 22.04C107.212 22.208 107.178 22.396 107.178 22.604V26H105.426ZM112.03 26.12C111.634 26.12 111.278 26.046 110.962 25.898C110.646 25.75 110.396 25.536 110.212 25.256C110.028 24.972 109.936 24.628 109.936 24.224C109.936 23.544 110.19 23.028 110.698 22.676C111.206 22.32 112.008 22.136 113.104 22.124L113.878 22.112V21.74C113.878 21.456 113.794 21.238 113.626 21.086C113.462 20.93 113.206 20.854 112.858 20.858C112.602 20.862 112.358 20.922 112.126 21.038C111.898 21.154 111.742 21.356 111.658 21.644H110.2C110.224 21.196 110.354 20.828 110.59 20.54C110.826 20.248 111.146 20.032 111.55 19.892C111.958 19.748 112.42 19.676 112.936 19.676C113.572 19.676 114.082 19.756 114.466 19.916C114.85 20.072 115.128 20.298 115.3 20.594C115.472 20.886 115.558 21.234 115.558 21.638V26H114.094L113.95 24.932C113.738 25.38 113.472 25.69 113.152 25.862C112.836 26.034 112.462 26.12 112.03 26.12ZM112.618 24.968C112.778 24.968 112.932 24.94 113.08 24.884C113.232 24.824 113.366 24.746 113.482 24.65C113.602 24.55 113.698 24.438 113.77 24.314C113.842 24.19 113.878 24.062 113.878 23.93V23.012L113.248 23.024C112.956 23.028 112.684 23.064 112.432 23.132C112.18 23.196 111.976 23.302 111.82 23.45C111.668 23.598 111.592 23.798 111.592 24.05C111.592 24.338 111.692 24.564 111.892 24.728C112.092 24.888 112.334 24.968 112.618 24.968ZM120.565 26.12C120.257 26.12 119.991 26.08 119.767 26C119.543 25.92 119.353 25.814 119.197 25.682C119.041 25.546 118.913 25.396 118.813 25.232C118.713 25.068 118.635 24.9 118.579 24.728L118.381 26H117.109V17.084H118.867V20.636C118.943 20.504 119.041 20.38 119.161 20.264C119.281 20.148 119.421 20.046 119.581 19.958C119.741 19.87 119.917 19.802 120.109 19.754C120.305 19.702 120.513 19.676 120.733 19.676C121.505 19.676 122.109 19.954 122.545 20.51C122.985 21.066 123.205 21.85 123.205 22.862C123.205 23.518 123.105 24.09 122.905 24.578C122.705 25.066 122.409 25.446 122.017 25.718C121.625 25.986 121.141 26.12 120.565 26.12ZM120.181 24.86C120.557 24.86 120.869 24.706 121.117 24.398C121.369 24.086 121.495 23.566 121.495 22.838C121.495 22.194 121.375 21.718 121.135 21.41C120.899 21.102 120.577 20.948 120.169 20.948C119.877 20.948 119.635 21.018 119.443 21.158C119.251 21.294 119.107 21.502 119.011 21.782C118.919 22.062 118.871 22.414 118.867 22.838C118.867 23.57 118.975 24.09 119.191 24.398C119.411 24.706 119.741 24.86 120.181 24.86ZM126.355 26.108C125.899 26.108 125.537 26.054 125.269 25.946C125.001 25.838 124.803 25.696 124.675 25.52C124.547 25.34 124.465 25.142 124.429 24.926C124.393 24.706 124.375 24.484 124.375 24.26V17.084H126.091V24.044C126.091 24.272 126.139 24.458 126.235 24.602C126.335 24.742 126.521 24.828 126.793 24.86L127.087 24.878V25.958C126.967 25.998 126.845 26.032 126.721 26.06C126.597 26.092 126.475 26.108 126.355 26.108ZM129.647 23.3C129.643 23.616 129.693 23.892 129.797 24.128C129.901 24.36 130.051 24.54 130.247 24.668C130.447 24.792 130.687 24.854 130.967 24.854C131.267 24.854 131.529 24.79 131.753 24.662C131.981 24.534 132.139 24.324 132.227 24.032H133.805C133.737 24.472 133.561 24.848 133.277 25.16C132.997 25.472 132.657 25.71 132.257 25.874C131.857 26.038 131.441 26.12 131.009 26.12C130.397 26.12 129.857 25.992 129.389 25.736C128.925 25.476 128.563 25.11 128.303 24.638C128.043 24.166 127.913 23.61 127.913 22.97C127.913 22.35 128.031 21.792 128.267 21.296C128.503 20.796 128.845 20.402 129.293 20.114C129.745 19.822 130.287 19.676 130.919 19.676C131.551 19.676 132.081 19.81 132.509 20.078C132.941 20.342 133.265 20.712 133.481 21.188C133.701 21.66 133.811 22.206 133.811 22.826V23.3H129.647ZM129.641 22.256H132.173C132.173 22.008 132.127 21.78 132.035 21.572C131.943 21.364 131.803 21.2 131.615 21.08C131.431 20.96 131.199 20.9 130.919 20.9C130.647 20.9 130.415 20.966 130.223 21.098C130.035 21.226 129.891 21.394 129.791 21.602C129.691 21.81 129.641 22.028 129.641 22.256ZM137.47 26.12C137.038 26.12 136.622 26.05 136.222 25.91C135.822 25.766 135.484 25.542 135.208 25.238C134.932 24.93 134.756 24.532 134.68 24.044H136.198C136.25 24.264 136.344 24.438 136.48 24.566C136.62 24.694 136.778 24.786 136.954 24.842C137.13 24.894 137.298 24.92 137.458 24.92C137.794 24.92 138.064 24.868 138.268 24.764C138.476 24.656 138.58 24.492 138.58 24.272C138.58 24.104 138.518 23.97 138.394 23.87C138.274 23.77 138.074 23.694 137.794 23.642L136.702 23.414C136.154 23.298 135.714 23.102 135.382 22.826C135.05 22.546 134.88 22.15 134.872 21.638C134.872 21.266 134.97 20.932 135.166 20.636C135.366 20.34 135.66 20.106 136.048 19.934C136.436 19.762 136.912 19.676 137.476 19.676C138.24 19.676 138.85 19.844 139.306 20.18C139.766 20.516 140 20.99 140.008 21.602H138.544C138.5 21.362 138.38 21.178 138.184 21.05C137.992 20.918 137.75 20.852 137.458 20.852C137.154 20.852 136.904 20.906 136.708 21.014C136.512 21.122 136.414 21.286 136.414 21.506C136.414 21.67 136.494 21.8 136.654 21.896C136.814 21.988 137.062 22.068 137.398 22.136L138.406 22.364C138.754 22.448 139.036 22.564 139.252 22.712C139.472 22.856 139.642 23.014 139.762 23.186C139.882 23.358 139.964 23.532 140.008 23.708C140.056 23.88 140.08 24.036 140.08 24.176C140.08 24.588 139.97 24.94 139.75 25.232C139.53 25.52 139.224 25.74 138.832 25.892C138.44 26.044 137.986 26.12 137.47 26.12ZM143.698 26V25.136V24.692C143.698 24.252 143.78 23.872 143.944 23.552C144.108 23.228 144.324 22.948 144.592 22.712C144.864 22.472 145.16 22.262 145.48 22.082C145.804 21.902 146.128 21.732 146.452 21.572C146.776 21.412 147.072 21.252 147.34 21.092C147.612 20.928 147.83 20.746 147.994 20.546C148.158 20.346 148.24 20.11 148.24 19.838C148.24 19.49 148.118 19.206 147.874 18.986C147.634 18.766 147.304 18.656 146.884 18.656C146.448 18.656 146.078 18.782 145.774 19.034C145.47 19.286 145.282 19.666 145.21 20.174H143.536C143.544 19.622 143.672 19.122 143.92 18.674C144.172 18.222 144.548 17.864 145.048 17.6C145.548 17.336 146.176 17.204 146.932 17.204C147.58 17.204 148.138 17.314 148.606 17.534C149.078 17.754 149.442 18.06 149.698 18.452C149.954 18.844 150.082 19.302 150.082 19.826C150.082 20.262 150.002 20.638 149.842 20.954C149.682 21.27 149.47 21.54 149.206 21.764C148.942 21.988 148.652 22.184 148.336 22.352C148.02 22.52 147.704 22.676 147.388 22.82C147.076 22.964 146.788 23.112 146.524 23.264C146.26 23.412 146.048 23.58 145.888 23.768C145.728 23.956 145.648 24.182 145.648 24.446V24.524H150.07V26H143.698ZM154.513 17.204C155.545 17.204 156.359 17.59 156.955 18.362C157.551 19.13 157.849 20.236 157.849 21.68C157.849 23.116 157.555 24.218 156.967 24.986C156.379 25.75 155.561 26.132 154.513 26.132C153.461 26.132 152.639 25.75 152.047 24.986C151.459 24.222 151.165 23.122 151.165 21.686C151.165 20.726 151.301 19.912 151.573 19.244C151.845 18.576 152.231 18.07 152.731 17.726C153.231 17.378 153.825 17.204 154.513 17.204ZM154.513 24.698C155.029 24.698 155.407 24.468 155.647 24.008C155.887 23.544 156.007 22.77 156.007 21.686C156.007 20.578 155.885 19.784 155.641 19.304C155.397 18.824 155.019 18.584 154.507 18.584C153.995 18.584 153.613 18.826 153.361 19.31C153.113 19.794 152.989 20.586 152.989 21.686C152.989 22.766 153.113 23.538 153.361 24.002C153.609 24.466 153.993 24.698 154.513 24.698ZM159.049 26V25.136V24.692C159.049 24.252 159.131 23.872 159.295 23.552C159.459 23.228 159.675 22.948 159.943 22.712C160.215 22.472 160.511 22.262 160.831 22.082C161.155 21.902 161.479 21.732 161.803 21.572C162.127 21.412 162.423 21.252 162.691 21.092C162.963 20.928 163.181 20.746 163.345 20.546C163.509 20.346 163.591 20.11 163.591 19.838C163.591 19.49 163.469 19.206 163.225 18.986C162.985 18.766 162.655 18.656 162.235 18.656C161.799 18.656 161.429 18.782 161.125 19.034C160.821 19.286 160.633 19.666 160.561 20.174H158.887C158.895 19.622 159.023 19.122 159.271 18.674C159.523 18.222 159.899 17.864 160.399 17.6C160.899 17.336 161.527 17.204 162.283 17.204C162.931 17.204 163.489 17.314 163.957 17.534C164.429 17.754 164.793 18.06 165.049 18.452C165.305 18.844 165.433 19.302 165.433 19.826C165.433 20.262 165.353 20.638 165.193 20.954C165.033 21.27 164.821 21.54 164.557 21.764C164.293 21.988 164.003 22.184 163.687 22.352C163.371 22.52 163.055 22.676 162.739 22.82C162.427 22.964 162.139 23.112 161.875 23.264C161.611 23.412 161.399 23.58 161.239 23.768C161.079 23.956 160.999 24.182 160.999 24.446V24.524H165.421V26H159.049ZM166.57 19.994C166.57 19.37 166.716 18.852 167.008 18.44C167.304 18.028 167.702 17.72 168.202 17.516C168.702 17.308 169.258 17.204 169.87 17.204C170.518 17.204 171.094 17.288 171.598 17.456C172.106 17.624 172.506 17.88 172.798 18.224C173.09 18.568 173.236 19.004 173.236 19.532C173.236 19.96 173.112 20.338 172.864 20.666C172.616 20.99 172.212 21.248 171.652 21.44C171.972 21.528 172.268 21.662 172.54 21.842C172.812 22.022 173.03 22.252 173.194 22.532C173.358 22.812 173.44 23.148 173.44 23.54C173.44 23.964 173.346 24.338 173.158 24.662C172.97 24.986 172.71 25.258 172.378 25.478C172.046 25.698 171.662 25.862 171.226 25.97C170.79 26.078 170.324 26.132 169.828 26.132C169.132 26.128 168.538 26.014 168.046 25.79C167.558 25.562 167.182 25.238 166.918 24.818C166.658 24.398 166.524 23.898 166.516 23.318H168.202C168.286 23.81 168.478 24.166 168.778 24.386C169.078 24.606 169.434 24.716 169.846 24.716C170.206 24.716 170.514 24.664 170.77 24.56C171.03 24.456 171.228 24.312 171.364 24.128C171.504 23.94 171.574 23.726 171.574 23.486C171.574 23.238 171.502 23.024 171.358 22.844C171.218 22.664 171.022 22.524 170.77 22.424C170.518 22.32 170.23 22.264 169.906 22.256L169.078 22.226V20.834L169.822 20.792C170.134 20.78 170.406 20.722 170.638 20.618C170.87 20.514 171.05 20.376 171.178 20.204C171.31 20.028 171.376 19.83 171.376 19.61C171.376 19.398 171.31 19.214 171.178 19.058C171.046 18.902 170.864 18.78 170.632 18.692C170.4 18.604 170.134 18.56 169.834 18.56C169.558 18.56 169.304 18.606 169.072 18.698C168.84 18.79 168.65 18.942 168.502 19.154C168.354 19.362 168.268 19.642 168.244 19.994H166.57Z" fill="#171721"/>
<g clip-path="url(#clip2_162_7472)">
<path d="M224.238 15.25C225.082 15.25 225.75 15.918 225.75 16.7617V27.2383C225.75 28.082 225.082 28.75 224.238 28.75H213.762C212.918 28.75 212.25 28.082 212.25 27.2383V16.7617C212.25 15.918 212.918 15.25 213.762 15.25H214.5V13.7383H216.012V15.25H221.988V13.7383H223.5V15.25H224.238ZM224.238 27.2383V19.75H213.762V27.2383H224.238ZM213.762 18.2383H224.238V16.7617H213.762V18.2383ZM215.238 21.2617V22.7383H222.762V21.2617H215.238ZM215.238 24.25V25.7617H220.512V24.25H215.238Z" fill="#6F818C"/>
<path d="M235.892 25.5V19.5435H234.473V18.636C234.928 18.636 235.294 18.5938 235.573 18.5095C235.855 18.4215 236.066 18.2968 236.206 18.1355C236.345 17.9705 236.427 17.7743 236.453 17.547H237.52V25.5H235.892ZM241.927 17.547H247.339L247.334 18.889H243.544V20.8855H246.828V22.2H243.544V25.5H241.927V17.547ZM249.564 23.025C249.56 23.3147 249.606 23.5677 249.702 23.784C249.797 23.9967 249.934 24.1617 250.114 24.279C250.297 24.3927 250.517 24.4495 250.774 24.4495C251.049 24.4495 251.289 24.3908 251.495 24.2735C251.704 24.1562 251.848 23.9637 251.929 23.696H253.376C253.313 24.0993 253.152 24.444 252.892 24.73C252.635 25.016 252.323 25.2342 251.957 25.3845C251.59 25.5348 251.209 25.61 250.813 25.61C250.252 25.61 249.757 25.4927 249.328 25.258C248.902 25.0197 248.57 24.6842 248.332 24.2515C248.094 23.8188 247.975 23.3092 247.975 22.7225C247.975 22.1542 248.083 21.6427 248.299 21.188C248.515 20.7297 248.829 20.3685 249.24 20.1045C249.654 19.8368 250.151 19.703 250.73 19.703C251.309 19.703 251.795 19.8258 252.188 20.0715C252.584 20.3135 252.881 20.6527 253.079 21.089C253.28 21.5217 253.381 22.0222 253.381 22.5905V23.025H249.564ZM249.559 22.068H251.88C251.88 21.8407 251.837 21.6317 251.753 21.441C251.669 21.2503 251.54 21.1 251.368 20.99C251.199 20.88 250.987 20.825 250.73 20.825C250.481 20.825 250.268 20.8855 250.092 21.0065C249.92 21.1238 249.788 21.2778 249.696 21.4685C249.604 21.6592 249.559 21.859 249.559 22.068ZM257.664 25.61C257.382 25.61 257.138 25.5733 256.933 25.5C256.727 25.4267 256.553 25.3295 256.41 25.2085C256.267 25.0838 256.15 24.9463 256.058 24.796C255.966 24.6457 255.895 24.4917 255.844 24.334L255.662 25.5H254.496V17.327H256.108V20.583C256.177 20.462 256.267 20.3483 256.377 20.242C256.487 20.1357 256.615 20.0422 256.762 19.9615C256.909 19.8808 257.07 19.8185 257.246 19.7745C257.426 19.7268 257.616 19.703 257.818 19.703C258.526 19.703 259.079 19.9578 259.479 20.4675C259.882 20.9772 260.084 21.6958 260.084 22.6235C260.084 23.2248 259.992 23.7492 259.809 24.1965C259.626 24.6438 259.354 24.9922 258.995 25.2415C258.636 25.4872 258.192 25.61 257.664 25.61ZM257.312 24.455C257.657 24.455 257.943 24.3138 258.17 24.0315C258.401 23.7455 258.517 23.2688 258.517 22.6015C258.517 22.0112 258.407 21.5748 258.187 21.2925C257.97 21.0102 257.675 20.869 257.301 20.869C257.033 20.869 256.812 20.9332 256.636 21.0615C256.46 21.1862 256.328 21.3768 256.24 21.6335C256.155 21.8902 256.111 22.2128 256.108 22.6015C256.108 23.2725 256.207 23.7492 256.405 24.0315C256.606 24.3138 256.909 24.455 257.312 24.455ZM265.851 22.0845V23.2505L262.848 23.256V22.0845H265.851ZM269.87 25.5V19.5435H268.451V18.636C268.905 18.636 269.272 18.5938 269.551 18.5095C269.833 18.4215 270.044 18.2968 270.183 18.1355C270.322 17.9705 270.405 17.7743 270.431 17.547H271.498V25.5H269.87ZM275.316 25.5L278.165 17.547H279.859L282.703 25.5H281.102L280.453 23.6575H277.593L276.928 25.5H275.316ZM277.951 22.255H280.068L279.018 19.098L277.951 22.255ZM283.693 27.271V19.813H285.305L285.31 20.6325C285.395 20.4968 285.497 20.374 285.618 20.264C285.743 20.1503 285.881 20.0513 286.031 19.967C286.181 19.8827 286.344 19.8185 286.52 19.7745C286.696 19.7268 286.882 19.703 287.076 19.703C287.498 19.703 287.873 19.8075 288.203 20.0165C288.533 20.2218 288.792 20.5408 288.979 20.9735C289.17 21.4025 289.265 21.9488 289.265 22.6125C289.265 23.3018 289.162 23.8683 288.957 24.312C288.755 24.752 288.477 25.0783 288.121 25.291C287.765 25.5037 287.364 25.61 286.916 25.61C286.733 25.61 286.561 25.5843 286.399 25.533C286.238 25.4853 286.088 25.4175 285.948 25.3295C285.813 25.2415 285.69 25.1407 285.58 25.027C285.474 24.9097 285.38 24.7832 285.299 24.6475V27.271H283.693ZM286.531 24.433C286.88 24.433 287.171 24.2882 287.406 23.9985C287.644 23.7088 287.763 23.2505 287.763 22.6235C287.763 22.0735 287.65 21.6445 287.422 21.3365C287.199 21.0248 286.902 20.869 286.531 20.869C286.117 20.869 285.807 21.0377 285.602 21.375C285.4 21.7087 285.299 22.1248 285.299 22.6235C285.299 22.9425 285.343 23.2395 285.431 23.5145C285.523 23.7895 285.659 24.0113 285.838 24.18C286.022 24.3487 286.253 24.433 286.531 24.433ZM290.332 25.5V19.813H291.878V21.1605C291.969 20.8708 292.098 20.6178 292.263 20.4015C292.431 20.1815 292.635 20.011 292.873 19.89C293.111 19.7653 293.381 19.703 293.682 19.703C293.733 19.703 293.781 19.7067 293.825 19.714C293.872 19.7177 293.907 19.725 293.929 19.736V21.265C293.896 21.2503 293.856 21.2412 293.808 21.2375C293.764 21.2338 293.724 21.2302 293.687 21.2265C293.372 21.2008 293.102 21.21 292.879 21.254C292.655 21.298 292.473 21.3732 292.334 21.4795C292.195 21.5858 292.094 21.716 292.032 21.87C291.969 22.024 291.938 22.1963 291.938 22.387V25.5H290.332ZM297.066 25.5V24.708V24.301C297.066 23.8977 297.141 23.5493 297.291 23.256C297.442 22.959 297.64 22.7023 297.885 22.486C298.135 22.266 298.406 22.0735 298.699 21.9085C298.996 21.7435 299.293 21.5877 299.59 21.441C299.887 21.2943 300.159 21.1477 300.404 21.001C300.654 20.8507 300.854 20.6838 301.004 20.5005C301.154 20.3172 301.229 20.1008 301.229 19.8515C301.229 19.5325 301.118 19.2722 300.894 19.0705C300.674 18.8688 300.371 18.768 299.986 18.768C299.587 18.768 299.248 18.8835 298.969 19.1145C298.69 19.3455 298.518 19.6938 298.452 20.1595H296.917C296.925 19.6535 297.042 19.1952 297.269 18.7845C297.5 18.3702 297.845 18.042 298.303 17.8C298.762 17.558 299.337 17.437 300.03 17.437C300.624 17.437 301.136 17.5378 301.565 17.7395C301.998 17.9412 302.331 18.2217 302.566 18.581C302.801 18.9403 302.918 19.3602 302.918 19.8405C302.918 20.2402 302.845 20.5848 302.698 20.8745C302.551 21.1642 302.357 21.4117 302.115 21.617C301.873 21.8223 301.607 22.002 301.317 22.156C301.028 22.31 300.738 22.453 300.448 22.585C300.162 22.717 299.898 22.8527 299.656 22.992C299.414 23.1277 299.22 23.2817 299.073 23.454C298.927 23.6263 298.853 23.8335 298.853 24.0755V24.147H302.907V25.5H297.066ZM306.98 17.437C307.926 17.437 308.672 17.7908 309.218 18.4985C309.765 19.2025 310.038 20.2163 310.038 21.54C310.038 22.8563 309.768 23.8665 309.229 24.5705C308.69 25.2708 307.94 25.621 306.98 25.621C306.015 25.621 305.262 25.2708 304.719 24.5705C304.18 23.8702 303.911 22.8618 303.911 21.5455C303.911 20.6655 304.035 19.9193 304.285 19.307C304.534 18.6947 304.888 18.2308 305.346 17.9155C305.805 17.5965 306.349 17.437 306.98 17.437ZM306.98 24.3065C307.453 24.3065 307.799 24.0957 308.019 23.674C308.239 23.2487 308.349 22.5392 308.349 21.5455C308.349 20.5298 308.237 19.802 308.014 19.362C307.79 18.922 307.444 18.702 306.974 18.702C306.505 18.702 306.155 18.9238 305.924 19.3675C305.696 19.8112 305.583 20.5372 305.583 21.5455C305.583 22.5355 305.696 23.2432 305.924 23.6685C306.151 24.0938 306.503 24.3065 306.98 24.3065ZM311.138 25.5V24.708V24.301C311.138 23.8977 311.213 23.5493 311.364 23.256C311.514 22.959 311.712 22.7023 311.958 22.486C312.207 22.266 312.478 22.0735 312.772 21.9085C313.069 21.7435 313.366 21.5877 313.663 21.441C313.96 21.2943 314.231 21.1477 314.477 21.001C314.726 20.8507 314.926 20.6838 315.076 20.5005C315.226 20.3172 315.302 20.1008 315.302 19.8515C315.302 19.5325 315.19 19.2722 314.966 19.0705C314.746 18.8688 314.444 18.768 314.059 18.768C313.659 18.768 313.32 18.8835 313.041 19.1145C312.762 19.3455 312.59 19.6938 312.524 20.1595H310.99C310.997 19.6535 311.114 19.1952 311.342 18.7845C311.573 18.3702 311.917 18.042 312.376 17.8C312.834 17.558 313.41 17.437 314.103 17.437C314.697 17.437 315.208 17.5378 315.637 17.7395C316.07 17.9412 316.403 18.2217 316.638 18.581C316.873 18.9403 316.99 19.3602 316.99 19.8405C316.99 20.2402 316.917 20.5848 316.77 20.8745C316.623 21.1642 316.429 21.4117 316.187 21.617C315.945 21.8223 315.679 22.002 315.39 22.156C315.1 22.31 314.81 22.453 314.521 22.585C314.235 22.717 313.971 22.8527 313.729 22.992C313.487 23.1277 313.292 23.2817 313.146 23.454C312.999 23.6263 312.926 23.8335 312.926 24.0755V24.147H316.979V25.5H311.138ZM318.033 19.9945C318.033 19.4225 318.166 18.9477 318.434 18.57C318.705 18.1923 319.07 17.91 319.529 17.723C319.987 17.5323 320.497 17.437 321.058 17.437C321.652 17.437 322.18 17.514 322.642 17.668C323.107 17.822 323.474 18.0567 323.742 18.372C324.009 18.6873 324.143 19.087 324.143 19.571C324.143 19.9633 324.029 20.3098 323.802 20.6105C323.575 20.9075 323.204 21.144 322.691 21.32C322.984 21.4007 323.256 21.5235 323.505 21.6885C323.754 21.8535 323.954 22.0643 324.105 22.321C324.255 22.5777 324.33 22.8857 324.33 23.245C324.33 23.6337 324.244 23.9765 324.072 24.2735C323.899 24.5705 323.661 24.8198 323.357 25.0215C323.052 25.2232 322.7 25.3735 322.301 25.4725C321.901 25.5715 321.474 25.621 321.019 25.621C320.381 25.6173 319.837 25.5128 319.386 25.3075C318.938 25.0985 318.594 24.8015 318.352 24.4165C318.113 24.0315 317.99 23.5732 317.983 23.0415H319.529C319.606 23.4925 319.782 23.8188 320.057 24.0205C320.332 24.2222 320.658 24.323 321.036 24.323C321.366 24.323 321.648 24.2753 321.883 24.18C322.121 24.0847 322.302 23.9527 322.427 23.784C322.555 23.6117 322.62 23.4155 322.62 23.1955C322.62 22.9682 322.554 22.772 322.422 22.607C322.293 22.442 322.114 22.3137 321.883 22.222C321.652 22.1267 321.388 22.0753 321.091 22.068L320.332 22.0405V20.7645L321.014 20.726C321.3 20.715 321.549 20.6618 321.762 20.5665C321.974 20.4712 322.139 20.3447 322.257 20.187C322.378 20.0257 322.438 19.8442 322.438 19.6425C322.438 19.4482 322.378 19.2795 322.257 19.1365C322.136 18.9935 321.969 18.8817 321.756 18.801C321.543 18.7203 321.3 18.68 321.025 18.68C320.772 18.68 320.539 18.7222 320.326 18.8065C320.113 18.8908 319.939 19.0302 319.804 19.2245C319.668 19.4152 319.589 19.6718 319.567 19.9945H318.033Z" fill="#6F818C"/>
</g>
<path d="M0 43.5H355" stroke="#E4E6E8" stroke-opacity="0.85" stroke-linecap="square"/>
</g>
<defs>
<clipPath id="clip0_162_7472">
<rect width="238" height="204" fill="white" transform="translate(48.5 150)"/>
</clipPath>
<clipPath id="clip1_162_7472">
<rect width="335" height="44" fill="white"/>
</clipPath>
<clipPath id="clip2_162_7472">
<rect width="115" height="21" fill="white" transform="translate(210 11.5)"/>
</clipPath>
</defs>
</svg>
