<svg width="650" height="351" viewBox="0 0 650 351" fill="none" xmlns="http://www.w3.org/2000/svg">
<rect x="0.651184" y="1.0144" width="648.837" height="348.986" rx="16" stroke="#E4E6E8" stroke-opacity="0.85" stroke-linecap="square"/>
<rect x="42" y="98.5" width="121" height="36" rx="18" fill="#F5F7FA" fill-opacity="0.7"/>
<rect x="42" y="98.5" width="121" height="36" rx="18" stroke="#E4E6E8" stroke-opacity="0.85" stroke-linecap="square"/>
<circle cx="67" cy="116.5" r="5" fill="#CFB500"/>
<mask id="mask0_133_4473" style="mask-type:luminance" maskUnits="userSpaceOnUse" x="62" y="111" width="10" height="11">
<circle cx="67" cy="116.5" r="5" fill="white"/>
</mask>
<g mask="url(#mask0_133_4473)">
</g>
<path d="M89.5359 116.216C89.9839 116.296 90.3639 116.532 90.6759 116.924C90.9879 117.316 91.1439 117.76 91.1439 118.256C91.1439 118.68 91.0319 119.064 90.8079 119.408C90.5919 119.744 90.2759 120.012 89.8599 120.212C89.4439 120.404 88.9599 120.5 88.4079 120.5H85.0719V112.16H88.2519C88.8199 112.16 89.3079 112.256 89.7159 112.448C90.1239 112.64 90.4319 112.9 90.6399 113.228C90.8479 113.548 90.9519 113.908 90.9519 114.308C90.9519 114.788 90.8239 115.188 90.5679 115.508C90.3119 115.828 89.9679 116.064 89.5359 116.216ZM86.4399 115.664H88.1319C88.5799 115.664 88.9279 115.564 89.1759 115.364C89.4319 115.156 89.5599 114.86 89.5599 114.476C89.5599 114.1 89.4319 113.808 89.1759 113.6C88.9279 113.384 88.5799 113.276 88.1319 113.276H86.4399V115.664ZM88.2879 119.384C88.7519 119.384 89.1159 119.272 89.3799 119.048C89.6439 118.824 89.7759 118.512 89.7759 118.112C89.7759 117.704 89.6359 117.38 89.3559 117.14C89.0759 116.9 88.7039 116.78 88.2399 116.78H86.4399V119.384H88.2879ZM93.9985 111.62V120.5H92.6305V111.62H93.9985ZM101.783 113.888V120.5H100.415V119.72C100.199 119.992 99.9145 120.208 99.5625 120.368C99.2185 120.52 98.8505 120.596 98.4585 120.596C97.9385 120.596 97.4705 120.488 97.0545 120.272C96.6465 120.056 96.3225 119.736 96.0825 119.312C95.8505 118.888 95.7345 118.376 95.7345 117.776V113.888H97.0905V117.572C97.0905 118.164 97.2385 118.62 97.5345 118.94C97.8305 119.252 98.2345 119.408 98.7465 119.408C99.2585 119.408 99.6625 119.252 99.9585 118.94C100.263 118.62 100.415 118.164 100.415 117.572V113.888H101.783ZM109.648 117.032C109.648 117.28 109.632 117.504 109.6 117.704H104.548C104.588 118.232 104.784 118.656 105.136 118.976C105.488 119.296 105.92 119.456 106.432 119.456C107.168 119.456 107.688 119.148 107.992 118.532H109.467C109.268 119.14 108.904 119.64 108.376 120.032C107.856 120.416 107.208 120.608 106.432 120.608C105.8 120.608 105.232 120.468 104.728 120.188C104.232 119.9 103.84 119.5 103.552 118.988C103.272 118.468 103.132 117.868 103.132 117.188C103.132 116.508 103.268 115.912 103.54 115.4C103.82 114.88 104.208 114.48 104.704 114.2C105.208 113.92 105.784 113.78 106.432 113.78C107.056 113.78 107.612 113.916 108.1 114.188C108.588 114.46 108.968 114.844 109.24 115.34C109.512 115.828 109.648 116.392 109.648 117.032ZM108.22 116.6C108.212 116.096 108.032 115.692 107.68 115.388C107.328 115.084 106.892 114.932 106.372 114.932C105.9 114.932 105.496 115.084 105.16 115.388C104.824 115.684 104.624 116.088 104.56 116.6H108.22ZM112.362 114.872C112.594 114.552 112.91 114.292 113.31 114.092C113.718 113.884 114.17 113.78 114.666 113.78C115.25 113.78 115.778 113.92 116.25 114.2C116.722 114.48 117.094 114.88 117.366 115.4C117.638 115.912 117.774 116.5 117.774 117.164C117.774 117.828 117.638 118.424 117.366 118.952C117.094 119.472 116.718 119.88 116.238 120.176C115.766 120.464 115.242 120.608 114.666 120.608C114.154 120.608 113.698 120.508 113.298 120.308C112.906 120.108 112.594 119.852 112.362 119.54V120.5H110.994V111.62H112.362V114.872ZM116.382 117.164C116.382 116.708 116.286 116.316 116.094 115.988C115.91 115.652 115.662 115.4 115.35 115.232C115.046 115.056 114.718 114.968 114.366 114.968C114.022 114.968 113.694 115.056 113.382 115.232C113.078 115.408 112.83 115.664 112.638 116C112.454 116.336 112.362 116.732 112.362 117.188C112.362 117.644 112.454 118.044 112.638 118.388C112.83 118.724 113.078 118.98 113.382 119.156C113.694 119.332 114.022 119.42 114.366 119.42C114.718 119.42 115.046 119.332 115.35 119.156C115.662 118.972 115.91 118.708 116.094 118.364C116.286 118.02 116.382 117.62 116.382 117.164ZM125.187 117.032C125.187 117.28 125.171 117.504 125.139 117.704H120.087C120.127 118.232 120.323 118.656 120.675 118.976C121.027 119.296 121.459 119.456 121.971 119.456C122.707 119.456 123.227 119.148 123.531 118.532H125.007C124.807 119.14 124.443 119.64 123.915 120.032C123.395 120.416 122.747 120.608 121.971 120.608C121.339 120.608 120.771 120.468 120.267 120.188C119.771 119.9 119.379 119.5 119.091 118.988C118.811 118.468 118.671 117.868 118.671 117.188C118.671 116.508 118.807 115.912 119.079 115.4C119.359 114.88 119.747 114.48 120.243 114.2C120.747 113.92 121.323 113.78 121.971 113.78C122.595 113.78 123.151 113.916 123.639 114.188C124.127 114.46 124.507 114.844 124.779 115.34C125.051 115.828 125.187 116.392 125.187 117.032ZM123.759 116.6C123.751 116.096 123.571 115.692 123.219 115.388C122.867 115.084 122.431 114.932 121.911 114.932C121.439 114.932 121.035 115.084 120.699 115.388C120.363 115.684 120.163 116.088 120.099 116.6H123.759ZM127.901 114.848C128.101 114.512 128.365 114.252 128.693 114.068C129.029 113.876 129.425 113.78 129.881 113.78V115.196H129.533C128.997 115.196 128.589 115.332 128.309 115.604C128.037 115.876 127.901 116.348 127.901 117.02V120.5H126.533V113.888H127.901V114.848ZM132.506 114.848C132.706 114.512 132.97 114.252 133.298 114.068C133.634 113.876 134.03 113.78 134.486 113.78V115.196H134.138C133.602 115.196 133.194 115.332 132.914 115.604C132.642 115.876 132.506 116.348 132.506 117.02V120.5H131.138V113.888H132.506V114.848ZM141.696 113.888L137.64 123.608H136.224L137.568 120.392L134.964 113.888H136.488L138.348 118.928L140.28 113.888H141.696Z" fill="#171721"/>
<rect x="42" y="144.5" width="121" height="36" rx="18" stroke="#E4E6E8" stroke-opacity="0.85" stroke-linecap="square"/>
<circle cx="67" cy="162.5" r="5" fill="#99BFBE"/>
<mask id="mask1_133_4473" style="mask-type:luminance" maskUnits="userSpaceOnUse" x="62" y="157" width="10" height="11">
<circle cx="67" cy="162.5" r="5" fill="white"/>
</mask>
<g mask="url(#mask1_133_4473)">
</g>
<path d="M90.4046 164.796H86.9126L86.3126 166.5H84.8846L87.8726 158.148H89.4566L92.4446 166.5H91.0046L90.4046 164.796ZM90.0206 163.68L88.6646 159.804L87.2966 163.68H90.0206ZM96.2998 165.276L98.1718 159.888H99.6237L97.1038 166.5H95.4718L92.9638 159.888H94.4277L96.2998 165.276ZM103.526 166.608C102.902 166.608 102.338 166.468 101.834 166.188C101.33 165.9 100.934 165.5 100.646 164.988C100.358 164.468 100.214 163.868 100.214 163.188C100.214 162.516 100.362 161.92 100.658 161.4C100.954 160.88 101.358 160.48 101.87 160.2C102.382 159.92 102.954 159.78 103.586 159.78C104.218 159.78 104.79 159.92 105.302 160.2C105.814 160.48 106.218 160.88 106.514 161.4C106.81 161.92 106.958 162.516 106.958 163.188C106.958 163.86 106.806 164.456 106.502 164.976C106.198 165.496 105.782 165.9 105.254 166.188C104.734 166.468 104.158 166.608 103.526 166.608ZM103.526 165.42C103.878 165.42 104.206 165.336 104.51 165.168C104.822 165 105.074 164.748 105.266 164.412C105.458 164.076 105.554 163.668 105.554 163.188C105.554 162.708 105.462 162.304 105.278 161.976C105.094 161.64 104.85 161.388 104.546 161.22C104.242 161.052 103.914 160.968 103.562 160.968C103.21 160.968 102.882 161.052 102.578 161.22C102.282 161.388 102.046 161.64 101.87 161.976C101.694 162.304 101.606 162.708 101.606 163.188C101.606 163.9 101.786 164.452 102.146 164.844C102.514 165.228 102.974 165.42 103.526 165.42ZM107.854 163.188C107.854 162.508 107.99 161.912 108.262 161.4C108.542 160.88 108.926 160.48 109.414 160.2C109.902 159.92 110.462 159.78 111.094 159.78C111.894 159.78 112.554 159.972 113.074 160.356C113.602 160.732 113.958 161.272 114.142 161.976H112.666C112.546 161.648 112.354 161.392 112.09 161.208C111.826 161.024 111.494 160.932 111.094 160.932C110.534 160.932 110.086 161.132 109.75 161.532C109.422 161.924 109.258 162.476 109.258 163.188C109.258 163.9 109.422 164.456 109.75 164.856C110.086 165.256 110.534 165.456 111.094 165.456C111.886 165.456 112.41 165.108 112.666 164.412H114.142C113.95 165.084 113.59 165.62 113.062 166.02C112.534 166.412 111.878 166.608 111.094 166.608C110.462 166.608 109.902 166.468 109.414 166.188C108.926 165.9 108.542 165.5 108.262 164.988C107.99 164.468 107.854 163.868 107.854 163.188ZM115.049 163.164C115.049 162.5 115.185 161.912 115.457 161.4C115.737 160.888 116.113 160.492 116.585 160.212C117.065 159.924 117.593 159.78 118.169 159.78C118.689 159.78 119.141 159.884 119.525 160.092C119.917 160.292 120.229 160.544 120.461 160.848V159.888H121.841V166.5H120.461V165.516C120.229 165.828 119.913 166.088 119.513 166.296C119.113 166.504 118.657 166.608 118.145 166.608C117.577 166.608 117.057 166.464 116.585 166.176C116.113 165.88 115.737 165.472 115.457 164.952C115.185 164.424 115.049 163.828 115.049 163.164ZM120.461 163.188C120.461 162.732 120.365 162.336 120.173 162C119.989 161.664 119.745 161.408 119.441 161.232C119.137 161.056 118.809 160.968 118.457 160.968C118.105 160.968 117.777 161.056 117.473 161.232C117.169 161.4 116.921 161.652 116.729 161.988C116.545 162.316 116.453 162.708 116.453 163.164C116.453 163.62 116.545 164.02 116.729 164.364C116.921 164.708 117.169 164.972 117.473 165.156C117.785 165.332 118.113 165.42 118.457 165.42C118.809 165.42 119.137 165.332 119.441 165.156C119.745 164.98 119.989 164.724 120.173 164.388C120.365 164.044 120.461 163.644 120.461 163.188ZM123.182 163.164C123.182 162.5 123.318 161.912 123.59 161.4C123.87 160.888 124.246 160.492 124.718 160.212C125.198 159.924 125.73 159.78 126.314 159.78C126.746 159.78 127.17 159.876 127.586 160.068C128.01 160.252 128.346 160.5 128.594 160.812V157.62H129.974V166.5H128.594V165.504C128.37 165.824 128.058 166.088 127.658 166.296C127.266 166.504 126.814 166.608 126.302 166.608C125.726 166.608 125.198 166.464 124.718 166.176C124.246 165.88 123.87 165.472 123.59 164.952C123.318 164.424 123.182 163.828 123.182 163.164ZM128.594 163.188C128.594 162.732 128.498 162.336 128.306 162C128.122 161.664 127.878 161.408 127.574 161.232C127.27 161.056 126.942 160.968 126.59 160.968C126.238 160.968 125.91 161.056 125.606 161.232C125.302 161.4 125.054 161.652 124.862 161.988C124.678 162.316 124.586 162.708 124.586 163.164C124.586 163.62 124.678 164.02 124.862 164.364C125.054 164.708 125.302 164.972 125.606 165.156C125.918 165.332 126.246 165.42 126.59 165.42C126.942 165.42 127.27 165.332 127.574 165.156C127.878 164.98 128.122 164.724 128.306 164.388C128.498 164.044 128.594 163.644 128.594 163.188ZM134.639 166.608C134.015 166.608 133.451 166.468 132.947 166.188C132.443 165.9 132.047 165.5 131.759 164.988C131.471 164.468 131.327 163.868 131.327 163.188C131.327 162.516 131.475 161.92 131.771 161.4C132.067 160.88 132.471 160.48 132.983 160.2C133.495 159.92 134.067 159.78 134.699 159.78C135.331 159.78 135.903 159.92 136.415 160.2C136.927 160.48 137.331 160.88 137.627 161.4C137.923 161.92 138.071 162.516 138.071 163.188C138.071 163.86 137.919 164.456 137.615 164.976C137.311 165.496 136.895 165.9 136.367 166.188C135.847 166.468 135.271 166.608 134.639 166.608ZM134.639 165.42C134.991 165.42 135.319 165.336 135.623 165.168C135.935 165 136.187 164.748 136.379 164.412C136.571 164.076 136.667 163.668 136.667 163.188C136.667 162.708 136.575 162.304 136.391 161.976C136.207 161.64 135.963 161.388 135.659 161.22C135.355 161.052 135.027 160.968 134.675 160.968C134.323 160.968 133.995 161.052 133.691 161.22C133.395 161.388 133.159 161.64 132.983 161.976C132.807 162.304 132.719 162.708 132.719 163.188C132.719 163.9 132.899 164.452 133.259 164.844C133.627 165.228 134.087 165.42 134.639 165.42Z" fill="#171721"/>
<rect x="42" y="190.5" width="102" height="36" rx="18" stroke="#E4E6E8" stroke-opacity="0.85" stroke-linecap="square"/>
<circle cx="67" cy="208.5" r="5" fill="#005E5D"/>
<mask id="mask2_133_4473" style="mask-type:luminance" maskUnits="userSpaceOnUse" x="62" y="203" width="10" height="11">
<circle cx="67" cy="208.5" r="5" fill="white"/>
</mask>
<g mask="url(#mask2_133_4473)">
</g>
<path d="M95.8674 204.16L93.3954 212.5H91.8474L90.0954 206.188L88.2354 212.5L86.6994 212.512L84.3354 204.16H85.7874L87.5154 210.952L89.3874 204.16H90.9234L92.6634 210.916L94.4034 204.16H95.8674ZM100.416 205.78C100.92 205.78 101.368 205.888 101.76 206.104C102.16 206.32 102.472 206.64 102.696 207.064C102.928 207.488 103.044 208 103.044 208.6V212.5H101.688V208.804C101.688 208.212 101.54 207.76 101.244 207.448C100.948 207.128 100.544 206.968 100.032 206.968C99.5197 206.968 99.1117 207.128 98.8077 207.448C98.5117 207.76 98.3637 208.212 98.3637 208.804V212.5H96.9957V203.62H98.3637V206.656C98.5957 206.376 98.8877 206.16 99.2397 206.008C99.5997 205.856 99.9917 205.78 100.416 205.78ZM110.849 209.032C110.849 209.28 110.833 209.504 110.801 209.704H105.749C105.789 210.232 105.985 210.656 106.337 210.976C106.689 211.296 107.121 211.456 107.633 211.456C108.369 211.456 108.889 211.148 109.193 210.532H110.669C110.469 211.14 110.105 211.64 109.577 212.032C109.057 212.416 108.409 212.608 107.633 212.608C107.001 212.608 106.433 212.468 105.929 212.188C105.433 211.9 105.041 211.5 104.753 210.988C104.473 210.468 104.333 209.868 104.333 209.188C104.333 208.508 104.469 207.912 104.741 207.4C105.021 206.88 105.409 206.48 105.905 206.2C106.409 205.92 106.985 205.78 107.633 205.78C108.257 205.78 108.813 205.916 109.301 206.188C109.789 206.46 110.169 206.844 110.441 207.34C110.713 207.828 110.849 208.392 110.849 209.032ZM109.421 208.6C109.413 208.096 109.233 207.692 108.881 207.388C108.529 207.084 108.093 206.932 107.573 206.932C107.101 206.932 106.697 207.084 106.361 207.388C106.025 207.684 105.825 208.088 105.761 208.6H109.421ZM111.739 209.164C111.739 208.5 111.875 207.912 112.147 207.4C112.427 206.888 112.803 206.492 113.275 206.212C113.755 205.924 114.283 205.78 114.859 205.78C115.379 205.78 115.831 205.884 116.215 206.092C116.607 206.292 116.919 206.544 117.151 206.848V205.888H118.531V212.5H117.151V211.516C116.919 211.828 116.603 212.088 116.203 212.296C115.803 212.504 115.347 212.608 114.835 212.608C114.267 212.608 113.747 212.464 113.275 212.176C112.803 211.88 112.427 211.472 112.147 210.952C111.875 210.424 111.739 209.828 111.739 209.164ZM117.151 209.188C117.151 208.732 117.055 208.336 116.863 208C116.679 207.664 116.435 207.408 116.131 207.232C115.827 207.056 115.499 206.968 115.147 206.968C114.795 206.968 114.467 207.056 114.163 207.232C113.859 207.4 113.611 207.652 113.419 207.988C113.235 208.316 113.143 208.708 113.143 209.164C113.143 209.62 113.235 210.02 113.419 210.364C113.611 210.708 113.859 210.972 114.163 211.156C114.475 211.332 114.803 211.42 115.147 211.42C115.499 211.42 115.827 211.332 116.131 211.156C116.435 210.98 116.679 210.724 116.863 210.388C117.055 210.044 117.151 209.644 117.151 209.188ZM121.924 207.004V210.664C121.924 210.912 121.98 211.092 122.092 211.204C122.212 211.308 122.412 211.36 122.692 211.36H123.532V212.5H122.452C121.836 212.5 121.364 212.356 121.036 212.068C120.708 211.78 120.544 211.312 120.544 210.664V207.004H119.764V205.888H120.544V204.244H121.924V205.888H123.532V207.004H121.924Z" fill="#171721"/>
<rect x="42" y="236.5" width="121" height="36" rx="18" stroke="#E4E6E8" stroke-opacity="0.85" stroke-linecap="square"/>
<circle cx="67" cy="254.5" r="5" fill="#005E5D"/>
<mask id="mask3_133_4473" style="mask-type:luminance" maskUnits="userSpaceOnUse" x="62" y="249" width="10" height="11">
<circle cx="67" cy="254.5" r="5" fill="white"/>
</mask>
<g mask="url(#mask3_133_4473)">
</g>
<path d="M94.016 250.16V258.5H92.648V252.788L90.104 258.5H89.156L86.6 252.788V258.5H85.232V250.16H86.708L89.636 256.7L92.552 250.16H94.016ZM95.3581 255.164C95.3581 254.5 95.4941 253.912 95.7661 253.4C96.0461 252.888 96.4221 252.492 96.8941 252.212C97.3741 251.924 97.9021 251.78 98.4781 251.78C98.9981 251.78 99.4501 251.884 99.8341 252.092C100.226 252.292 100.538 252.544 100.77 252.848V251.888H102.15V258.5H100.77V257.516C100.538 257.828 100.222 258.088 99.8221 258.296C99.4221 258.504 98.9661 258.608 98.4541 258.608C97.8861 258.608 97.3661 258.464 96.8941 258.176C96.4221 257.88 96.0461 257.472 95.7661 256.952C95.4941 256.424 95.3581 255.828 95.3581 255.164ZM100.77 255.188C100.77 254.732 100.674 254.336 100.482 254C100.298 253.664 100.054 253.408 99.7501 253.232C99.4461 253.056 99.1181 252.968 98.7661 252.968C98.4141 252.968 98.0861 253.056 97.7821 253.232C97.4781 253.4 97.2301 253.652 97.0381 253.988C96.8541 254.316 96.7621 254.708 96.7621 255.164C96.7621 255.62 96.8541 256.02 97.0381 256.364C97.2301 256.708 97.4781 256.972 97.7821 257.156C98.0941 257.332 98.4221 257.42 98.7661 257.42C99.1181 257.42 99.4461 257.332 99.7501 257.156C100.054 256.98 100.298 256.724 100.482 256.388C100.674 256.044 100.77 255.644 100.77 255.188ZM107.283 251.78C107.803 251.78 108.267 251.888 108.675 252.104C109.091 252.32 109.415 252.64 109.647 253.064C109.879 253.488 109.995 254 109.995 254.6V258.5H108.639V254.804C108.639 254.212 108.491 253.76 108.195 253.448C107.899 253.128 107.495 252.968 106.983 252.968C106.471 252.968 106.063 253.128 105.759 253.448C105.463 253.76 105.315 254.212 105.315 254.804V258.5H103.947V251.888H105.315V252.644C105.539 252.372 105.823 252.16 106.167 252.008C106.519 251.856 106.891 251.78 107.283 251.78ZM111.284 255.164C111.284 254.5 111.42 253.912 111.692 253.4C111.972 252.888 112.348 252.492 112.82 252.212C113.3 251.924 113.832 251.78 114.416 251.78C114.848 251.78 115.272 251.876 115.688 252.068C116.112 252.252 116.448 252.5 116.696 252.812V249.62H118.076V258.5H116.696V257.504C116.472 257.824 116.16 258.088 115.76 258.296C115.368 258.504 114.916 258.608 114.404 258.608C113.828 258.608 113.3 258.464 112.82 258.176C112.348 257.88 111.972 257.472 111.692 256.952C111.42 256.424 111.284 255.828 111.284 255.164ZM116.696 255.188C116.696 254.732 116.6 254.336 116.408 254C116.224 253.664 115.98 253.408 115.676 253.232C115.372 253.056 115.044 252.968 114.692 252.968C114.34 252.968 114.012 253.056 113.708 253.232C113.404 253.4 113.156 253.652 112.964 253.988C112.78 254.316 112.688 254.708 112.688 255.164C112.688 255.62 112.78 256.02 112.964 256.364C113.156 256.708 113.404 256.972 113.708 257.156C114.02 257.332 114.348 257.42 114.692 257.42C115.044 257.42 115.372 257.332 115.676 257.156C115.98 256.98 116.224 256.724 116.408 256.388C116.6 256.044 116.696 255.644 116.696 255.188ZM119.417 255.164C119.417 254.5 119.553 253.912 119.825 253.4C120.105 252.888 120.481 252.492 120.953 252.212C121.433 251.924 121.961 251.78 122.537 251.78C123.057 251.78 123.509 251.884 123.893 252.092C124.285 252.292 124.597 252.544 124.829 252.848V251.888H126.209V258.5H124.829V257.516C124.597 257.828 124.281 258.088 123.881 258.296C123.481 258.504 123.025 258.608 122.513 258.608C121.945 258.608 121.425 258.464 120.953 258.176C120.481 257.88 120.105 257.472 119.825 256.952C119.553 256.424 119.417 255.828 119.417 255.164ZM124.829 255.188C124.829 254.732 124.733 254.336 124.541 254C124.357 253.664 124.113 253.408 123.809 253.232C123.505 253.056 123.177 252.968 122.825 252.968C122.473 252.968 122.145 253.056 121.841 253.232C121.537 253.4 121.289 253.652 121.097 253.988C120.913 254.316 120.821 254.708 120.821 255.164C120.821 255.62 120.913 256.02 121.097 256.364C121.289 256.708 121.537 256.972 121.841 257.156C122.153 257.332 122.481 257.42 122.825 257.42C123.177 257.42 123.505 257.332 123.809 257.156C124.113 256.98 124.357 256.724 124.541 256.388C124.733 256.044 124.829 255.644 124.829 255.188ZM129.373 252.848C129.573 252.512 129.837 252.252 130.165 252.068C130.501 251.876 130.897 251.78 131.353 251.78V253.196H131.005C130.469 253.196 130.061 253.332 129.781 253.604C129.509 253.876 129.373 254.348 129.373 255.02V258.5H128.005V251.888H129.373V252.848ZM133.307 251.012C133.059 251.012 132.851 250.928 132.683 250.76C132.515 250.592 132.431 250.384 132.431 250.136C132.431 249.888 132.515 249.68 132.683 249.512C132.851 249.344 133.059 249.26 133.307 249.26C133.547 249.26 133.751 249.344 133.919 249.512C134.087 249.68 134.171 249.888 134.171 250.136C134.171 250.384 134.087 250.592 133.919 250.76C133.751 250.928 133.547 251.012 133.307 251.012ZM133.979 251.888V258.5H132.611V251.888H133.979ZM139.111 251.78C139.631 251.78 140.095 251.888 140.503 252.104C140.919 252.32 141.243 252.64 141.475 253.064C141.707 253.488 141.823 254 141.823 254.6V258.5H140.467V254.804C140.467 254.212 140.319 253.76 140.023 253.448C139.727 253.128 139.323 252.968 138.811 252.968C138.299 252.968 137.891 253.128 137.587 253.448C137.291 253.76 137.143 254.212 137.143 254.804V258.5H135.775V251.888H137.143V252.644C137.367 252.372 137.651 252.16 137.995 252.008C138.347 251.856 138.719 251.78 139.111 251.78Z" fill="#171721"/>
<rect x="42" y="282.5" width="100" height="36" rx="18" stroke="#E4E6E8" stroke-opacity="0.85" stroke-linecap="square"/>
<circle cx="67" cy="300.5" r="5" fill="#669E9E"/>
<mask id="mask4_133_4473" style="mask-type:luminance" maskUnits="userSpaceOnUse" x="62" y="295" width="10" height="11">
<circle cx="67" cy="300.5" r="5" fill="white"/>
<circle cx="67" cy="300.5" r="5" stroke="white"/>
</mask>
<g mask="url(#mask4_133_4473)">
</g>
<path d="M91.1567 298.56C90.9407 298.144 90.6407 297.832 90.2567 297.624C89.8727 297.408 89.4287 297.3 88.9247 297.3C88.3727 297.3 87.8807 297.424 87.4487 297.672C87.0167 297.92 86.6767 298.272 86.4287 298.728C86.1887 299.184 86.0687 299.712 86.0687 300.312C86.0687 300.912 86.1887 301.444 86.4287 301.908C86.6767 302.364 87.0167 302.716 87.4487 302.964C87.8807 303.212 88.3727 303.336 88.9247 303.336C89.6687 303.336 90.2727 303.128 90.7367 302.712C91.2007 302.296 91.4847 301.732 91.5887 301.02H88.4567V299.928H93.0527V300.996C92.9647 301.644 92.7327 302.24 92.3567 302.784C91.9887 303.328 91.5047 303.764 90.9047 304.092C90.3127 304.412 89.6527 304.572 88.9247 304.572C88.1407 304.572 87.4247 304.392 86.7767 304.032C86.1287 303.664 85.6127 303.156 85.2287 302.508C84.8527 301.86 84.6647 301.128 84.6647 300.312C84.6647 299.496 84.8527 298.764 85.2287 298.116C85.6127 297.468 86.1287 296.964 86.7767 296.604C87.4327 296.236 88.1487 296.052 88.9247 296.052C89.8127 296.052 90.6007 296.272 91.2887 296.712C91.9847 297.144 92.4887 297.76 92.8007 298.56H91.1567ZM95.77 298.848C95.97 298.512 96.234 298.252 96.562 298.068C96.898 297.876 97.294 297.78 97.75 297.78V299.196H97.402C96.866 299.196 96.458 299.332 96.178 299.604C95.906 299.876 95.77 300.348 95.77 301.02V304.5H94.402V297.888H95.77V298.848ZM98.5514 301.164C98.5514 300.5 98.6874 299.912 98.9594 299.4C99.2394 298.888 99.6154 298.492 100.087 298.212C100.567 297.924 101.095 297.78 101.671 297.78C102.191 297.78 102.643 297.884 103.027 298.092C103.419 298.292 103.731 298.544 103.963 298.848V297.888H105.343V304.5H103.963V303.516C103.731 303.828 103.415 304.088 103.015 304.296C102.615 304.504 102.159 304.608 101.647 304.608C101.079 304.608 100.559 304.464 100.087 304.176C99.6154 303.88 99.2394 303.472 98.9594 302.952C98.6874 302.424 98.5514 301.828 98.5514 301.164ZM103.963 301.188C103.963 300.732 103.867 300.336 103.675 300C103.491 299.664 103.247 299.408 102.943 299.232C102.639 299.056 102.311 298.968 101.959 298.968C101.607 298.968 101.279 299.056 100.975 299.232C100.671 299.4 100.423 299.652 100.231 299.988C100.047 300.316 99.9554 300.708 99.9554 301.164C99.9554 301.62 100.047 302.02 100.231 302.364C100.423 302.708 100.671 302.972 100.975 303.156C101.287 303.332 101.615 303.42 101.959 303.42C102.311 303.42 102.639 303.332 102.943 303.156C103.247 302.98 103.491 302.724 103.675 302.388C103.867 302.044 103.963 301.644 103.963 301.188ZM108.508 298.86C108.74 298.556 109.056 298.3 109.456 298.092C109.856 297.884 110.308 297.78 110.812 297.78C111.388 297.78 111.912 297.924 112.384 298.212C112.864 298.492 113.24 298.888 113.512 299.4C113.784 299.912 113.92 300.5 113.92 301.164C113.92 301.828 113.784 302.424 113.512 302.952C113.24 303.472 112.864 303.88 112.384 304.176C111.912 304.464 111.388 304.608 110.812 304.608C110.308 304.608 109.86 304.508 109.468 304.308C109.076 304.1 108.756 303.844 108.508 303.54V307.644H107.14V297.888H108.508V298.86ZM112.528 301.164C112.528 300.708 112.432 300.316 112.24 299.988C112.056 299.652 111.808 299.4 111.496 299.232C111.192 299.056 110.864 298.968 110.512 298.968C110.168 298.968 109.84 299.056 109.528 299.232C109.224 299.408 108.976 299.664 108.784 300C108.6 300.336 108.508 300.732 108.508 301.188C108.508 301.644 108.6 302.044 108.784 302.388C108.976 302.724 109.224 302.98 109.528 303.156C109.84 303.332 110.168 303.42 110.512 303.42C110.864 303.42 111.192 303.332 111.496 303.156C111.808 302.972 112.056 302.708 112.24 302.364C112.432 302.02 112.528 301.62 112.528 301.164ZM121.333 301.032C121.333 301.28 121.317 301.504 121.285 301.704H116.233C116.273 302.232 116.469 302.656 116.821 302.976C117.173 303.296 117.605 303.456 118.117 303.456C118.853 303.456 119.373 303.148 119.677 302.532H121.153C120.953 303.14 120.589 303.64 120.061 304.032C119.541 304.416 118.893 304.608 118.117 304.608C117.485 304.608 116.917 304.468 116.413 304.188C115.917 303.9 115.525 303.5 115.237 302.988C114.957 302.468 114.817 301.868 114.817 301.188C114.817 300.508 114.953 299.912 115.225 299.4C115.505 298.88 115.893 298.48 116.389 298.2C116.893 297.92 117.469 297.78 118.117 297.78C118.741 297.78 119.297 297.916 119.785 298.188C120.273 298.46 120.653 298.844 120.925 299.34C121.197 299.828 121.333 300.392 121.333 301.032ZM119.905 300.6C119.897 300.096 119.717 299.692 119.365 299.388C119.013 299.084 118.577 298.932 118.057 298.932C117.585 298.932 117.181 299.084 116.845 299.388C116.509 299.684 116.309 300.088 116.245 300.6H119.905Z" fill="#171721"/>
<g clip-path="url(#clip0_133_4473)">
<circle cx="486.751" cy="207.37" r="100.37" fill="#99BFBE"/>
<mask id="mask5_133_4473" style="mask-type:luminance" maskUnits="userSpaceOnUse" x="386" y="107" width="202" height="201">
<circle cx="486.751" cy="207.37" r="100.37" fill="white"/>
</mask>
<g mask="url(#mask5_133_4473)">
</g>
<path fill-rule="evenodd" clip-rule="evenodd" d="M511.237 169.759L484.01 206.133L377.601 182.301C371.273 209.968 375.693 240.006 392.326 265.619C400.408 278.065 410.619 288.302 422.176 296.165L490.299 205.703C490.299 205.703 499.101 189.232 511.237 169.759Z" fill="#CFB500"/>
<path fill-rule="evenodd" clip-rule="evenodd" d="M425.936 288.611C458.805 313.42 505.21 316.285 542.009 292.388C588.906 261.933 602.44 199.545 572.24 153.039C565.529 142.705 557.223 134.025 547.847 127.108L487.291 208.296L425.936 288.611Z" fill="#337E7D"/>
<path fill-rule="evenodd" clip-rule="evenodd" d="M463.365 306.11C471.08 307.999 479.142 309 487.439 309C543.187 309 588.381 263.781 588.381 208C588.381 152.219 543.187 107 487.439 107C487.061 107 486.685 107.002 486.308 107.006L487.879 208L463.365 306.11Z" fill="#669E9E"/>
<path fill-rule="evenodd" clip-rule="evenodd" d="M558.273 279.957C576.858 261.638 588.381 236.166 588.381 208C588.381 152.219 543.187 107 487.439 107C487.058 107 486.679 107.002 486.299 107.006L486.751 142.77L507.333 149.003L512.31 231.659L558.273 279.957Z" fill="#005E5D"/>
<circle cx="487.381" cy="208" r="70" fill="white"/>
<path d="M446.692 217.983H447.82V223.467H449.26V224.445H447.82V226.659H446.734V224.445H442.648V223.431L446.692 217.983ZM443.71 223.467H446.71V219.441L443.71 223.467ZM450.381 226.659V225.981V225.627C450.381 225.183 450.463 224.799 450.627 224.475C450.795 224.151 451.015 223.869 451.287 223.629C451.563 223.385 451.863 223.167 452.187 222.975C452.515 222.783 452.841 222.599 453.165 222.423C453.493 222.243 453.793 222.057 454.065 221.865C454.337 221.669 454.555 221.449 454.719 221.205C454.887 220.957 454.971 220.665 454.971 220.329C454.971 219.889 454.815 219.531 454.503 219.255C454.195 218.979 453.777 218.841 453.249 218.841C452.681 218.841 452.225 219.001 451.881 219.321C451.537 219.641 451.343 220.067 451.299 220.599H450.195C450.207 220.099 450.331 219.643 450.567 219.231C450.803 218.815 451.149 218.483 451.605 218.235C452.061 217.987 452.623 217.863 453.291 217.863C453.871 217.863 454.375 217.967 454.803 218.175C455.231 218.379 455.561 218.667 455.793 219.039C456.029 219.407 456.147 219.837 456.147 220.329C456.147 220.777 456.065 221.161 455.901 221.481C455.737 221.801 455.519 222.079 455.247 222.315C454.979 222.547 454.685 222.755 454.365 222.939C454.045 223.123 453.723 223.301 453.399 223.473C453.075 223.641 452.779 223.819 452.511 224.007C452.243 224.191 452.027 224.403 451.863 224.643C451.699 224.883 451.617 225.169 451.617 225.501V225.675H456.195V226.659H450.381ZM460.697 217.983C460.725 217.983 460.809 217.985 460.949 217.989C461.093 217.989 461.267 217.989 461.471 217.989C461.675 217.985 461.887 217.985 462.107 217.989C462.327 217.989 462.529 217.991 462.713 217.995C463.777 218.011 464.639 218.185 465.299 218.517C465.963 218.845 466.449 219.323 466.757 219.951C467.069 220.579 467.225 221.351 467.225 222.267C467.225 223.227 467.057 224.033 466.721 224.685C466.389 225.337 465.881 225.829 465.197 226.161C464.517 226.493 463.651 226.659 462.599 226.659H460.697V217.983ZM461.837 218.937V225.705H462.599C463.315 225.705 463.931 225.595 464.447 225.375C464.963 225.151 465.359 224.789 465.635 224.289C465.915 223.789 466.055 223.121 466.055 222.285C466.055 221.449 465.919 220.787 465.647 220.299C465.379 219.811 464.991 219.463 464.483 219.255C463.975 219.043 463.363 218.937 462.647 218.937H461.837ZM469.581 223.815C469.581 224.207 469.645 224.563 469.773 224.883C469.905 225.199 470.103 225.451 470.367 225.639C470.635 225.827 470.969 225.921 471.369 225.921C471.765 225.921 472.105 225.829 472.389 225.645C472.677 225.461 472.861 225.195 472.941 224.847H473.991C473.915 225.267 473.747 225.621 473.487 225.909C473.227 226.197 472.913 226.415 472.545 226.563C472.177 226.707 471.793 226.779 471.393 226.779C470.813 226.779 470.303 226.653 469.863 226.401C469.423 226.149 469.079 225.787 468.831 225.315C468.583 224.843 468.459 224.277 468.459 223.617C468.459 222.965 468.571 222.393 468.795 221.901C469.019 221.409 469.343 221.025 469.767 220.749C470.195 220.473 470.709 220.335 471.309 220.335C471.893 220.335 472.387 220.461 472.791 220.713C473.195 220.965 473.501 221.321 473.709 221.781C473.921 222.237 474.027 222.779 474.027 223.407V223.815H469.581ZM469.587 223.065H472.959C472.959 222.709 472.899 222.389 472.779 222.105C472.659 221.817 472.475 221.591 472.227 221.427C471.983 221.259 471.675 221.175 471.303 221.175C470.915 221.175 470.593 221.269 470.337 221.457C470.085 221.641 469.895 221.879 469.767 222.171C469.643 222.459 469.583 222.757 469.587 223.065ZM477.117 226.737C476.781 226.737 476.509 226.691 476.301 226.599C476.097 226.507 475.939 226.383 475.827 226.227C475.719 226.071 475.645 225.893 475.605 225.693C475.569 225.489 475.551 225.279 475.551 225.063V217.743H476.643V224.955C476.643 225.267 476.703 225.501 476.823 225.657C476.947 225.813 477.119 225.899 477.339 225.915L477.675 225.921V226.641C477.583 226.669 477.487 226.691 477.387 226.707C477.287 226.727 477.197 226.737 477.117 226.737ZM480.301 220.455V226.659H479.227V220.455H480.301ZM480.325 217.989V219.141H479.191V217.989H480.325ZM487.102 220.455L484.864 226.659H483.856L481.612 220.455H482.656L484.306 225.267H484.408L486.064 220.455H487.102ZM488.858 223.815C488.858 224.207 488.922 224.563 489.05 224.883C489.182 225.199 489.38 225.451 489.644 225.639C489.912 225.827 490.246 225.921 490.646 225.921C491.042 225.921 491.382 225.829 491.666 225.645C491.954 225.461 492.138 225.195 492.218 224.847H493.268C493.192 225.267 493.024 225.621 492.764 225.909C492.504 226.197 492.19 226.415 491.822 226.563C491.454 226.707 491.07 226.779 490.67 226.779C490.09 226.779 489.58 226.653 489.14 226.401C488.7 226.149 488.356 225.787 488.108 225.315C487.86 224.843 487.736 224.277 487.736 223.617C487.736 222.965 487.848 222.393 488.072 221.901C488.296 221.409 488.62 221.025 489.044 220.749C489.472 220.473 489.986 220.335 490.586 220.335C491.17 220.335 491.664 220.461 492.068 220.713C492.472 220.965 492.778 221.321 492.986 221.781C493.198 222.237 493.304 222.779 493.304 223.407V223.815H488.858ZM488.864 223.065H492.236C492.236 222.709 492.176 222.389 492.056 222.105C491.936 221.817 491.752 221.591 491.504 221.427C491.26 221.259 490.952 221.175 490.58 221.175C490.192 221.175 489.87 221.269 489.614 221.457C489.362 221.641 489.172 221.879 489.044 222.171C488.92 222.459 488.86 222.757 488.864 223.065ZM494.828 226.659V220.455H495.884V221.649C495.988 221.353 496.134 221.109 496.322 220.917C496.51 220.721 496.724 220.575 496.964 220.479C497.208 220.383 497.46 220.335 497.72 220.335C497.812 220.335 497.902 220.341 497.99 220.353C498.078 220.365 498.146 220.385 498.194 220.413V221.487C498.134 221.459 498.056 221.441 497.96 221.433C497.868 221.421 497.79 221.415 497.726 221.415C497.478 221.399 497.246 221.415 497.03 221.463C496.814 221.507 496.624 221.585 496.46 221.697C496.296 221.809 496.166 221.957 496.07 222.141C495.978 222.321 495.932 222.541 495.932 222.801V226.659H494.828ZM501.044 226.779C500.644 226.779 500.29 226.709 499.982 226.569C499.674 226.425 499.432 226.219 499.256 225.951C499.084 225.683 498.998 225.359 498.998 224.979C498.998 224.291 499.238 223.779 499.718 223.443C500.198 223.107 500.968 222.927 502.028 222.903L503.138 222.873V222.387C503.138 222.007 503.024 221.707 502.796 221.487C502.568 221.263 502.214 221.151 501.734 221.151C501.378 221.155 501.064 221.239 500.792 221.403C500.524 221.567 500.35 221.835 500.27 222.207H499.292C499.316 221.803 499.43 221.463 499.634 221.187C499.838 220.907 500.122 220.695 500.486 220.551C500.854 220.407 501.288 220.335 501.788 220.335C502.328 220.335 502.776 220.411 503.132 220.563C503.492 220.715 503.76 220.939 503.936 221.235C504.116 221.531 504.206 221.895 504.206 222.327V226.659H503.258L503.18 225.495C502.94 225.979 502.634 226.315 502.262 226.503C501.894 226.687 501.488 226.779 501.044 226.779ZM501.38 225.981C501.588 225.981 501.794 225.943 501.998 225.867C502.206 225.791 502.396 225.689 502.568 225.561C502.74 225.429 502.876 225.283 502.976 225.123C503.08 224.959 503.134 224.791 503.138 224.619V223.557L502.214 223.575C501.742 223.583 501.346 223.631 501.026 223.719C500.71 223.807 500.472 223.945 500.312 224.133C500.156 224.321 500.078 224.567 500.078 224.871C500.078 225.219 500.198 225.491 500.438 225.687C500.682 225.883 500.996 225.981 501.38 225.981ZM509.167 226.779C508.803 226.779 508.495 226.731 508.243 226.635C507.995 226.539 507.791 226.417 507.631 226.269C507.471 226.117 507.347 225.963 507.259 225.807C507.171 225.647 507.107 225.507 507.067 225.387L506.947 226.659H506.101V217.743H507.217V221.439C507.269 221.335 507.347 221.221 507.451 221.097C507.559 220.973 507.697 220.853 507.865 220.737C508.033 220.621 508.231 220.525 508.459 220.449C508.691 220.373 508.955 220.335 509.251 220.335C510.027 220.335 510.643 220.605 511.099 221.145C511.559 221.685 511.789 222.481 511.789 223.533C511.789 224.185 511.691 224.755 511.495 225.243C511.299 225.727 511.007 226.105 510.619 226.377C510.231 226.645 509.747 226.779 509.167 226.779ZM508.969 225.927C509.473 225.927 509.883 225.733 510.199 225.345C510.515 224.953 510.673 224.331 510.673 223.479C510.673 222.755 510.525 222.195 510.229 221.799C509.937 221.399 509.509 221.199 508.945 221.199C508.533 221.199 508.201 221.289 507.949 221.469C507.701 221.645 507.517 221.903 507.397 222.243C507.281 222.583 507.221 222.995 507.217 223.479C507.217 224.347 507.351 224.973 507.619 225.357C507.891 225.737 508.341 225.927 508.969 225.927ZM514.804 226.737C514.468 226.737 514.196 226.691 513.988 226.599C513.784 226.507 513.626 226.383 513.514 226.227C513.406 226.071 513.332 225.893 513.292 225.693C513.256 225.489 513.238 225.279 513.238 225.063V217.743H514.33V224.955C514.33 225.267 514.39 225.501 514.51 225.657C514.634 225.813 514.806 225.899 515.026 225.915L515.362 225.921V226.641C515.27 226.669 515.174 226.691 515.074 226.707C514.974 226.727 514.884 226.737 514.804 226.737ZM517.511 223.815C517.511 224.207 517.575 224.563 517.703 224.883C517.835 225.199 518.033 225.451 518.297 225.639C518.565 225.827 518.899 225.921 519.299 225.921C519.695 225.921 520.035 225.829 520.319 225.645C520.607 225.461 520.791 225.195 520.871 224.847H521.921C521.845 225.267 521.677 225.621 521.417 225.909C521.157 226.197 520.843 226.415 520.475 226.563C520.107 226.707 519.723 226.779 519.323 226.779C518.743 226.779 518.233 226.653 517.793 226.401C517.353 226.149 517.009 225.787 516.761 225.315C516.513 224.843 516.389 224.277 516.389 223.617C516.389 222.965 516.501 222.393 516.725 221.901C516.949 221.409 517.273 221.025 517.697 220.749C518.125 220.473 518.639 220.335 519.239 220.335C519.823 220.335 520.317 220.461 520.721 220.713C521.125 220.965 521.431 221.321 521.639 221.781C521.851 222.237 521.957 222.779 521.957 223.407V223.815H517.511ZM517.517 223.065H520.889C520.889 222.709 520.829 222.389 520.709 222.105C520.589 221.817 520.405 221.591 520.157 221.427C519.913 221.259 519.605 221.175 519.233 221.175C518.845 221.175 518.523 221.269 518.267 221.457C518.015 221.641 517.825 221.879 517.697 222.171C517.573 222.459 517.513 222.757 517.517 223.065ZM525.647 226.779C525.215 226.779 524.813 226.713 524.441 226.581C524.073 226.445 523.767 226.235 523.523 225.951C523.279 225.663 523.125 225.297 523.061 224.853H524.069C524.125 225.097 524.225 225.301 524.369 225.465C524.517 225.625 524.701 225.747 524.921 225.831C525.141 225.911 525.381 225.951 525.641 225.951C526.057 225.951 526.393 225.873 526.649 225.717C526.905 225.561 527.033 225.321 527.033 224.997C527.033 224.769 526.965 224.587 526.829 224.451C526.697 224.311 526.491 224.209 526.211 224.145L524.927 223.827C524.427 223.707 524.027 223.519 523.727 223.263C523.427 223.007 523.277 222.649 523.277 222.189C523.273 221.825 523.359 221.505 523.535 221.229C523.711 220.953 523.975 220.735 524.327 220.575C524.679 220.415 525.117 220.335 525.641 220.335C526.313 220.335 526.855 220.487 527.267 220.791C527.683 221.091 527.899 221.533 527.915 222.117H526.937C526.897 221.821 526.763 221.587 526.535 221.415C526.311 221.239 526.009 221.151 525.629 221.151C525.233 221.151 524.911 221.231 524.663 221.391C524.415 221.547 524.291 221.791 524.291 222.123C524.291 222.343 524.379 222.517 524.555 222.645C524.731 222.769 524.991 222.873 525.335 222.957L526.577 223.269C526.865 223.345 527.101 223.445 527.285 223.569C527.473 223.693 527.621 223.831 527.729 223.983C527.841 224.135 527.919 224.295 527.963 224.463C528.011 224.627 528.035 224.785 528.035 224.937C528.035 225.317 527.939 225.645 527.747 225.921C527.559 226.193 527.287 226.405 526.931 226.557C526.579 226.705 526.151 226.779 525.647 226.779Z" fill="#6F818C"/>
<path d="M455.732 206.939C453.305 206.939 451.336 206.453 449.824 205.483C448.312 204.503 447.444 202.995 447.22 200.961L451.476 200.877C451.7 201.801 452.181 202.505 452.918 202.991C453.665 203.467 454.598 203.705 455.718 203.705C456.39 203.705 456.983 203.597 457.496 203.383C458.019 203.159 458.429 202.86 458.728 202.487C459.027 202.104 459.176 201.67 459.176 201.185C459.176 200.438 458.938 199.883 458.462 199.519C457.986 199.145 457.253 198.847 456.264 198.623L452.946 197.909C451.406 197.601 450.169 196.989 449.236 196.075C448.312 195.151 447.841 193.914 447.822 192.365C447.813 191.095 448.153 189.999 448.844 189.075C449.544 188.141 450.491 187.423 451.686 186.919C452.89 186.415 454.239 186.163 455.732 186.163C457.263 186.163 458.583 186.438 459.694 186.989C460.814 187.53 461.673 188.263 462.27 189.187C462.877 190.101 463.171 191.114 463.152 192.225L459.022 192.295C458.891 191.399 458.593 190.694 458.126 190.181C457.659 189.667 456.885 189.411 455.802 189.411C455.242 189.411 454.743 189.471 454.304 189.593C453.865 189.714 453.487 189.887 453.17 190.111C452.853 190.325 452.61 190.582 452.442 190.881C452.283 191.179 452.204 191.515 452.204 191.889C452.204 192.477 452.4 192.943 452.792 193.289C453.193 193.625 453.945 193.937 455.046 194.227L458.308 195.025C460.147 195.463 461.472 196.215 462.284 197.279C463.105 198.343 463.516 199.635 463.516 201.157C463.516 202.323 463.194 203.341 462.55 204.209C461.915 205.077 461.015 205.749 459.848 206.225C458.681 206.701 457.309 206.939 455.732 206.939ZM453.982 183.517H457.524V187.157H453.982V183.517ZM453.912 205.693H457.44V209.333H453.912V205.693ZM468.238 186.415H481.244L481.09 189.761H471.472L471.08 194.647C471.827 194.227 472.536 193.923 473.208 193.737C473.89 193.55 474.636 193.457 475.448 193.457C476.802 193.457 478.01 193.713 479.074 194.227C480.148 194.731 480.997 195.473 481.622 196.453C482.248 197.433 482.56 198.627 482.56 200.037C482.56 201.465 482.238 202.697 481.594 203.733C480.95 204.769 480.036 205.567 478.85 206.127C477.674 206.687 476.279 206.967 474.664 206.967C473.339 206.967 472.107 206.761 470.968 206.351C469.83 205.94 468.845 205.38 468.014 204.671C467.184 203.952 466.554 203.131 466.124 202.207L469.316 200.317C469.68 200.951 470.091 201.525 470.548 202.039C471.006 202.543 471.533 202.944 472.13 203.243C472.737 203.532 473.442 203.677 474.244 203.677C475.458 203.677 476.433 203.355 477.17 202.711C477.908 202.067 478.276 201.227 478.276 200.191C478.276 199.537 478.108 198.954 477.772 198.441C477.446 197.918 476.993 197.507 476.414 197.209C475.836 196.91 475.159 196.761 474.384 196.761C473.974 196.761 473.582 196.798 473.208 196.873C472.844 196.938 472.471 197.069 472.088 197.265C471.715 197.451 471.3 197.722 470.842 198.077C470.712 198.133 470.618 198.161 470.562 198.161C470.516 198.161 470.422 198.128 470.282 198.063L467.314 196.691L468.238 186.415ZM485.173 206.659V202.207H489.653V206.659H485.173ZM493.463 206.659V204.643V203.607C493.463 202.58 493.654 201.693 494.037 200.947C494.419 200.191 494.923 199.537 495.549 198.987C496.183 198.427 496.874 197.937 497.621 197.517C498.377 197.097 499.133 196.7 499.889 196.327C500.645 195.953 501.335 195.58 501.961 195.207C502.595 194.824 503.104 194.399 503.487 193.933C503.869 193.466 504.061 192.915 504.061 192.281C504.061 191.469 503.776 190.806 503.207 190.293C502.647 189.779 501.877 189.523 500.897 189.523C499.879 189.523 499.016 189.817 498.307 190.405C497.597 190.993 497.159 191.879 496.991 193.065H493.085C493.103 191.777 493.402 190.61 493.981 189.565C494.569 188.51 495.446 187.675 496.613 187.059C497.779 186.443 499.245 186.135 501.009 186.135C502.521 186.135 503.823 186.391 504.915 186.905C506.016 187.418 506.865 188.132 507.463 189.047C508.06 189.961 508.359 191.03 508.359 192.253C508.359 193.27 508.172 194.147 507.799 194.885C507.425 195.622 506.931 196.252 506.315 196.775C505.699 197.297 505.022 197.755 504.285 198.147C503.547 198.539 502.81 198.903 502.073 199.239C501.345 199.575 500.673 199.92 500.057 200.275C499.441 200.62 498.946 201.012 498.573 201.451C498.199 201.889 498.013 202.417 498.013 203.033V203.215H508.331V206.659H493.463ZM525.39 206.659H521.316L517.41 200.415L515.492 202.459V206.659H511.404V185.855H515.492V198.189L520.812 192.183H525.208L519.944 197.951L525.39 206.659Z" fill="#171721"/>
<path d="M393.285 242.659V236.161H391.737V235.171C392.233 235.171 392.633 235.125 392.937 235.033C393.245 234.937 393.475 234.801 393.627 234.625C393.779 234.445 393.869 234.231 393.897 233.983H395.061V242.659H393.285ZM400.067 242.791C399.527 242.791 399.023 242.687 398.555 242.479C398.087 242.271 397.705 241.979 397.409 241.603C397.113 241.223 396.947 240.779 396.911 240.271H398.579C398.651 240.607 398.811 240.881 399.059 241.093C399.307 241.301 399.619 241.405 399.995 241.405C400.411 241.405 400.775 241.307 401.087 241.111C401.403 240.915 401.639 240.603 401.795 240.175C401.955 239.747 402.011 239.187 401.963 238.495C401.851 238.707 401.695 238.893 401.495 239.053C401.299 239.209 401.069 239.331 400.805 239.419C400.541 239.503 400.247 239.545 399.923 239.545C399.335 239.545 398.813 239.435 398.357 239.215C397.905 238.991 397.549 238.675 397.289 238.267C397.033 237.855 396.905 237.367 396.905 236.803C396.905 236.235 397.041 235.729 397.313 235.285C397.585 234.841 397.965 234.493 398.453 234.241C398.941 233.989 399.513 233.863 400.169 233.863C400.905 233.863 401.539 234.039 402.071 234.391C402.607 234.739 403.017 235.235 403.301 235.879C403.589 236.519 403.733 237.273 403.733 238.141C403.733 239.177 403.585 240.041 403.289 240.733C402.997 241.421 402.577 241.937 402.029 242.281C401.481 242.621 400.827 242.791 400.067 242.791ZM400.223 238.153C400.467 238.153 400.703 238.099 400.931 237.991C401.163 237.879 401.353 237.739 401.501 237.571C401.649 237.403 401.723 237.229 401.723 237.049C401.727 236.661 401.665 236.329 401.537 236.053C401.413 235.773 401.237 235.559 401.009 235.411C400.785 235.263 400.523 235.189 400.223 235.189C399.947 235.189 399.701 235.253 399.485 235.381C399.269 235.509 399.099 235.689 398.975 235.921C398.851 236.153 398.789 236.421 398.789 236.725C398.789 237.177 398.921 237.529 399.185 237.781C399.449 238.029 399.795 238.153 400.223 238.153ZM407.018 233.851C407.43 233.851 407.8 233.961 408.128 234.181C408.456 234.401 408.716 234.699 408.908 235.075C409.1 235.451 409.196 235.871 409.196 236.335C409.196 236.795 409.102 237.209 408.914 237.577C408.726 237.945 408.466 238.237 408.134 238.453C407.806 238.665 407.434 238.771 407.018 238.771C406.602 238.771 406.228 238.665 405.896 238.453C405.564 238.237 405.302 237.945 405.11 237.577C404.918 237.209 404.822 236.795 404.822 236.335C404.822 235.871 404.918 235.451 405.11 235.075C405.306 234.699 405.57 234.401 405.902 234.181C406.234 233.961 406.606 233.851 407.018 233.851ZM407.006 237.883C407.322 237.883 407.55 237.747 407.69 237.475C407.834 237.199 407.906 236.819 407.906 236.335C407.906 235.835 407.832 235.443 407.684 235.159C407.536 234.875 407.31 234.733 407.006 234.733C406.806 234.733 406.64 234.799 406.508 234.931C406.376 235.059 406.276 235.243 406.208 235.483C406.144 235.723 406.112 236.007 406.112 236.335C406.112 236.815 406.184 237.193 406.328 237.469C406.472 237.745 406.698 237.883 407.006 237.883ZM412.712 237.847C413.124 237.847 413.494 237.959 413.822 238.183C414.154 238.403 414.416 238.701 414.608 239.077C414.8 239.453 414.896 239.871 414.896 240.331C414.896 240.791 414.802 241.207 414.614 241.579C414.426 241.947 414.166 242.239 413.834 242.455C413.506 242.671 413.132 242.779 412.712 242.779C412.292 242.779 411.916 242.671 411.584 242.455C411.252 242.239 410.99 241.947 410.798 241.579C410.606 241.207 410.51 240.791 410.51 240.331C410.51 239.871 410.606 239.453 410.798 239.077C410.994 238.701 411.258 238.403 411.59 238.183C411.926 237.959 412.3 237.847 412.712 237.847ZM412.7 241.873C412.904 241.873 413.072 241.811 413.204 241.687C413.336 241.563 413.434 241.387 413.498 241.159C413.566 240.927 413.6 240.655 413.6 240.343C413.6 240.011 413.566 239.727 413.498 239.491C413.43 239.251 413.33 239.067 413.198 238.939C413.066 238.807 412.9 238.741 412.7 238.741C412.5 238.741 412.334 238.807 412.202 238.939C412.074 239.067 411.976 239.251 411.908 239.491C411.844 239.731 411.812 240.015 411.812 240.343C411.812 240.655 411.844 240.927 411.908 241.159C411.972 241.387 412.07 241.563 412.202 241.687C412.334 241.811 412.5 241.873 412.7 241.873ZM413.21 233.887L407.378 242.707L406.346 242.689L412.196 233.887H413.21Z" fill="white"/>
</g>
<g clip-path="url(#clip1_133_4473)">
<path d="M31.296 38V26.432H35.488C37.0027 26.432 38.1253 26.6933 38.856 27.216C39.592 27.7333 39.96 28.4827 39.96 29.464C39.96 30.04 39.8133 30.5413 39.52 30.968C39.2267 31.3893 38.704 31.7573 37.952 32.072C38.4373 32.1947 38.8293 32.36 39.128 32.568C39.4267 32.776 39.656 33.008 39.816 33.264C39.976 33.5147 40.0853 33.7787 40.144 34.056C40.2027 34.328 40.232 34.5973 40.232 34.864C40.232 35.9307 39.8693 36.72 39.144 37.232C38.4187 37.744 37.264 38 35.68 38H31.296ZM33.624 36.192H35.728C36.432 36.192 36.9627 36.0507 37.32 35.768C37.6827 35.4853 37.864 35.1067 37.864 34.632C37.864 34.2907 37.776 34.0053 37.6 33.776C37.424 33.5413 37.184 33.3653 36.88 33.248C36.5813 33.1307 36.24 33.072 35.856 33.072H33.624V36.192ZM33.624 31.216H35.856C36.096 31.216 36.3253 31.1893 36.544 31.136C36.768 31.0773 36.9653 30.9893 37.136 30.872C37.312 30.7547 37.4507 30.6053 37.552 30.424C37.6533 30.2373 37.704 30.0187 37.704 29.768C37.704 29.2667 37.5147 28.888 37.136 28.632C36.7627 28.3707 36.2827 28.24 35.696 28.24H33.624V31.216ZM44.5931 38.144C43.9851 38.144 43.5025 38.072 43.1451 37.928C42.7878 37.784 42.5238 37.5947 42.3531 37.36C42.1825 37.12 42.0731 36.856 42.0251 36.568C41.9771 36.2747 41.9531 35.9787 41.9531 35.68V26.112H44.2411V35.392C44.2411 35.696 44.3051 35.944 44.4331 36.136C44.5665 36.3227 44.8145 36.4373 45.1771 36.48L45.5691 36.504V37.944C45.4091 37.9973 45.2465 38.0427 45.0811 38.08C44.9158 38.1227 44.7531 38.144 44.5931 38.144ZM50.0793 38.16C49.6953 38.16 49.3166 38.1013 48.9433 37.984C48.5753 37.8667 48.2393 37.6933 47.9353 37.464C47.6313 37.2347 47.3859 36.952 47.1993 36.616C47.0179 36.28 46.9273 35.8907 46.9273 35.448V29.728H49.2633V35.152C49.2633 35.536 49.3886 35.8507 49.6393 36.096C49.8899 36.3413 50.2579 36.464 50.7433 36.464C51.2019 36.464 51.5646 36.3467 51.8313 36.112C52.1033 35.872 52.2393 35.5387 52.2393 35.112V29.728H54.5513V38H52.7913L52.5193 36.36C52.4233 36.8453 52.2419 37.2187 51.9753 37.48C51.7139 37.736 51.4126 37.912 51.0713 38.008C50.7353 38.1093 50.4046 38.16 50.0793 38.16ZM58.3731 34.4C58.3678 34.8213 58.4345 35.1893 58.5731 35.504C58.7118 35.8133 58.9118 36.0533 59.1731 36.224C59.4398 36.3893 59.7598 36.472 60.1331 36.472C60.5331 36.472 60.8825 36.3867 61.1811 36.216C61.4851 36.0453 61.6958 35.7653 61.8131 35.376H63.9171C63.8265 35.9627 63.5918 36.464 63.2131 36.88C62.8398 37.296 62.3865 37.6133 61.8531 37.832C61.3198 38.0507 60.7651 38.16 60.1891 38.16C59.3731 38.16 58.6531 37.9893 58.0291 37.648C57.4105 37.3013 56.9278 36.8133 56.5811 36.184C56.2345 35.5547 56.0611 34.8133 56.0611 33.96C56.0611 33.1333 56.2185 32.3893 56.5331 31.728C56.8478 31.0613 57.3038 30.536 57.9011 30.152C58.5038 29.7627 59.2265 29.568 60.0691 29.568C60.9118 29.568 61.6185 29.7467 62.1891 30.104C62.7651 30.456 63.1971 30.9493 63.4851 31.584C63.7785 32.2133 63.9251 32.9413 63.9251 33.768V34.4H58.3731ZM58.3651 33.008H61.7411C61.7411 32.6773 61.6798 32.3733 61.5571 32.096C61.4345 31.8187 61.2478 31.6 60.9971 31.44C60.7518 31.28 60.4425 31.2 60.0691 31.2C59.7065 31.2 59.3971 31.288 59.1411 31.464C58.8905 31.6347 58.6985 31.8587 58.5651 32.136C58.4318 32.4133 58.3651 32.704 58.3651 33.008ZM70.1549 38.16C69.7442 38.16 69.3895 38.1067 69.0909 38C68.7922 37.8933 68.5389 37.752 68.3309 37.576C68.1229 37.3947 67.9522 37.1947 67.8189 36.976C67.6855 36.7573 67.5815 36.5333 67.5069 36.304L67.2429 38H65.5469V26.112H67.8909V30.848C67.9922 30.672 68.1229 30.5067 68.2829 30.352C68.4429 30.1973 68.6295 30.0613 68.8429 29.944C69.0562 29.8267 69.2909 29.736 69.5469 29.672C69.8082 29.6027 70.0855 29.568 70.3789 29.568C71.4082 29.568 72.2135 29.9387 72.7949 30.68C73.3815 31.4213 73.6749 32.4667 73.6749 33.816C73.6749 34.6907 73.5415 35.4533 73.2749 36.104C73.0082 36.7547 72.6135 37.2613 72.0909 37.624C71.5682 37.9813 70.9229 38.16 70.1549 38.16ZM69.6429 36.48C70.1442 36.48 70.5602 36.2747 70.8909 35.864C71.2269 35.448 71.3949 34.7547 71.3949 33.784C71.3949 32.9253 71.2349 32.2907 70.9149 31.88C70.6002 31.4693 70.1709 31.264 69.6269 31.264C69.2375 31.264 68.9149 31.3573 68.6589 31.544C68.4029 31.7253 68.2109 32.0027 68.0829 32.376C67.9602 32.7493 67.8962 33.2187 67.8909 33.784C67.8909 34.76 68.0349 35.4533 68.3229 35.864C68.6162 36.2747 69.0562 36.48 69.6429 36.48ZM77.1544 34.4C77.149 34.8213 77.2157 35.1893 77.3544 35.504C77.493 35.8133 77.693 36.0533 77.9544 36.224C78.221 36.3893 78.541 36.472 78.9144 36.472C79.3144 36.472 79.6637 36.3867 79.9624 36.216C80.2664 36.0453 80.477 35.7653 80.5944 35.376H82.6984C82.6077 35.9627 82.373 36.464 81.9944 36.88C81.621 37.296 81.1677 37.6133 80.6344 37.832C80.101 38.0507 79.5464 38.16 78.9704 38.16C78.1544 38.16 77.4344 37.9893 76.8104 37.648C76.1917 37.3013 75.709 36.8133 75.3624 36.184C75.0157 35.5547 74.8424 34.8133 74.8424 33.96C74.8424 33.1333 74.9997 32.3893 75.3144 31.728C75.629 31.0613 76.085 30.536 76.6824 30.152C77.285 29.7627 78.0077 29.568 78.8504 29.568C79.693 29.568 80.3997 29.7467 80.9704 30.104C81.5464 30.456 81.9784 30.9493 82.2664 31.584C82.5597 32.2133 82.7064 32.9413 82.7064 33.768V34.4H77.1544ZM77.1464 33.008H80.5224C80.5224 32.6773 80.461 32.3733 80.3384 32.096C80.2157 31.8187 80.029 31.6 79.7784 31.44C79.533 31.28 79.2237 31.2 78.8504 31.2C78.4877 31.2 78.1784 31.288 77.9224 31.464C77.6717 31.6347 77.4797 31.8587 77.3464 32.136C77.213 32.4133 77.1464 32.704 77.1464 33.008ZM84.3281 38V29.728H86.5761V31.688C86.7095 31.2667 86.8961 30.8987 87.1361 30.584C87.3815 30.264 87.6775 30.016 88.0241 29.84C88.3708 29.6587 88.7628 29.568 89.2001 29.568C89.2748 29.568 89.3441 29.5733 89.4081 29.584C89.4775 29.5893 89.5281 29.6 89.5601 29.616V31.84C89.5121 31.8187 89.4535 31.8053 89.3841 31.8C89.3201 31.7947 89.2615 31.7893 89.2081 31.784C88.7495 31.7467 88.3575 31.76 88.0321 31.824C87.7068 31.888 87.4428 31.9973 87.2401 32.152C87.0375 32.3067 86.8908 32.496 86.8001 32.72C86.7095 32.944 86.6641 33.1947 86.6641 33.472V38H84.3281ZM90.8281 38V29.728H93.0761V31.688C93.2095 31.2667 93.3961 30.8987 93.6361 30.584C93.8815 30.264 94.1775 30.016 94.5241 29.84C94.8708 29.6587 95.2628 29.568 95.7001 29.568C95.7748 29.568 95.8441 29.5733 95.9081 29.584C95.9775 29.5893 96.0281 29.6 96.0601 29.616V31.84C96.0121 31.8187 95.9535 31.8053 95.8841 31.8C95.8201 31.7947 95.7615 31.7893 95.7081 31.784C95.2495 31.7467 94.8575 31.76 94.5321 31.824C94.2068 31.888 93.9428 31.9973 93.7401 32.152C93.5375 32.3067 93.3908 32.496 93.3001 32.72C93.2095 32.944 93.1641 33.1947 93.1641 33.472V38H90.8281ZM98.9599 40.64C98.3945 40.64 97.9945 40.592 97.7599 40.496C97.5305 40.4053 97.4159 40.36 97.4159 40.36V38.872L98.2319 38.904C98.5892 38.9253 98.8772 38.9067 99.0959 38.848C99.3145 38.7947 99.4799 38.7227 99.5919 38.632C99.7092 38.5413 99.7919 38.4453 99.8399 38.344C99.8879 38.248 99.9225 38.1707 99.9439 38.112L100.096 37.656L96.8799 29.728H99.1919L101.176 35.12L103.184 29.728H105.464L102.112 38.048C101.824 38.752 101.52 39.2907 101.2 39.664C100.88 40.0373 100.533 40.2933 100.16 40.432C99.7919 40.5707 99.3919 40.64 98.9599 40.64ZM110.249 26.432C110.308 26.432 110.47 26.432 110.737 26.432C111.009 26.432 111.326 26.432 111.689 26.432C112.057 26.432 112.422 26.4347 112.785 26.44C113.153 26.44 113.46 26.4427 113.705 26.448C115.108 26.48 116.252 26.7307 117.137 27.2C118.022 27.6693 118.67 28.3253 119.081 29.168C119.497 30.0107 119.705 31.008 119.705 32.16C119.705 33.36 119.486 34.3973 119.049 35.272C118.612 36.1413 117.942 36.8133 117.041 37.288C116.145 37.7627 115.006 38 113.625 38H110.249V26.432ZM112.601 28.32V36.112H113.673C114.334 36.112 114.934 35.984 115.473 35.728C116.017 35.472 116.452 35.0533 116.777 34.472C117.102 33.8907 117.265 33.1147 117.265 32.144C117.265 31.2427 117.121 30.512 116.833 29.952C116.545 29.3867 116.134 28.9733 115.601 28.712C115.068 28.4507 114.436 28.32 113.705 28.32H112.601ZM123.389 34.4C123.383 34.8213 123.45 35.1893 123.589 35.504C123.727 35.8133 123.927 36.0533 124.189 36.224C124.455 36.3893 124.775 36.472 125.149 36.472C125.549 36.472 125.898 36.3867 126.197 36.216C126.501 36.0453 126.711 35.7653 126.829 35.376H128.933C128.842 35.9627 128.607 36.464 128.229 36.88C127.855 37.296 127.402 37.6133 126.869 37.832C126.335 38.0507 125.781 38.16 125.205 38.16C124.389 38.16 123.669 37.9893 123.045 37.648C122.426 37.3013 121.943 36.8133 121.597 36.184C121.25 35.5547 121.077 34.8133 121.077 33.96C121.077 33.1333 121.234 32.3893 121.549 31.728C121.863 31.0613 122.319 30.536 122.917 30.152C123.519 29.7627 124.242 29.568 125.085 29.568C125.927 29.568 126.634 29.7467 127.205 30.104C127.781 30.456 128.213 30.9493 128.501 31.584C128.794 32.2133 128.941 32.9413 128.941 33.768V34.4H123.389ZM123.381 33.008H126.757C126.757 32.6773 126.695 32.3733 126.573 32.096C126.45 31.8187 126.263 31.6 126.013 31.44C125.767 31.28 125.458 31.2 125.085 31.2C124.722 31.2 124.413 31.288 124.157 31.464C123.906 31.6347 123.714 31.8587 123.581 32.136C123.447 32.4133 123.381 32.704 123.381 33.008ZM133.203 38.144C132.595 38.144 132.112 38.072 131.755 37.928C131.397 37.784 131.133 37.5947 130.963 37.36C130.792 37.12 130.683 36.856 130.635 36.568C130.587 36.2747 130.562 35.9787 130.562 35.68V26.112H132.851V35.392C132.851 35.696 132.915 35.944 133.043 36.136C133.176 36.3227 133.424 36.4373 133.786 36.48L134.179 36.504V37.944C134.019 37.9973 133.856 38.0427 133.691 38.08C133.525 38.1227 133.363 38.144 133.203 38.144ZM138.055 29.728V38H135.823V29.728H138.055ZM138.079 26.44V28.544H135.807V26.44H138.079ZM147.284 29.728L144.18 38H142.492L139.38 29.728H141.492L143.3 35H143.364L145.148 29.728H147.284ZM150.061 34.4C150.055 34.8213 150.122 35.1893 150.261 35.504C150.399 35.8133 150.599 36.0533 150.861 36.224C151.127 36.3893 151.447 36.472 151.821 36.472C152.221 36.472 152.57 36.3867 152.869 36.216C153.173 36.0453 153.383 35.7653 153.501 35.376H155.605C155.514 35.9627 155.279 36.464 154.901 36.88C154.527 37.296 154.074 37.6133 153.541 37.832C153.007 38.0507 152.453 38.16 151.877 38.16C151.061 38.16 150.341 37.9893 149.717 37.648C149.098 37.3013 148.615 36.8133 148.269 36.184C147.922 35.5547 147.749 34.8133 147.749 33.96C147.749 33.1333 147.906 32.3893 148.221 31.728C148.535 31.0613 148.991 30.536 149.589 30.152C150.191 29.7627 150.914 29.568 151.757 29.568C152.599 29.568 153.306 29.7467 153.877 30.104C154.453 30.456 154.885 30.9493 155.173 31.584C155.466 32.2133 155.613 32.9413 155.613 33.768V34.4H150.061ZM150.053 33.008H153.429C153.429 32.6773 153.367 32.3733 153.245 32.096C153.122 31.8187 152.935 31.6 152.685 31.44C152.439 31.28 152.13 31.2 151.757 31.2C151.394 31.2 151.085 31.288 150.829 31.464C150.578 31.6347 150.386 31.8587 150.253 32.136C150.119 32.4133 150.053 32.704 150.053 33.008ZM157.234 38V29.728H159.482V31.688C159.616 31.2667 159.802 30.8987 160.042 30.584C160.288 30.264 160.584 30.016 160.93 29.84C161.277 29.6587 161.669 29.568 162.106 29.568C162.181 29.568 162.25 29.5733 162.314 29.584C162.384 29.5893 162.434 29.6 162.466 29.616V31.84C162.418 31.8187 162.36 31.8053 162.29 31.8C162.226 31.7947 162.168 31.7893 162.114 31.784C161.656 31.7467 161.264 31.76 160.938 31.824C160.613 31.888 160.349 31.9973 160.146 32.152C159.944 32.3067 159.797 32.496 159.706 32.72C159.616 32.944 159.57 33.1947 159.57 33.472V38H157.234ZM166.041 38.16C165.513 38.16 165.038 38.0613 164.617 37.864C164.195 37.6667 163.862 37.3813 163.617 37.008C163.371 36.6293 163.249 36.1707 163.249 35.632C163.249 34.7253 163.587 34.0373 164.265 33.568C164.942 33.0933 166.011 32.848 167.473 32.832L168.505 32.816V32.32C168.505 31.9413 168.393 31.6507 168.169 31.448C167.95 31.24 167.609 31.1387 167.145 31.144C166.803 31.1493 166.478 31.2293 166.169 31.384C165.865 31.5387 165.657 31.808 165.545 32.192H163.601C163.633 31.5947 163.806 31.104 164.121 30.72C164.435 30.3307 164.862 30.0427 165.401 29.856C165.945 29.664 166.561 29.568 167.249 29.568C168.097 29.568 168.777 29.6747 169.289 29.888C169.801 30.096 170.171 30.3973 170.401 30.792C170.63 31.1813 170.745 31.6453 170.745 32.184V38H168.793L168.601 36.576C168.318 37.1733 167.963 37.5867 167.537 37.816C167.115 38.0453 166.617 38.16 166.041 38.16ZM166.825 36.624C167.038 36.624 167.243 36.5867 167.441 36.512C167.643 36.432 167.822 36.328 167.977 36.2C168.137 36.0667 168.265 35.9173 168.361 35.752C168.457 35.5867 168.505 35.416 168.505 35.24V34.016L167.665 34.032C167.275 34.0373 166.913 34.0853 166.577 34.176C166.241 34.2613 165.969 34.4027 165.761 34.6C165.558 34.7973 165.457 35.064 165.457 35.4C165.457 35.784 165.59 36.0853 165.857 36.304C166.123 36.5173 166.446 36.624 166.825 36.624ZM177.421 38.16C177.01 38.16 176.655 38.1067 176.357 38C176.058 37.8933 175.805 37.752 175.597 37.576C175.389 37.3947 175.218 37.1947 175.085 36.976C174.951 36.7573 174.847 36.5333 174.773 36.304L174.509 38H172.812V26.112H175.157V30.848C175.258 30.672 175.389 30.5067 175.549 30.352C175.709 30.1973 175.895 30.0613 176.109 29.944C176.322 29.8267 176.557 29.736 176.812 29.672C177.074 29.6027 177.351 29.568 177.645 29.568C178.674 29.568 179.479 29.9387 180.061 30.68C180.647 31.4213 180.941 32.4667 180.941 33.816C180.941 34.6907 180.807 35.4533 180.541 36.104C180.274 36.7547 179.879 37.2613 179.357 37.624C178.834 37.9813 178.189 38.16 177.421 38.16ZM176.909 36.48C177.41 36.48 177.826 36.2747 178.157 35.864C178.493 35.448 178.661 34.7547 178.661 33.784C178.661 32.9253 178.501 32.2907 178.181 31.88C177.866 31.4693 177.437 31.264 176.893 31.264C176.503 31.264 176.181 31.3573 175.924 31.544C175.669 31.7253 175.477 32.0027 175.349 32.376C175.226 32.7493 175.162 33.2187 175.157 33.784C175.157 34.76 175.301 35.4533 175.589 35.864C175.882 36.2747 176.322 36.48 176.909 36.48ZM185.14 38.144C184.532 38.144 184.049 38.072 183.692 37.928C183.335 37.784 183.071 37.5947 182.9 37.36C182.729 37.12 182.62 36.856 182.572 36.568C182.524 36.2747 182.5 35.9787 182.5 35.68V26.112H184.788V35.392C184.788 35.696 184.852 35.944 184.98 36.136C185.113 36.3227 185.361 36.4373 185.724 36.48L186.116 36.504V37.944C185.956 37.9973 185.793 38.0427 185.628 38.08C185.463 38.1227 185.3 38.144 185.14 38.144ZM189.529 34.4C189.524 34.8213 189.591 35.1893 189.729 35.504C189.868 35.8133 190.068 36.0533 190.329 36.224C190.596 36.3893 190.916 36.472 191.289 36.472C191.689 36.472 192.039 36.3867 192.337 36.216C192.641 36.0453 192.852 35.7653 192.969 35.376H195.073C194.983 35.9627 194.748 36.464 194.369 36.88C193.996 37.296 193.543 37.6133 193.009 37.832C192.476 38.0507 191.921 38.16 191.345 38.16C190.529 38.16 189.809 37.9893 189.185 37.648C188.567 37.3013 188.084 36.8133 187.737 36.184C187.391 35.5547 187.217 34.8133 187.217 33.96C187.217 33.1333 187.375 32.3893 187.689 31.728C188.004 31.0613 188.46 30.536 189.057 30.152C189.66 29.7627 190.383 29.568 191.225 29.568C192.068 29.568 192.775 29.7467 193.345 30.104C193.921 30.456 194.353 30.9493 194.641 31.584C194.935 32.2133 195.081 32.9413 195.081 33.768V34.4H189.529ZM189.521 33.008H192.897C192.897 32.6773 192.836 32.3733 192.713 32.096C192.591 31.8187 192.404 31.6 192.153 31.44C191.908 31.28 191.599 31.2 191.225 31.2C190.863 31.2 190.553 31.288 190.297 31.464C190.047 31.6347 189.855 31.8587 189.721 32.136C189.588 32.4133 189.521 32.704 189.521 33.008ZM199.96 38.16C199.384 38.16 198.829 38.0667 198.296 37.88C197.762 37.688 197.312 37.3893 196.944 36.984C196.576 36.5733 196.341 36.0427 196.24 35.392H198.264C198.333 35.6853 198.458 35.9173 198.64 36.088C198.826 36.2587 199.037 36.3813 199.272 36.456C199.506 36.5253 199.73 36.56 199.944 36.56C200.392 36.56 200.752 36.4907 201.024 36.352C201.301 36.208 201.44 35.9893 201.44 35.696C201.44 35.472 201.357 35.2933 201.192 35.16C201.032 35.0267 200.765 34.9253 200.391 34.856L198.936 34.552C198.205 34.3973 197.618 34.136 197.176 33.768C196.733 33.3947 196.506 32.8667 196.496 32.184C196.496 31.688 196.626 31.2427 196.888 30.848C197.154 30.4533 197.546 30.1413 198.064 29.912C198.581 29.6827 199.216 29.568 199.968 29.568C200.986 29.568 201.8 29.792 202.408 30.24C203.021 30.688 203.333 31.32 203.344 32.136H201.392C201.333 31.816 201.173 31.5707 200.912 31.4C200.656 31.224 200.333 31.136 199.944 31.136C199.538 31.136 199.205 31.208 198.944 31.352C198.682 31.496 198.552 31.7147 198.552 32.008C198.552 32.2267 198.658 32.4 198.872 32.528C199.085 32.6507 199.416 32.7573 199.864 32.848L201.208 33.152C201.672 33.264 202.048 33.4187 202.336 33.616C202.629 33.808 202.856 34.0187 203.016 34.248C203.176 34.4773 203.285 34.7093 203.344 34.944C203.408 35.1733 203.44 35.3813 203.44 35.568C203.44 36.1173 203.293 36.5867 203 36.976C202.706 37.36 202.298 37.6533 201.776 37.856C201.253 38.0587 200.648 38.16 199.96 38.16ZM208.263 38V36.848V36.256C208.263 35.6693 208.373 35.1627 208.591 34.736C208.81 34.304 209.098 33.9307 209.455 33.616C209.818 33.296 210.213 33.016 210.639 32.776C211.071 32.536 211.503 32.3093 211.935 32.096C212.367 31.8827 212.762 31.6693 213.119 31.456C213.482 31.2373 213.773 30.9947 213.991 30.728C214.21 30.4613 214.319 30.1467 214.319 29.784C214.319 29.32 214.157 28.9413 213.831 28.648C213.511 28.3547 213.071 28.208 212.511 28.208C211.93 28.208 211.437 28.376 211.031 28.712C210.626 29.048 210.375 29.5547 210.279 30.232H208.047C208.058 29.496 208.229 28.8293 208.559 28.232C208.895 27.6293 209.397 27.152 210.063 26.8C210.73 26.448 211.567 26.272 212.575 26.272C213.439 26.272 214.183 26.4187 214.807 26.712C215.437 27.0053 215.922 27.4133 216.263 27.936C216.605 28.4587 216.775 29.0693 216.775 29.768C216.775 30.3493 216.669 30.8507 216.455 31.272C216.242 31.6933 215.959 32.0533 215.607 32.352C215.255 32.6507 214.869 32.912 214.447 33.136C214.026 33.36 213.605 33.568 213.183 33.76C212.767 33.952 212.383 34.1493 212.031 34.352C211.679 34.5493 211.397 34.7733 211.183 35.024C210.97 35.2747 210.863 35.576 210.863 35.928V36.032H216.759V38H208.263ZM222.684 26.272C224.06 26.272 225.145 26.7867 225.94 27.816C226.734 28.84 227.132 30.3147 227.132 32.24C227.132 34.1547 226.74 35.624 225.956 36.648C225.172 37.6667 224.081 38.176 222.684 38.176C221.281 38.176 220.185 37.6667 219.396 36.648C218.612 35.6293 218.22 34.1627 218.22 32.248C218.22 30.968 218.401 29.8827 218.764 28.992C219.126 28.1013 219.641 27.4267 220.308 26.968C220.974 26.504 221.766 26.272 222.684 26.272ZM222.684 36.264C223.372 36.264 223.876 35.9573 224.196 35.344C224.516 34.7253 224.676 33.6933 224.676 32.248C224.676 30.7707 224.513 29.712 224.188 29.072C223.862 28.432 223.358 28.112 222.676 28.112C221.993 28.112 221.484 28.4347 221.148 29.08C220.817 29.7253 220.652 30.7813 220.652 32.248C220.652 33.688 220.817 34.7173 221.148 35.336C221.478 35.9547 221.99 36.264 222.684 36.264ZM228.732 38V36.848V36.256C228.732 35.6693 228.841 35.1627 229.06 34.736C229.279 34.304 229.567 33.9307 229.924 33.616C230.287 33.296 230.681 33.016 231.108 32.776C231.54 32.536 231.972 32.3093 232.404 32.096C232.836 31.8827 233.231 31.6693 233.588 31.456C233.951 31.2373 234.241 30.9947 234.46 30.728C234.679 30.4613 234.788 30.1467 234.788 29.784C234.788 29.32 234.625 28.9413 234.3 28.648C233.98 28.3547 233.54 28.208 232.98 28.208C232.399 28.208 231.905 28.376 231.5 28.712C231.095 29.048 230.844 29.5547 230.748 30.232H228.516C228.527 29.496 228.697 28.8293 229.028 28.232C229.364 27.6293 229.865 27.152 230.532 26.8C231.199 26.448 232.036 26.272 233.044 26.272C233.908 26.272 234.652 26.4187 235.276 26.712C235.905 27.0053 236.391 27.4133 236.732 27.936C237.073 28.4587 237.244 29.0693 237.244 29.768C237.244 30.3493 237.137 30.8507 236.924 31.272C236.711 31.6933 236.428 32.0533 236.076 32.352C235.724 32.6507 235.337 32.912 234.916 33.136C234.495 33.36 234.073 33.568 233.652 33.76C233.236 33.952 232.852 34.1493 232.5 34.352C232.148 34.5493 231.865 34.7733 231.652 35.024C231.439 35.2747 231.332 35.576 231.332 35.928V36.032H237.228V38H228.732ZM238.76 29.992C238.76 29.16 238.955 28.4693 239.344 27.92C239.739 27.3707 240.27 26.96 240.936 26.688C241.603 26.4107 242.344 26.272 243.16 26.272C244.024 26.272 244.792 26.384 245.464 26.608C246.142 26.832 246.675 27.1733 247.064 27.632C247.454 28.0907 247.648 28.672 247.648 29.376C247.648 29.9467 247.483 30.4507 247.152 30.888C246.822 31.32 246.283 31.664 245.536 31.92C245.963 32.0373 246.358 32.216 246.72 32.456C247.083 32.696 247.374 33.0027 247.592 33.376C247.811 33.7493 247.92 34.1973 247.92 34.72C247.92 35.2853 247.795 35.784 247.544 36.216C247.294 36.648 246.947 37.0107 246.504 37.304C246.062 37.5973 245.55 37.816 244.968 37.96C244.387 38.104 243.766 38.176 243.104 38.176C242.176 38.1707 241.384 38.0187 240.728 37.72C240.078 37.416 239.576 36.984 239.224 36.424C238.878 35.864 238.699 35.1973 238.688 34.424H240.936C241.048 35.08 241.304 35.5547 241.704 35.848C242.104 36.1413 242.579 36.288 243.128 36.288C243.608 36.288 244.019 36.2187 244.36 36.08C244.707 35.9413 244.971 35.7493 245.152 35.504C245.339 35.2533 245.432 34.968 245.432 34.648C245.432 34.3173 245.336 34.032 245.144 33.792C244.958 33.552 244.696 33.3653 244.36 33.232C244.024 33.0933 243.64 33.0187 243.208 33.008L242.104 32.968V31.112L243.096 31.056C243.512 31.04 243.875 30.9627 244.184 30.824C244.494 30.6853 244.734 30.5013 244.904 30.272C245.08 30.0373 245.168 29.7733 245.168 29.48C245.168 29.1973 245.08 28.952 244.904 28.744C244.728 28.536 244.486 28.3733 244.176 28.256C243.867 28.1387 243.512 28.08 243.112 28.08C242.744 28.08 242.406 28.1413 242.096 28.264C241.787 28.3867 241.534 28.5893 241.336 28.872C241.139 29.1493 241.024 29.5227 240.992 29.992H238.76Z" fill="#171721"/>
<g clip-path="url(#clip2_133_4473)">
<path d="M510.238 25.25C511.082 25.25 511.75 25.918 511.75 26.7617V37.2383C511.75 38.082 511.082 38.75 510.238 38.75H499.762C498.918 38.75 498.25 38.082 498.25 37.2383V26.7617C498.25 25.918 498.918 25.25 499.762 25.25H500.5V23.7383H502.012V25.25H507.988V23.7383H509.5V25.25H510.238ZM510.238 37.2383V29.75H499.762V37.2383H510.238ZM499.762 28.2383H510.238V26.7617H499.762V28.2383ZM501.238 31.2617V32.7383H508.762V31.2617H501.238ZM501.238 34.25V35.7617H506.512V34.25H501.238Z" fill="#6F818C"/>
<path d="M522.064 36.5V30.002H520.516V29.012C521.012 29.012 521.412 28.966 521.716 28.874C522.024 28.778 522.254 28.642 522.406 28.466C522.558 28.286 522.648 28.072 522.676 27.824H523.84V36.5H522.064ZM528.648 27.824H534.552L534.546 29.288H530.412V31.466H533.994V32.9H530.412V36.5H528.648V27.824ZM536.979 33.8C536.975 34.116 537.025 34.392 537.129 34.628C537.233 34.86 537.383 35.04 537.579 35.168C537.779 35.292 538.019 35.354 538.299 35.354C538.599 35.354 538.861 35.29 539.085 35.162C539.313 35.034 539.471 34.824 539.559 34.532H541.137C541.069 34.972 540.893 35.348 540.609 35.66C540.329 35.972 539.989 36.21 539.589 36.374C539.189 36.538 538.773 36.62 538.341 36.62C537.729 36.62 537.189 36.492 536.721 36.236C536.257 35.976 535.895 35.61 535.635 35.138C535.375 34.666 535.245 34.11 535.245 33.47C535.245 32.85 535.363 32.292 535.599 31.796C535.835 31.296 536.177 30.902 536.625 30.614C537.077 30.322 537.619 30.176 538.251 30.176C538.883 30.176 539.413 30.31 539.841 30.578C540.273 30.842 540.597 31.212 540.813 31.688C541.033 32.16 541.143 32.706 541.143 33.326V33.8H536.979ZM536.973 32.756H539.505C539.505 32.508 539.459 32.28 539.367 32.072C539.275 31.864 539.135 31.7 538.947 31.58C538.763 31.46 538.531 31.4 538.251 31.4C537.979 31.4 537.747 31.466 537.555 31.598C537.367 31.726 537.223 31.894 537.123 32.102C537.023 32.31 536.973 32.528 536.973 32.756ZM545.815 36.62C545.507 36.62 545.241 36.58 545.017 36.5C544.793 36.42 544.603 36.314 544.447 36.182C544.291 36.046 544.163 35.896 544.063 35.732C543.963 35.568 543.885 35.4 543.829 35.228L543.631 36.5H542.359V27.584H544.117V31.136C544.193 31.004 544.291 30.88 544.411 30.764C544.531 30.648 544.671 30.546 544.831 30.458C544.991 30.37 545.167 30.302 545.359 30.254C545.555 30.202 545.763 30.176 545.983 30.176C546.755 30.176 547.359 30.454 547.795 31.01C548.235 31.566 548.455 32.35 548.455 33.362C548.455 34.018 548.355 34.59 548.155 35.078C547.955 35.566 547.659 35.946 547.267 36.218C546.875 36.486 546.391 36.62 545.815 36.62ZM545.431 35.36C545.807 35.36 546.119 35.206 546.367 34.898C546.619 34.586 546.745 34.066 546.745 33.338C546.745 32.694 546.625 32.218 546.385 31.91C546.149 31.602 545.827 31.448 545.419 31.448C545.127 31.448 544.885 31.518 544.693 31.658C544.501 31.794 544.357 32.002 544.261 32.282C544.169 32.562 544.121 32.914 544.117 33.338C544.117 34.07 544.225 34.59 544.441 34.898C544.661 35.206 544.991 35.36 545.431 35.36ZM554.746 32.774V34.046L551.47 34.052V32.774H554.746ZM559.13 36.5V30.002H557.582V29.012C558.078 29.012 558.478 28.966 558.782 28.874C559.09 28.778 559.32 28.642 559.472 28.466C559.624 28.286 559.714 28.072 559.742 27.824H560.906V36.5H559.13ZM565.072 36.5L568.18 27.824H570.028L573.13 36.5H571.384L570.676 34.49H567.556L566.83 36.5H565.072ZM567.946 32.96H570.256L569.11 29.516L567.946 32.96ZM574.211 38.432V30.296H575.969L575.975 31.19C576.067 31.042 576.179 30.908 576.311 30.788C576.447 30.664 576.597 30.556 576.761 30.464C576.925 30.372 577.103 30.302 577.295 30.254C577.487 30.202 577.689 30.176 577.901 30.176C578.361 30.176 578.771 30.29 579.131 30.518C579.491 30.742 579.773 31.09 579.977 31.562C580.185 32.03 580.289 32.626 580.289 33.35C580.289 34.102 580.177 34.72 579.953 35.204C579.733 35.684 579.429 36.04 579.041 36.272C578.653 36.504 578.215 36.62 577.727 36.62C577.527 36.62 577.339 36.592 577.163 36.536C576.987 36.484 576.823 36.41 576.671 36.314C576.523 36.218 576.389 36.108 576.269 35.984C576.153 35.856 576.051 35.718 575.963 35.57V38.432H574.211ZM577.307 35.336C577.687 35.336 578.005 35.178 578.261 34.862C578.521 34.546 578.651 34.046 578.651 33.362C578.651 32.762 578.527 32.294 578.279 31.958C578.035 31.618 577.711 31.448 577.307 31.448C576.855 31.448 576.517 31.632 576.293 32C576.073 32.364 575.963 32.818 575.963 33.362C575.963 33.71 576.011 34.034 576.107 34.334C576.207 34.634 576.355 34.876 576.551 35.06C576.751 35.244 577.003 35.336 577.307 35.336ZM581.453 36.5V30.296H583.139V31.766C583.239 31.45 583.379 31.174 583.559 30.938C583.743 30.698 583.965 30.512 584.225 30.38C584.485 30.244 584.779 30.176 585.107 30.176C585.163 30.176 585.215 30.18 585.263 30.188C585.315 30.192 585.353 30.2 585.377 30.212V31.88C585.341 31.864 585.297 31.854 585.245 31.85C585.197 31.846 585.153 31.842 585.113 31.838C584.769 31.81 584.475 31.82 584.231 31.868C583.987 31.916 583.789 31.998 583.637 32.114C583.485 32.23 583.375 32.372 583.307 32.54C583.239 32.708 583.205 32.896 583.205 33.104V36.5H581.453ZM588.799 36.5V35.636V35.192C588.799 34.752 588.881 34.372 589.045 34.052C589.209 33.728 589.425 33.448 589.693 33.212C589.965 32.972 590.261 32.762 590.581 32.582C590.905 32.402 591.229 32.232 591.553 32.072C591.877 31.912 592.173 31.752 592.441 31.592C592.713 31.428 592.931 31.246 593.095 31.046C593.259 30.846 593.341 30.61 593.341 30.338C593.341 29.99 593.219 29.706 592.975 29.486C592.735 29.266 592.405 29.156 591.985 29.156C591.549 29.156 591.179 29.282 590.875 29.534C590.571 29.786 590.383 30.166 590.311 30.674H588.637C588.645 30.122 588.773 29.622 589.021 29.174C589.273 28.722 589.649 28.364 590.149 28.1C590.649 27.836 591.277 27.704 592.033 27.704C592.681 27.704 593.239 27.814 593.707 28.034C594.179 28.254 594.543 28.56 594.799 28.952C595.055 29.344 595.183 29.802 595.183 30.326C595.183 30.762 595.103 31.138 594.943 31.454C594.783 31.77 594.571 32.04 594.307 32.264C594.043 32.488 593.753 32.684 593.437 32.852C593.121 33.02 592.805 33.176 592.489 33.32C592.177 33.464 591.889 33.612 591.625 33.764C591.361 33.912 591.149 34.08 590.989 34.268C590.829 34.456 590.749 34.682 590.749 34.946V35.024H595.171V36.5H588.799ZM599.614 27.704C600.646 27.704 601.46 28.09 602.056 28.862C602.652 29.63 602.95 30.736 602.95 32.18C602.95 33.616 602.656 34.718 602.068 35.486C601.48 36.25 600.662 36.632 599.614 36.632C598.562 36.632 597.74 36.25 597.148 35.486C596.56 34.722 596.266 33.622 596.266 32.186C596.266 31.226 596.402 30.412 596.674 29.744C596.946 29.076 597.332 28.57 597.832 28.226C598.332 27.878 598.926 27.704 599.614 27.704ZM599.614 35.198C600.13 35.198 600.508 34.968 600.748 34.508C600.988 34.044 601.108 33.27 601.108 32.186C601.108 31.078 600.986 30.284 600.742 29.804C600.498 29.324 600.12 29.084 599.608 29.084C599.096 29.084 598.714 29.326 598.462 29.81C598.214 30.294 598.09 31.086 598.09 32.186C598.09 33.266 598.214 34.038 598.462 34.502C598.71 34.966 599.094 35.198 599.614 35.198ZM604.151 36.5V35.636V35.192C604.151 34.752 604.233 34.372 604.397 34.052C604.561 33.728 604.777 33.448 605.045 33.212C605.317 32.972 605.613 32.762 605.933 32.582C606.257 32.402 606.581 32.232 606.905 32.072C607.229 31.912 607.525 31.752 607.793 31.592C608.065 31.428 608.283 31.246 608.447 31.046C608.611 30.846 608.693 30.61 608.693 30.338C608.693 29.99 608.571 29.706 608.327 29.486C608.087 29.266 607.757 29.156 607.337 29.156C606.901 29.156 606.531 29.282 606.227 29.534C605.923 29.786 605.735 30.166 605.663 30.674H603.989C603.997 30.122 604.125 29.622 604.373 29.174C604.625 28.722 605.001 28.364 605.501 28.1C606.001 27.836 606.629 27.704 607.385 27.704C608.033 27.704 608.591 27.814 609.059 28.034C609.531 28.254 609.895 28.56 610.151 28.952C610.407 29.344 610.535 29.802 610.535 30.326C610.535 30.762 610.455 31.138 610.295 31.454C610.135 31.77 609.923 32.04 609.659 32.264C609.395 32.488 609.105 32.684 608.789 32.852C608.473 33.02 608.157 33.176 607.841 33.32C607.529 33.464 607.241 33.612 606.977 33.764C606.713 33.912 606.501 34.08 606.341 34.268C606.181 34.456 606.101 34.682 606.101 34.946V35.024H610.523V36.5H604.151ZM611.672 30.494C611.672 29.87 611.818 29.352 612.11 28.94C612.406 28.528 612.804 28.22 613.304 28.016C613.804 27.808 614.36 27.704 614.972 27.704C615.62 27.704 616.196 27.788 616.7 27.956C617.208 28.124 617.608 28.38 617.9 28.724C618.192 29.068 618.338 29.504 618.338 30.032C618.338 30.46 618.214 30.838 617.966 31.166C617.718 31.49 617.314 31.748 616.754 31.94C617.074 32.028 617.37 32.162 617.642 32.342C617.914 32.522 618.132 32.752 618.296 33.032C618.46 33.312 618.542 33.648 618.542 34.04C618.542 34.464 618.448 34.838 618.26 35.162C618.072 35.486 617.812 35.758 617.48 35.978C617.148 36.198 616.764 36.362 616.328 36.47C615.892 36.578 615.426 36.632 614.93 36.632C614.234 36.628 613.64 36.514 613.148 36.29C612.66 36.062 612.284 35.738 612.02 35.318C611.76 34.898 611.626 34.398 611.618 33.818H613.304C613.388 34.31 613.58 34.666 613.88 34.886C614.18 35.106 614.536 35.216 614.948 35.216C615.308 35.216 615.616 35.164 615.872 35.06C616.132 34.956 616.33 34.812 616.466 34.628C616.606 34.44 616.676 34.226 616.676 33.986C616.676 33.738 616.604 33.524 616.46 33.344C616.32 33.164 616.124 33.024 615.872 32.924C615.62 32.82 615.332 32.764 615.008 32.756L614.18 32.726V31.334L614.924 31.292C615.236 31.28 615.508 31.222 615.74 31.118C615.972 31.014 616.152 30.876 616.28 30.704C616.412 30.528 616.478 30.33 616.478 30.11C616.478 29.898 616.412 29.714 616.28 29.558C616.148 29.402 615.966 29.28 615.734 29.192C615.502 29.104 615.236 29.06 614.936 29.06C614.66 29.06 614.406 29.106 614.174 29.198C613.942 29.29 613.752 29.442 613.604 29.654C613.456 29.862 613.37 30.142 613.346 30.494H611.672Z" fill="#6F818C"/>
</g>
<path d="M0 63.5H650" stroke="#E4E6E8" stroke-opacity="0.85" stroke-linecap="square"/>
</g>
<defs>
<clipPath id="clip0_133_4473">
<rect width="238" height="237" fill="white" transform="translate(370 90)"/>
</clipPath>
<clipPath id="clip1_133_4473">
<rect width="650" height="64" fill="white"/>
</clipPath>
<clipPath id="clip2_133_4473">
<rect width="124" height="21" fill="white" transform="translate(496 21.5)"/>
</clipPath>
</defs>
</svg>
